rounded-thin.ufo
<glyph name="exclam" format="2">
  <advance height="1920" width="540"/>
  <unicode hex="0021"/>
  <outline>
    <contour>
      <point x="272.0" y="-3.0" type="curve" smooth="yes"/>
      <point x="268.0" y="-3.0" type="line" smooth="yes"/>
      <point x="255.0" y="-3.0"/>
      <point x="247.0" y="6.0"/>
      <point x="247.0" y="18.0" type="curve" smooth="yes"/>
      <point x="247.0" y="192.0" type="line" smooth="yes"/>
      <point x="247.0" y="204.0"/>
      <point x="255.0" y="213.0"/>
      <point x="268.0" y="213.0" type="curve" smooth="yes"/>
      <point x="272.0" y="213.0" type="line" smooth="yes"/>
      <point x="285.0" y="213.0"/>
      <point x="293.0" y="204.0"/>
      <point x="293.0" y="192.0" type="curve" smooth="yes"/>
      <point x="293.0" y="18.0" type="line" smooth="yes"/>
      <point x="293.0" y="6.0"/>
      <point x="285.0" y="-3.0"/>
    </contour>
    <contour>
      <point x="255.0" y="957.0" type="curve" smooth="yes"/>
      <point x="255.0" y="1434.0" type="line" smooth="yes"/>
      <point x="255.0" y="1447.0"/>
      <point x="260.0" y="1453.0"/>
      <point x="269.0" y="1453.0" type="curve" smooth="yes"/>
      <point x="271.0" y="1453.0" type="line" smooth="yes"/>
      <point x="280.0" y="1453.0"/>
      <point x="285.0" y="1447.0"/>
      <point x="285.0" y="1434.0" type="curve" smooth="yes"/>
      <point x="285.0" y="957.0" type="line" smooth="yes"/>
      <point x="285.0" y="946.0"/>
      <point x="283.0" y="855.0"/>
      <point x="283.0" y="844.0" type="curve" smooth="yes"/>
      <point x="281.0" y="444.0" type="line" smooth="yes"/>
      <point x="281.0" y="433.0"/>
      <point x="279.0" y="428.0"/>
      <point x="271.0" y="428.0" type="curve" smooth="yes"/>
      <point x="269.0" y="428.0" type="line" smooth="yes"/>
      <point x="261.0" y="428.0"/>
      <point x="259.0" y="433.0"/>
      <point x="259.0" y="444.0" type="curve" smooth="yes"/>
      <point x="257.0" y="844.0" type="line" smooth="yes"/>
      <point x="257.0" y="855.0"/>
      <point x="255.0" y="946.0"/>
    </contour>
  </outline>
</glyph>
<glyph name="numbersign" format="2">
  <advance height="1920" width="1300"/>
  <unicode hex="0023"/>
  <outline>
    <contour>
      <point x="84.0" y="460.0" type="curve" smooth="yes"/>
      <point x="1136.0" y="460.0" type="line" smooth="yes"/>
      <point x="1148.0" y="460.0"/>
      <point x="1153.0" y="456.0"/>
      <point x="1153.0" y="446.0" type="curve" smooth="yes"/>
      <point x="1153.0" y="444.0" type="line" smooth="yes"/>
      <point x="1153.0" y="434.0"/>
      <point x="1148.0" y="430.0"/>
      <point x="1136.0" y="430.0" type="curve" smooth="yes"/>
      <point x="84.0" y="430.0" type="line" smooth="yes"/>
      <point x="72.0" y="430.0"/>
      <point x="67.0" y="434.0"/>
      <point x="67.0" y="444.0" type="curve" smooth="yes"/>
      <point x="67.0" y="446.0" type="line" smooth="yes"/>
      <point x="67.0" y="456.0"/>
      <point x="72.0" y="460.0"/>
    </contour>
    <contour>
      <point x="164.0" y="1050.0" type="curve" smooth="yes"/>
      <point x="1216.0" y="1050.0" type="line" smooth="yes"/>
      <point x="1228.0" y="1050.0"/>
      <point x="1233.0" y="1046.0"/>
      <point x="1233.0" y="1036.0" type="curve" smooth="yes"/>
      <point x="1233.0" y="1034.0" type="line" smooth="yes"/>
      <point x="1233.0" y="1024.0"/>
      <point x="1228.0" y="1020.0"/>
      <point x="1216.0" y="1020.0" type="curve" smooth="yes"/>
      <point x="164.0" y="1020.0" type="line" smooth="yes"/>
      <point x="152.0" y="1020.0"/>
      <point x="147.0" y="1024.0"/>
      <point x="147.0" y="1034.0" type="curve" smooth="yes"/>
      <point x="147.0" y="1036.0" type="line" smooth="yes"/>
      <point x="147.0" y="1046.0"/>
      <point x="152.0" y="1050.0"/>
    </contour>
    <contour>
      <point x="993.0" y="1403.0" type="curve" smooth="yes"/>
      <point x="994.0" y="1403.0" type="line" smooth="yes"/>
      <point x="1008.0" y="1403.0"/>
      <point x="1010.0" y="1396.0"/>
      <point x="1006.0" y="1382.0" type="curve" smooth="yes"/>
      <point x="683.0" y="16.0" type="line" smooth="yes"/>
      <point x="680.0" y="3.0"/>
      <point x="679.0" y="-3.0"/>
      <point x="665.0" y="-3.0" type="curve" smooth="yes"/>
      <point x="664.0" y="-3.0" type="line" smooth="yes"/>
      <point x="650.0" y="-3.0"/>
      <point x="651.0" y="5.0"/>
      <point x="654.0" y="18.0" type="curve" smooth="yes"/>
      <point x="977.0" y="1384.0" type="line" smooth="yes"/>
      <point x="980.0" y="1396.0"/>
      <point x="979.0" y="1403.0"/>
    </contour>
    <contour>
      <point x="613.0" y="1403.0" type="curve" smooth="yes"/>
      <point x="614.0" y="1403.0" type="line" smooth="yes"/>
      <point x="625.0" y="1403.0"/>
      <point x="630.0" y="1396.0"/>
      <point x="626.0" y="1382.0" type="curve" smooth="yes"/>
      <point x="303.0" y="16.0" type="line" smooth="yes"/>
      <point x="300.0" y="3.0"/>
      <point x="296.0" y="-3.0"/>
      <point x="285.0" y="-3.0" type="curve" smooth="yes"/>
      <point x="284.0" y="-3.0" type="line" smooth="yes"/>
      <point x="274.0" y="-3.0"/>
      <point x="271.0" y="5.0"/>
      <point x="274.0" y="18.0" type="curve" smooth="yes"/>
      <point x="597.0" y="1384.0" type="line" smooth="yes"/>
      <point x="600.0" y="1396.0"/>
      <point x="602.0" y="1403.0"/>
    </contour>
  </outline>
</glyph>
<glyph name="dollar" format="2">
  <advance height="1920" width="1110"/>
  <unicode hex="0024"/>
  <outline>
    <contour>
      <point x="147.0" y="511.0" type="curve" smooth="yes"/>
      <point x="149.0" y="511.0" type="line" smooth="yes"/>
      <point x="156.0" y="511.0"/>
      <point x="165.0" y="506.0"/>
      <point x="165.0" y="493.0" type="curve" smooth="yes"/>
      <point x="165.0" y="427.0" type="line" smooth="yes"/>
      <point x="165.0" y="198.0"/>
      <point x="279.0" y="-5.0"/>
      <point x="560.0" y="-5.0" type="curve" smooth="yes"/>
      <point x="829.0" y="-5.0"/>
      <point x="933.0" y="165.0"/>
      <point x="933.0" y="345.0" type="curve" smooth="yes"/>
      <point x="933.0" y="492.0"/>
      <point x="842.0" y="615.0"/>
      <point x="538.0" y="684.0" type="curve" smooth="yes"/>
      <point x="269.0" y="746.0"/>
      <point x="170.0" y="885.0"/>
      <point x="170.0" y="1063.0" type="curve" smooth="yes"/>
      <point x="170.0" y="1293.0"/>
      <point x="303.0" y="1435.0"/>
      <point x="540.0" y="1435.0" type="curve" smooth="yes"/>
      <point x="814.0" y="1435.0"/>
      <point x="920.0" y="1256.0"/>
      <point x="920.0" y="1041.0" type="curve" smooth="yes"/>
      <point x="920.0" y="977.0" type="line" smooth="yes"/>
      <point x="920.0" y="965.0"/>
      <point x="912.0" y="960.0"/>
      <point x="903.0" y="960.0" type="curve" smooth="yes"/>
      <point x="902.0" y="960.0" type="line" smooth="yes"/>
      <point x="893.0" y="960.0"/>
      <point x="885.0" y="964.0"/>
      <point x="885.0" y="976.0" type="curve" smooth="yes"/>
      <point x="885.0" y="1031.0" type="line" smooth="yes"/>
      <point x="885.0" y="1236.0"/>
      <point x="785.0" y="1405.0"/>
      <point x="540.0" y="1405.0" type="curve" smooth="yes"/>
      <point x="333.0" y="1405.0"/>
      <point x="208.0" y="1283.0"/>
      <point x="208.0" y="1063.0" type="curve" smooth="yes"/>
      <point x="208.0" y="902.0"/>
      <point x="290.0" y="774.0"/>
      <point x="548.0" y="715.0" type="curve" smooth="yes"/>
      <point x="847.0" y="647.0"/>
      <point x="970.0" y="515.0"/>
      <point x="970.0" y="348.0" type="curve" smooth="yes"/>
      <point x="970.0" y="152.0"/>
      <point x="870.0" y="-35.0"/>
      <point x="560.0" y="-35.0" type="curve" smooth="yes"/>
      <point x="252.0" y="-35.0"/>
      <point x="131.0" y="183.0"/>
      <point x="131.0" y="418.0" type="curve" smooth="yes"/>
      <point x="131.0" y="492.0" type="line" smooth="yes"/>
      <point x="131.0" y="505.0"/>
      <point x="140.0" y="511.0"/>
    </contour>
    <contour>
      <point x="549.0" y="1590.0" type="curve" smooth="yes"/>
      <point x="551.0" y="1590.0" type="line" smooth="yes"/>
      <point x="559.0" y="1590.0"/>
      <point x="565.0" y="1586.0"/>
      <point x="565.0" y="1576.0" type="curve" smooth="yes"/>
      <point x="565.0" y="-176.0" type="line" smooth="yes"/>
      <point x="565.0" y="-186.0"/>
      <point x="559.0" y="-190.0"/>
      <point x="551.0" y="-190.0" type="curve" smooth="yes"/>
      <point x="549.0" y="-190.0" type="line" smooth="yes"/>
      <point x="541.0" y="-190.0"/>
      <point x="535.0" y="-186.0"/>
      <point x="535.0" y="-176.0" type="curve" smooth="yes"/>
      <point x="535.0" y="1576.0" type="line" smooth="yes"/>
      <point x="535.0" y="1586.0"/>
      <point x="541.0" y="1590.0"/>
    </contour>
  </outline>
</glyph>
<glyph name="ampersand" format="2">
  <advance height="1920" width="1280"/>
  <unicode hex="0026"/>
  <outline>
    <contour>
      <point x="1119.0" y="16.0" type="curve" smooth="yes"/>
      <point x="558.0" y="734.0" type="line" smooth="yes"/>
      <point x="426.0" y="903.0"/>
      <point x="340.0" y="1030.0"/>
      <point x="340.0" y="1163.0" type="curve" smooth="yes"/>
      <point x="340.0" y="1303.0"/>
      <point x="438.0" y="1435.0"/>
      <point x="645.0" y="1435.0" type="curve" smooth="yes"/>
      <point x="832.0" y="1435.0"/>
      <point x="970.0" y="1343.0"/>
      <point x="970.0" y="1173.0" type="curve" smooth="yes"/>
      <point x="970.0" y="990.0"/>
      <point x="845.0" y="868.0"/>
      <point x="637.0" y="776.0" type="curve" smooth="yes"/>
      <point x="383.0" y="664.0"/>
      <point x="102.0" y="627.0"/>
      <point x="102.0" y="443.0" type="curve" smooth="yes"/>
      <point x="102.0" y="354.0"/>
      <point x="127.0" y="294.0"/>
      <point x="176.0" y="219.0" type="curve" smooth="yes"/>
      <point x="229.0" y="139.0" type="line" smooth="yes"/>
      <point x="285.0" y="54.0"/>
      <point x="406.0" y="-5.0"/>
      <point x="531.0" y="-5.0" type="curve" smooth="yes"/>
      <point x="773.0" y="-5.0"/>
      <point x="992.0" y="245.0"/>
      <point x="1119.0" y="634.0" type="curve" smooth="yes"/>
      <point x="1123.0" y="645.0"/>
      <point x="1127.0" y="653.0"/>
      <point x="1138.0" y="653.0" type="curve" smooth="yes"/>
      <point x="1139.0" y="653.0" type="line" smooth="yes"/>
      <point x="1150.0" y="653.0"/>
      <point x="1154.0" y="645.0"/>
      <point x="1149.0" y="631.0" type="curve" smooth="yes"/>
      <point x="1014.0" y="226.0"/>
      <point x="799.0" y="-35.0"/>
      <point x="531.0" y="-35.0" type="curve" smooth="yes"/>
      <point x="395.0" y="-35.0"/>
      <point x="268.0" y="15.0"/>
      <point x="199.0" y="119.0" type="curve" smooth="yes"/>
      <point x="146.0" y="199.0" type="line" smooth="yes"/>
      <point x="93.0" y="279.0"/>
      <point x="66.0" y="347.0"/>
      <point x="66.0" y="443.0" type="curve" smooth="yes"/>
      <point x="66.0" y="652.0"/>
      <point x="379.0" y="695.0"/>
      <point x="617.0" y="806.0" type="curve" smooth="yes"/>
      <point x="837.0" y="908.0"/>
      <point x="935.0" y="1012.0"/>
      <point x="935.0" y="1173.0" type="curve" smooth="yes"/>
      <point x="935.0" y="1313.0"/>
      <point x="822.0" y="1405.0"/>
      <point x="645.0" y="1405.0" type="curve" smooth="yes"/>
      <point x="468.0" y="1405.0"/>
      <point x="375.0" y="1292.0"/>
      <point x="375.0" y="1163.0" type="curve" smooth="yes"/>
      <point x="375.0" y="1044.0"/>
      <point x="458.0" y="918.0"/>
      <point x="593.0" y="744.0" type="curve" smooth="yes"/>
      <point x="1156.0" y="21.0" type="line" smooth="yes"/>
      <point x="1166.0" y="9.0"/>
      <point x="1158.0" y="-3.0"/>
      <point x="1146.0" y="-3.0" type="curve" smooth="yes"/>
      <point x="1145.0" y="-3.0" type="line" smooth="yes"/>
      <point x="1133.0" y="-3.0"/>
      <point x="1128.0" y="3.0"/>
    </contour>
  </outline>
</glyph>
<glyph name="quotesingle" format="2">
  <advance height="1920" width="370"/>
  <unicode hex="0027"/>
  <outline>
    <contour>
      <point x="186.0" y="930.0" type="curve" smooth="yes"/>
      <point x="185.0" y="930.0" type="line" smooth="yes"/>
      <point x="177.0" y="930.0"/>
      <point x="173.0" y="934.0"/>
      <point x="173.0" y="944.0" type="curve" smooth="yes"/>
      <point x="171.0" y="1146.0" type="line" smooth="yes"/>
      <point x="171.0" y="1187.0"/>
      <point x="168.0" y="1208.0"/>
      <point x="168.0" y="1239.0" type="curve" smooth="yes"/>
      <point x="168.0" y="1404.0" type="line" smooth="yes"/>
      <point x="168.0" y="1416.0"/>
      <point x="172.0" y="1423.0"/>
      <point x="184.0" y="1423.0" type="curve" smooth="yes"/>
      <point x="186.0" y="1423.0" type="line" smooth="yes"/>
      <point x="198.0" y="1423.0"/>
      <point x="202.0" y="1416.0"/>
      <point x="202.0" y="1404.0" type="curve" smooth="yes"/>
      <point x="202.0" y="1239.0" type="line" smooth="yes"/>
      <point x="202.0" y="1208.0"/>
      <point x="199.0" y="1187.0"/>
      <point x="199.0" y="1146.0" type="curve" smooth="yes"/>
      <point x="197.0" y="944.0" type="line" smooth="yes"/>
      <point x="197.0" y="934.0"/>
      <point x="194.0" y="930.0"/>
    </contour>
  </outline>
</glyph>
<glyph name="parenleft" format="2">
  <advance height="2048" width="535"/>
  <unicode hex="0028"/>
  <outline>
    <contour>
      <point x="130.0" y="838.0" type="line" smooth="yes"/>
      <point x="130.0" y="1243.0"/>
      <point x="239.0" y="1561.0"/>
      <point x="489.0" y="1618.0" type="curve" smooth="yes"/>
      <point x="499.0" y="1620.0"/>
      <point x="504.0" y="1618.0"/>
      <point x="504.0" y="1609.0" type="curve" smooth="yes"/>
      <point x="504.0" y="1608.0" type="line" smooth="yes"/>
      <point x="504.0" y="1599.0"/>
      <point x="500.0" y="1598.0"/>
      <point x="491.0" y="1595.0" type="curve" smooth="yes"/>
      <point x="272.0" y="1523.0"/>
      <point x="165.0" y="1239.0"/>
      <point x="165.0" y="838.0" type="curve" smooth="yes"/>
      <point x="165.0" y="412.0" type="line" smooth="yes"/>
      <point x="165.0" y="11.0"/>
      <point x="272.0" y="-273.0"/>
      <point x="491.0" y="-345.0" type="curve" smooth="yes"/>
      <point x="500.0" y="-348.0"/>
      <point x="505.0" y="-349.0"/>
      <point x="505.0" y="-358.0" type="curve" smooth="yes"/>
      <point x="505.0" y="-359.0" type="line" smooth="yes"/>
      <point x="505.0" y="-368.0"/>
      <point x="499.0" y="-370.0"/>
      <point x="489.0" y="-368.0" type="curve" smooth="yes"/>
      <point x="239.0" y="-311.0"/>
      <point x="130.0" y="7.0"/>
      <point x="130.0" y="412.0" type="curve" smooth="yes"/>
    </contour>
  </outline>
</glyph>
<glyph name="parenright" format="2">
  <advance height="2048" width="535"/>
  <unicode hex="0029"/>
  <outline>
    <contour>
      <point x="405.0" y="412.0" type="line" smooth="yes"/>
      <point x="405.0" y="7.0"/>
      <point x="296.0" y="-311.0"/>
      <point x="46.0" y="-368.0" type="curve" smooth="yes"/>
      <point x="36.0" y="-370.0"/>
      <point x="31.0" y="-368.0"/>
      <point x="31.0" y="-359.0" type="curve" smooth="yes"/>
      <point x="31.0" y="-358.0" type="line" smooth="yes"/>
      <point x="31.0" y="-349.0"/>
      <point x="35.0" y="-348.0"/>
      <point x="44.0" y="-345.0" type="curve" smooth="yes"/>
      <point x="263.0" y="-273.0"/>
      <point x="370.0" y="11.0"/>
      <point x="370.0" y="412.0" type="curve" smooth="yes"/>
      <point x="370.0" y="838.0" type="line" smooth="yes"/>
      <point x="370.0" y="1239.0"/>
      <point x="263.0" y="1523.0"/>
      <point x="44.0" y="1595.0" type="curve" smooth="yes"/>
      <point x="35.0" y="1598.0"/>
      <point x="30.0" y="1599.0"/>
      <point x="30.0" y="1608.0" type="curve" smooth="yes"/>
      <point x="30.0" y="1609.0" type="line" smooth="yes"/>
      <point x="30.0" y="1618.0"/>
      <point x="36.0" y="1620.0"/>
      <point x="46.0" y="1618.0" type="curve" smooth="yes"/>
      <point x="296.0" y="1561.0"/>
      <point x="405.0" y="1243.0"/>
      <point x="405.0" y="838.0" type="curve" smooth="yes"/>
    </contour>
  </outline>
</glyph>
<glyph name="asterisk" format="2">
  <advance height="2048" width="914"/>
  <unicode hex="002A"/>
  <outline>
    <contour>
      <point x="459.0" y="1015.0" type="line"/>
      <point x="455.0" y="1025.0" type="line"/>
      <point x="781.0" y="1143.0" type="line" smooth="yes"/>
      <point x="791.0" y="1146.0"/>
      <point x="797.0" y="1150.0"/>
      <point x="805.0" y="1152.0" type="curve" smooth="yes"/>
      <point x="846.0" y="1164.0" type="line" smooth="yes"/>
      <point x="856.0" y="1167.0"/>
      <point x="865.0" y="1165.0"/>
      <point x="868.0" y="1155.0" type="curve" smooth="yes"/>
      <point x="869.0" y="1153.0" type="line" smooth="yes"/>
      <point x="872.0" y="1143.0"/>
      <point x="867.0" y="1135.0"/>
      <point x="857.0" y="1132.0" type="curve" smooth="yes"/>
      <point x="816.0" y="1118.0" type="line" smooth="yes"/>
      <point x="807.0" y="1115.0"/>
      <point x="801.0" y="1114.0"/>
      <point x="791.0" y="1111.0" type="curve" smooth="yes"/>
    </contour>
    <contour>
      <point x="453.0" y="1017.0" type="line"/>
      <point x="461.0" y="1023.0" type="line"/>
      <point x="674.0" y="750.0" type="line" smooth="yes"/>
      <point x="680.0" y="741.0"/>
      <point x="685.0" y="736.0"/>
      <point x="690.0" y="730.0" type="curve" smooth="yes"/>
      <point x="715.0" y="694.0" type="line" smooth="yes"/>
      <point x="721.0" y="686.0"/>
      <point x="721.0" y="676.0"/>
      <point x="712.0" y="670.0" type="curve" smooth="yes"/>
      <point x="711.0" y="669.0" type="line" smooth="yes"/>
      <point x="702.0" y="663.0"/>
      <point x="693.0" y="666.0"/>
      <point x="687.0" y="674.0" type="curve" smooth="yes"/>
      <point x="661.0" y="708.0" type="line" smooth="yes"/>
      <point x="656.0" y="715.0"/>
      <point x="653.0" y="721.0"/>
      <point x="647.0" y="730.0" type="curve" smooth="yes"/>
    </contour>
    <contour>
      <point x="453.0" y="1023.0" type="line"/>
      <point x="461.0" y="1017.0" type="line"/>
      <point x="267.0" y="730.0" type="line" smooth="yes"/>
      <point x="261.0" y="721.0"/>
      <point x="258.0" y="714.0"/>
      <point x="253.0" y="708.0" type="curve" smooth="yes"/>
      <point x="227.0" y="674.0" type="line" smooth="yes"/>
      <point x="221.0" y="666.0"/>
      <point x="212.0" y="663.0"/>
      <point x="203.0" y="669.0" type="curve" smooth="yes"/>
      <point x="202.0" y="670.0" type="line" smooth="yes"/>
      <point x="193.0" y="676.0"/>
      <point x="193.0" y="686.0"/>
      <point x="199.0" y="694.0" type="curve" smooth="yes"/>
      <point x="224.0" y="730.0" type="line" smooth="yes"/>
      <point x="229.0" y="737.0"/>
      <point x="234.0" y="741.0"/>
      <point x="240.0" y="750.0" type="curve" smooth="yes"/>
    </contour>
    <contour>
      <point x="459.0" y="1025.0" type="line"/>
      <point x="455.0" y="1015.0" type="line"/>
      <point x="123.0" y="1111.0" type="line" smooth="yes"/>
      <point x="113.0" y="1114.0"/>
      <point x="106.0" y="1115.0"/>
      <point x="98.0" y="1118.0" type="curve" smooth="yes"/>
      <point x="57.0" y="1132.0" type="line" smooth="yes"/>
      <point x="47.0" y="1135.0"/>
      <point x="40.0" y="1144.0"/>
      <point x="45.0" y="1153.0" type="curve" smooth="yes"/>
      <point x="46.0" y="1155.0" type="line" smooth="yes"/>
      <point x="51.0" y="1164.0"/>
      <point x="58.0" y="1167.0"/>
      <point x="68.0" y="1164.0" type="curve" smooth="yes"/>
      <point x="109.0" y="1152.0" type="line" smooth="yes"/>
      <point x="118.0" y="1149.0"/>
      <point x="123.0" y="1147.0"/>
      <point x="133.0" y="1143.0" type="curve" smooth="yes"/>
    </contour>
    <contour>
      <point x="462.0" y="1020.0" type="line"/>
      <point x="452.0" y="1020.0" type="line"/>
      <point x="440.0" y="1366.0" type="line" smooth="yes"/>
      <point x="440.0" y="1377.0"/>
      <point x="439.0" y="1384.0"/>
      <point x="439.0" y="1392.0" type="curve" smooth="yes"/>
      <point x="440.0" y="1435.0" type="line" smooth="yes"/>
      <point x="440.0" y="1445.0"/>
      <point x="445.0" y="1453.0"/>
      <point x="456.0" y="1453.0" type="curve" smooth="yes"/>
      <point x="458.0" y="1453.0" type="line" smooth="yes"/>
      <point x="469.0" y="1453.0"/>
      <point x="474.0" y="1445.0"/>
      <point x="474.0" y="1435.0" type="curve" smooth="yes"/>
      <point x="475.0" y="1392.0" type="line" smooth="yes"/>
      <point x="475.0" y="1383.0"/>
      <point x="474.0" y="1377.0"/>
      <point x="474.0" y="1366.0" type="curve" smooth="yes"/>
    </contour>
  </outline>
</glyph>
<glyph name="plus" format="2">
  <advance height="1920" width="1040"/>
  <unicode hex="002B"/>
  <outline>
    <contour>
      <point x="42.0" y="690.0" type="curve" smooth="yes"/>
      <point x="42.0" y="695.0" type="line" smooth="yes"/>
      <point x="42.0" y="705.0"/>
      <point x="48.0" y="710.0"/>
      <point x="60.0" y="710.0" type="curve" smooth="yes"/>
      <point x="980.0" y="710.0" type="line" smooth="yes"/>
      <point x="992.0" y="710.0"/>
      <point x="998.0" y="705.0"/>
      <point x="998.0" y="695.0" type="curve" smooth="yes"/>
      <point x="998.0" y="690.0" type="line" smooth="yes"/>
      <point x="998.0" y="680.0"/>
      <point x="992.0" y="675.0"/>
      <point x="980.0" y="675.0" type="curve" smooth="yes"/>
      <point x="60.0" y="675.0" type="line" smooth="yes"/>
      <point x="48.0" y="675.0"/>
      <point x="42.0" y="680.0"/>
    </contour>
    <contour>
      <point x="519.0" y="1193.0" type="curve" smooth="yes"/>
      <point x="521.0" y="1193.0" type="line" smooth="yes"/>
      <point x="531.0" y="1193.0"/>
      <point x="535.0" y="1187.0"/>
      <point x="535.0" y="1175.0" type="curve" smooth="yes"/>
      <point x="535.0" y="185.0" type="line" smooth="yes"/>
      <point x="535.0" y="173.0"/>
      <point x="531.0" y="167.0"/>
      <point x="521.0" y="167.0" type="curve" smooth="yes"/>
      <point x="519.0" y="167.0" type="line" smooth="yes"/>
      <point x="509.0" y="167.0"/>
      <point x="505.0" y="173.0"/>
      <point x="505.0" y="185.0" type="curve" smooth="yes"/>
      <point x="505.0" y="1175.0" type="line" smooth="yes"/>
      <point x="505.0" y="1187.0"/>
      <point x="509.0" y="1193.0"/>
    </contour>
  </outline>
</glyph>
<glyph name="comma" format="2">
  <advance height="1920" width="540"/>
  <unicode hex="002C"/>
  <outline>
    <contour>
      <point x="240.0" y="-211.0" type="curve" smooth="yes"/>
      <point x="239.0" y="-211.0" type="line" smooth="yes"/>
      <point x="231.0" y="-211.0"/>
      <point x="229.0" y="-203.0"/>
      <point x="231.0" y="-193.0" type="curve" smooth="yes"/>
      <point x="267.0" y="0.0" type="line"/>
      <point x="265.0" y="0.0" type="line" smooth="yes"/>
      <point x="252.0" y="0.0"/>
      <point x="248.0" y="5.0"/>
      <point x="248.0" y="19.0" type="curve" smooth="yes"/>
      <point x="248.0" y="193.0" type="line" smooth="yes"/>
      <point x="248.0" y="205.0"/>
      <point x="255.0" y="213.0"/>
      <point x="268.0" y="213.0" type="curve" smooth="yes"/>
      <point x="272.0" y="213.0" type="line" smooth="yes"/>
      <point x="285.0" y="213.0"/>
      <point x="293.0" y="205.0"/>
      <point x="293.0" y="193.0" type="curve" smooth="yes"/>
      <point x="293.0" y="38.0" type="line" smooth="yes"/>
      <point x="293.0" y="27.0"/>
      <point x="288.0" y="8.0"/>
      <point x="286.0" y="-3.0" type="curve" smooth="yes"/>
      <point x="254.0" y="-191.0" type="line" smooth="yes"/>
      <point x="251.0" y="-206.0"/>
      <point x="247.0" y="-211.0"/>
    </contour>
  </outline>
</glyph>
<glyph name="hyphen" format="2">
  <advance height="1920" width="570"/>
  <unicode hex="002D"/>
  <outline>
    <contour>
      <point x="37.0" y="610.0" type="curve" smooth="yes"/>
      <point x="37.0" y="615.0" type="line" smooth="yes"/>
      <point x="37.0" y="625.0"/>
      <point x="43.0" y="630.0"/>
      <point x="55.0" y="630.0" type="curve" smooth="yes"/>
      <point x="515.0" y="630.0" type="line" smooth="yes"/>
      <point x="527.0" y="630.0"/>
      <point x="533.0" y="625.0"/>
      <point x="533.0" y="615.0" type="curve" smooth="yes"/>
      <point x="533.0" y="610.0" type="line" smooth="yes"/>
      <point x="533.0" y="600.0"/>
      <point x="527.0" y="595.0"/>
      <point x="515.0" y="595.0" type="curve" smooth="yes"/>
      <point x="55.0" y="595.0" type="line" smooth="yes"/>
      <point x="43.0" y="595.0"/>
      <point x="37.0" y="600.0"/>
    </contour>
  </outline>
</glyph>
<glyph name="period" format="2">
  <advance height="1920" width="540"/>
  <unicode hex="002E"/>
  <outline>
    <contour>
      <point x="272.0" y="-3.0" type="curve" smooth="yes"/>
      <point x="268.0" y="-3.0" type="line" smooth="yes"/>
      <point x="255.0" y="-3.0"/>
      <point x="247.0" y="6.0"/>
      <point x="247.0" y="18.0" type="curve" smooth="yes"/>
      <point x="247.0" y="192.0" type="line" smooth="yes"/>
      <point x="247.0" y="204.0"/>
      <point x="255.0" y="213.0"/>
      <point x="268.0" y="213.0" type="curve" smooth="yes"/>
      <point x="272.0" y="213.0" type="line" smooth="yes"/>
      <point x="285.0" y="213.0"/>
      <point x="293.0" y="204.0"/>
      <point x="293.0" y="192.0" type="curve" smooth="yes"/>
      <point x="293.0" y="18.0" type="line" smooth="yes"/>
      <point x="293.0" y="6.0"/>
      <point x="285.0" y="-3.0"/>
    </contour>
  </outline>
</glyph>
<glyph name="slash" format="2">
  <advance height="2048" width="840"/>
  <unicode hex="002F"/>
  <outline>
    <contour>
      <point x="742.0" y="1379.0" type="curve" smooth="yes"/>
      <point x="102.0" y="-84.0" type="line" smooth="yes"/>
      <point x="96.0" y="-98.0"/>
      <point x="92.0" y="-103.0"/>
      <point x="83.0" y="-103.0" type="curve" smooth="yes"/>
      <point x="82.0" y="-103.0" type="line" smooth="yes"/>
      <point x="70.0" y="-103.0"/>
      <point x="67.0" y="-95.0"/>
      <point x="74.0" y="-79.0" type="curve" smooth="yes"/>
      <point x="713.0" y="1384.0" type="line" smooth="yes"/>
      <point x="719.0" y="1398.0"/>
      <point x="723.0" y="1403.0"/>
      <point x="732.0" y="1403.0" type="curve" smooth="yes"/>
      <point x="733.0" y="1403.0" type="line" smooth="yes"/>
      <point x="742.0" y="1403.0"/>
      <point x="749.0" y="1395.0"/>
    </contour>
  </outline>
</glyph>
<glyph name="one" format="2">
  <advance height="1920" width="600"/>
  <unicode hex="0031"/>
  <outline>
    <contour>
      <point x="291.0" y="1400.0" type="curve" smooth="yes"/>
      <point x="294.0" y="1408.0"/>
      <point x="296.0" y="1420.0"/>
      <point x="298.0" y="1438.0" type="curve" smooth="yes"/>
      <point x="299.0" y="1446.0"/>
      <point x="301.0" y="1450.0"/>
      <point x="306.0" y="1450.0" type="curve" smooth="yes"/>
      <point x="307.0" y="1450.0" type="line" smooth="yes"/>
      <point x="313.0" y="1450.0"/>
      <point x="315.0" y="1445.0"/>
      <point x="315.0" y="1436.0" type="curve" smooth="yes"/>
      <point x="315.0" y="16.0" type="line" smooth="yes"/>
      <point x="315.0" y="3.0"/>
      <point x="312.0" y="-3.0"/>
      <point x="301.0" y="-3.0" type="curve" smooth="yes"/>
      <point x="300.0" y="-3.0" type="line" smooth="yes"/>
      <point x="289.0" y="-3.0"/>
      <point x="285.0" y="3.0"/>
      <point x="285.0" y="16.0" type="curve" smooth="yes"/>
      <point x="285.0" y="1377.0" type="line" smooth="yes"/>
      <point x="285.0" y="1388.0"/>
      <point x="289.0" y="1395.0"/>
    </contour>
  </outline>
</glyph>
<glyph name="two" format="2">
  <advance height="1920" width="1080"/>
  <unicode hex="0032"/>
  <outline>
    <contour>
      <point x="162.0" y="49.0" type="line" smooth="yes"/>
      <point x="162.0" y="521.0"/>
      <point x="870.0" y="638.0"/>
      <point x="870.0" y="1033.0" type="curve" smooth="yes"/>
      <point x="870.0" y="1068.0" type="line" smooth="yes"/>
      <point x="870.0" y="1238.0"/>
      <point x="766.0" y="1405.0"/>
      <point x="559.0" y="1405.0" type="curve" smooth="yes"/>
      <point x="309.0" y="1405.0"/>
      <point x="220.0" y="1255.0"/>
      <point x="220.0" y="1002.0" type="curve" smooth="yes"/>
      <point x="220.0" y="918.0" type="line" smooth="yes"/>
      <point x="220.0" y="905.0"/>
      <point x="214.0" y="899.0"/>
      <point x="203.0" y="899.0" type="curve" smooth="yes"/>
      <point x="202.0" y="899.0" type="line" smooth="yes"/>
      <point x="191.0" y="899.0"/>
      <point x="185.0" y="905.0"/>
      <point x="185.0" y="918.0" type="curve" smooth="yes"/>
      <point x="185.0" y="1002.0" type="line" smooth="yes"/>
      <point x="185.0" y="1276.0"/>
      <point x="282.0" y="1435.0"/>
      <point x="559.0" y="1435.0" type="curve" smooth="yes"/>
      <point x="786.0" y="1435.0"/>
      <point x="905.0" y="1253.0"/>
      <point x="905.0" y="1073.0" type="curve" smooth="yes"/>
      <point x="905.0" y="1028.0" type="line" smooth="yes"/>
      <point x="905.0" y="622.0"/>
      <point x="194.0" y="486.0"/>
      <point x="194.0" y="45.0" type="curve" smooth="yes"/>
      <point x="194.0" y="35.0" type="line"/>
      <point x="981.0" y="35.0" type="line" smooth="yes"/>
      <point x="994.0" y="35.0"/>
      <point x="1000.0" y="30.0"/>
      <point x="1000.0" y="19.0" type="curve" smooth="yes"/>
      <point x="1000.0" y="16.0" type="line" smooth="yes"/>
      <point x="1000.0" y="5.0"/>
      <point x="994.0" y="0.0"/>
      <point x="981.0" y="0.0" type="curve" smooth="yes"/>
      <point x="182.0" y="0.0" type="line" smooth="yes"/>
      <point x="164.0" y="0.0"/>
      <point x="162.0" y="7.0"/>
      <point x="162.0" y="23.0" type="curve" smooth="yes"/>
    </contour>
  </outline>
</glyph>
<glyph name="three" format="2">
  <advance height="1920" width="1100"/>
  <unicode hex="0033"/>
  <outline>
    <contour>
      <point x="174.0" y="410.0" type="curve" smooth="yes"/>
      <point x="175.0" y="410.0" type="line" smooth="yes"/>
      <point x="186.0" y="410.0"/>
      <point x="190.0" y="405.0"/>
      <point x="190.0" y="392.0" type="curve" smooth="yes"/>
      <point x="190.0" y="327.0" type="line" smooth="yes"/>
      <point x="190.0" y="107.0"/>
      <point x="301.0" y="-5.0"/>
      <point x="530.0" y="-5.0" type="curve" smooth="yes"/>
      <point x="807.0" y="-5.0"/>
      <point x="905.0" y="142.0"/>
      <point x="905.0" y="342.0" type="curve" smooth="yes"/>
      <point x="905.0" y="393.0" type="line" smooth="yes"/>
      <point x="905.0" y="593.0"/>
      <point x="757.0" y="740.0"/>
      <point x="530.0" y="740.0" type="curve" smooth="yes"/>
      <point x="455.0" y="740.0" type="line" smooth="yes"/>
      <point x="443.0" y="740.0"/>
      <point x="437.0" y="743.0"/>
      <point x="437.0" y="754.0" type="curve" smooth="yes"/>
      <point x="437.0" y="755.0" type="line" smooth="yes"/>
      <point x="437.0" y="766.0"/>
      <point x="443.0" y="770.0"/>
      <point x="455.0" y="770.0" type="curve" smooth="yes"/>
      <point x="510.0" y="770.0" type="line" smooth="yes"/>
      <point x="747.0" y="770.0"/>
      <point x="850.0" y="893.0"/>
      <point x="850.0" y="1053.0" type="curve" smooth="yes"/>
      <point x="850.0" y="1088.0" type="line" smooth="yes"/>
      <point x="850.0" y="1278.0"/>
      <point x="771.0" y="1405.0"/>
      <point x="544.0" y="1405.0" type="curve" smooth="yes"/>
      <point x="334.0" y="1405.0"/>
      <point x="225.0" y="1265.0"/>
      <point x="225.0" y="1052.0" type="curve" smooth="yes"/>
      <point x="225.0" y="968.0" type="line" smooth="yes"/>
      <point x="225.0" y="955.0"/>
      <point x="221.0" y="949.0"/>
      <point x="211.0" y="949.0" type="curve" smooth="yes"/>
      <point x="210.0" y="949.0" type="line" smooth="yes"/>
      <point x="199.0" y="949.0"/>
      <point x="195.0" y="955.0"/>
      <point x="195.0" y="968.0" type="curve" smooth="yes"/>
      <point x="195.0" y="1052.0" type="line" smooth="yes"/>
      <point x="195.0" y="1286.0"/>
      <point x="317.0" y="1435.0"/>
      <point x="544.0" y="1435.0" type="curve" smooth="yes"/>
      <point x="771.0" y="1435.0"/>
      <point x="885.0" y="1313.0"/>
      <point x="885.0" y="1083.0" type="curve" smooth="yes"/>
      <point x="885.0" y="1058.0" type="line" smooth="yes"/>
      <point x="885.0" y="878.0"/>
      <point x="767.0" y="750.0"/>
      <point x="510.0" y="750.0" type="curve"/>
      <point x="530.0" y="760.0" type="line"/>
      <point x="787.0" y="760.0"/>
      <point x="935.0" y="612.0"/>
      <point x="935.0" y="392.0" type="curve" smooth="yes"/>
      <point x="935.0" y="337.0" type="line" smooth="yes"/>
      <point x="935.0" y="127.0"/>
      <point x="827.0" y="-35.0"/>
      <point x="530.0" y="-35.0" type="curve" smooth="yes"/>
      <point x="278.0" y="-35.0"/>
      <point x="160.0" y="99.0"/>
      <point x="160.0" y="327.0" type="curve" smooth="yes"/>
      <point x="160.0" y="392.0" type="line" smooth="yes"/>
      <point x="160.0" y="405.0"/>
      <point x="164.0" y="410.0"/>
    </contour>
  </outline>
</glyph>
<glyph name="four" format="2">
  <advance height="1920" width="1045"/>
  <unicode hex="0034"/>
  <outline>
    <contour>
      <point x="953.0" y="406.0" type="curve" smooth="yes"/>
      <point x="953.0" y="405.0" type="line" smooth="yes"/>
      <point x="953.0" y="394.0"/>
      <point x="947.0" y="390.0"/>
      <point x="934.0" y="390.0" type="curve" smooth="yes"/>
      <point x="755.0" y="390.0" type="line"/>
      <point x="755.0" y="16.0" type="line" smooth="yes"/>
      <point x="755.0" y="3.0"/>
      <point x="749.0" y="-3.0"/>
      <point x="738.0" y="-3.0" type="curve" smooth="yes"/>
      <point x="737.0" y="-3.0" type="line" smooth="yes"/>
      <point x="726.0" y="-3.0"/>
      <point x="720.0" y="3.0"/>
      <point x="720.0" y="16.0" type="curve" smooth="yes"/>
      <point x="720.0" y="390.0" type="line"/>
      <point x="86.0" y="390.0" type="line" smooth="yes"/>
      <point x="63.0" y="390.0"/>
      <point x="47.0" y="395.0"/>
      <point x="47.0" y="415.0" type="curve" smooth="yes"/>
      <point x="47.0" y="423.0" type="line" smooth="yes"/>
      <point x="47.0" y="433.0"/>
      <point x="51.0" y="442.0"/>
      <point x="60.0" y="454.0" type="curve" smooth="yes"/>
      <point x="701.0" y="1389.0" type="line" smooth="yes"/>
      <point x="706.0" y="1397.0"/>
      <point x="713.0" y="1402.0"/>
      <point x="730.0" y="1402.0" type="curve" smooth="yes"/>
      <point x="736.0" y="1402.0" type="line" smooth="yes"/>
      <point x="748.0" y="1402.0"/>
      <point x="755.0" y="1395.0"/>
      <point x="755.0" y="1381.0" type="curve" smooth="yes"/>
      <point x="755.0" y="420.0" type="line"/>
      <point x="934.0" y="420.0" type="line" smooth="yes"/>
      <point x="947.0" y="420.0"/>
      <point x="953.0" y="417.0"/>
    </contour>
    <contour>
      <point x="720.0" y="420.0" type="line"/>
      <point x="720.0" y="1363.0" type="line"/>
      <point x="75.0" y="420.0" type="line"/>
    </contour>
  </outline>
</glyph>
<glyph name="five" format="2">
  <advance height="1920" width="1100"/>
  <unicode hex="0035"/>
  <outline>
    <contour>
      <point x="195.0" y="371.0" type="curve" smooth="yes"/>
      <point x="196.0" y="371.0" type="line" smooth="yes"/>
      <point x="207.0" y="371.0"/>
      <point x="210.0" y="365.0"/>
      <point x="212.0" y="353.0" type="curve" smooth="yes"/>
      <point x="227.0" y="122.0"/>
      <point x="318.0" y="-5.0"/>
      <point x="535.0" y="-5.0" type="curve" smooth="yes"/>
      <point x="784.0" y="-5.0"/>
      <point x="965.0" y="157.0"/>
      <point x="965.0" y="428.0" type="curve" smooth="yes"/>
      <point x="965.0" y="493.0" type="line" smooth="yes"/>
      <point x="965.0" y="753.0"/>
      <point x="804.0" y="925.0"/>
      <point x="610.0" y="925.0" type="curve" smooth="yes"/>
      <point x="474.0" y="925.0"/>
      <point x="335.0" y="815.0"/>
      <point x="248.0" y="667.0" type="curve" smooth="yes"/>
      <point x="241.0" y="655.0"/>
      <point x="234.0" y="650.0"/>
      <point x="223.0" y="650.0" type="curve"/>
      <point x="228.0" y="650.0" type="line"/>
      <point x="216.0" y="650.0"/>
      <point x="210.0" y="656.0"/>
      <point x="212.0" y="670.0" type="curve" smooth="yes"/>
      <point x="318.0" y="1376.0" type="line" smooth="yes"/>
      <point x="321.0" y="1394.0"/>
      <point x="326.0" y="1400.0"/>
      <point x="344.0" y="1400.0" type="curve" smooth="yes"/>
      <point x="925.0" y="1400.0" type="line" smooth="yes"/>
      <point x="940.0" y="1400.0"/>
      <point x="943.0" y="1396.0"/>
      <point x="943.0" y="1391.0" type="curve" smooth="yes"/>
      <point x="943.0" y="1389.0" type="line" smooth="yes"/>
      <point x="943.0" y="1373.0"/>
      <point x="909.0" y="1370.0"/>
      <point x="741.0" y="1370.0" type="curve" smooth="yes"/>
      <point x="344.0" y="1370.0" type="line"/>
      <point x="241.0" y="675.0" type="line"/>
      <point x="228.0" y="675.0" type="line"/>
      <point x="303.0" y="818.0"/>
      <point x="450.0" y="955.0"/>
      <point x="610.0" y="955.0" type="curve" smooth="yes"/>
      <point x="810.0" y="955.0"/>
      <point x="1000.0" y="790.0"/>
      <point x="1000.0" y="493.0" type="curve" smooth="yes"/>
      <point x="1000.0" y="428.0" type="line" smooth="yes"/>
      <point x="1000.0" y="131.0"/>
      <point x="805.0" y="-35.0"/>
      <point x="535.0" y="-35.0" type="curve" smooth="yes"/>
      <point x="301.0" y="-35.0"/>
      <point x="199.0" y="101.0"/>
      <point x="182.0" y="352.0" type="curve" smooth="yes"/>
      <point x="181.0" y="365.0"/>
      <point x="185.0" y="371.0"/>
    </contour>
  </outline>
</glyph>
<glyph name="six" format="2">
  <advance height="1920" width="1229"/>
  <unicode hex="0036"/>
  <outline>
    <contour>
      <point x="640.0" y="860.0" type="curve" smooth="yes"/>
      <point x="400.0" y="860.0"/>
      <point x="230.0" y="665.0"/>
      <point x="230.0" y="492.0" type="curve" smooth="yes"/>
      <point x="230.0" y="432.0" type="line"/>
      <point x="215.0" y="502.0" type="line"/>
      <point x="215.0" y="666.0"/>
      <point x="373.0" y="890.0"/>
      <point x="640.0" y="890.0" type="curve" smooth="yes"/>
      <point x="897.0" y="890.0"/>
      <point x="1039.0" y="731.0"/>
      <point x="1039.0" y="457.0" type="curve" smooth="yes"/>
      <point x="1039.0" y="407.0" type="line" smooth="yes"/>
      <point x="1039.0" y="129.0"/>
      <point x="921.0" y="-35.0"/>
      <point x="629.0" y="-35.0" type="curve" smooth="yes"/>
      <point x="292.0" y="-35.0"/>
      <point x="205.0" y="197.0"/>
      <point x="205.0" y="457.0" type="curve" smooth="yes"/>
      <point x="205.0" y="843.0" type="line" smooth="yes"/>
      <point x="205.0" y="1223.0"/>
      <point x="303.0" y="1435.0"/>
      <point x="630.0" y="1435.0" type="curve" smooth="yes"/>
      <point x="928.0" y="1435.0"/>
      <point x="1004.0" y="1266.0"/>
      <point x="1004.0" y="1086.0" type="curve" smooth="yes"/>
      <point x="1004.0" y="1058.0" type="line" smooth="yes"/>
      <point x="1004.0" y="1045.0"/>
      <point x="1001.0" y="1039.0"/>
      <point x="990.0" y="1039.0" type="curve" smooth="yes"/>
      <point x="989.0" y="1039.0" type="line" smooth="yes"/>
      <point x="978.0" y="1039.0"/>
      <point x="974.0" y="1044.0"/>
      <point x="974.0" y="1056.0" type="curve" smooth="yes"/>
      <point x="974.0" y="1085.0" type="line" smooth="yes"/>
      <point x="974.0" y="1248.0"/>
      <point x="909.0" y="1405.0"/>
      <point x="630.0" y="1405.0" type="curve" smooth="yes"/>
      <point x="323.0" y="1405.0"/>
      <point x="230.0" y="1198.0"/>
      <point x="230.0" y="838.0" type="curve" smooth="yes"/>
      <point x="230.0" y="462.0" type="line" smooth="yes"/>
      <point x="230.0" y="202.0"/>
      <point x="322.0" y="-5.0"/>
      <point x="629.0" y="-5.0" type="curve" smooth="yes"/>
      <point x="908.0" y="-5.0"/>
      <point x="1009.0" y="157.0"/>
      <point x="1009.0" y="417.0" type="curve" smooth="yes"/>
      <point x="1009.0" y="457.0" type="line" smooth="yes"/>
      <point x="1009.0" y="710.0"/>
      <point x="880.0" y="860.0"/>
    </contour>
  </outline>
</glyph>
<glyph name="seven" format="2">
  <advance height="1920" width="1015"/>
  <unicode hex="0037"/>
  <outline>
    <contour>
      <point x="1006.0" y="1378.0" type="curve" smooth="yes"/>
      <point x="362.0" y="16.0" type="line" smooth="yes"/>
      <point x="357.0" y="4.0"/>
      <point x="346.0" y="-6.0"/>
      <point x="335.0" y="-6.0" type="curve" smooth="yes"/>
      <point x="330.0" y="-6.0" type="line" smooth="yes"/>
      <point x="318.0" y="-6.0"/>
      <point x="307.0" y="5.0"/>
      <point x="313.0" y="19.0" type="curve" smooth="yes"/>
      <point x="975.0" y="1370.0" type="line"/>
      <point x="91.0" y="1370.0" type="line" smooth="yes"/>
      <point x="78.0" y="1370.0"/>
      <point x="72.0" y="1373.0"/>
      <point x="72.0" y="1384.0" type="curve" smooth="yes"/>
      <point x="72.0" y="1385.0" type="line" smooth="yes"/>
      <point x="72.0" y="1396.0"/>
      <point x="78.0" y="1400.0"/>
      <point x="91.0" y="1400.0" type="curve" smooth="yes"/>
      <point x="992.0" y="1400.0" type="line" smooth="yes"/>
      <point x="1008.0" y="1400.0"/>
      <point x="1012.0" y="1392.0"/>
    </contour>
  </outline>
</glyph>
<glyph name="nine" format="2">
  <advance height="1920" width="1169"/>
  <unicode hex="0039"/>
  <outline>
    <contour>
      <point x="559.0" y="540.0" type="curve" smooth="yes"/>
      <point x="799.0" y="540.0"/>
      <point x="969.0" y="735.0"/>
      <point x="969.0" y="908.0" type="curve" smooth="yes"/>
      <point x="969.0" y="968.0" type="line"/>
      <point x="984.0" y="898.0" type="line"/>
      <point x="984.0" y="734.0"/>
      <point x="826.0" y="510.0"/>
      <point x="559.0" y="510.0" type="curve" smooth="yes"/>
      <point x="302.0" y="510.0"/>
      <point x="160.0" y="669.0"/>
      <point x="160.0" y="943.0" type="curve" smooth="yes"/>
      <point x="160.0" y="993.0" type="line" smooth="yes"/>
      <point x="160.0" y="1271.0"/>
      <point x="278.0" y="1435.0"/>
      <point x="570.0" y="1435.0" type="curve" smooth="yes"/>
      <point x="907.0" y="1435.0"/>
      <point x="994.0" y="1203.0"/>
      <point x="994.0" y="943.0" type="curve" smooth="yes"/>
      <point x="994.0" y="557.0" type="line" smooth="yes"/>
      <point x="994.0" y="177.0"/>
      <point x="896.0" y="-35.0"/>
      <point x="569.0" y="-35.0" type="curve" smooth="yes"/>
      <point x="271.0" y="-35.0"/>
      <point x="194.0" y="134.0"/>
      <point x="194.0" y="314.0" type="curve" smooth="yes"/>
      <point x="194.0" y="342.0" type="line" smooth="yes"/>
      <point x="194.0" y="355.0"/>
      <point x="197.0" y="361.0"/>
      <point x="208.0" y="361.0" type="curve" smooth="yes"/>
      <point x="209.0" y="361.0" type="line" smooth="yes"/>
      <point x="220.0" y="361.0"/>
      <point x="224.0" y="356.0"/>
      <point x="224.0" y="344.0" type="curve" smooth="yes"/>
      <point x="224.0" y="315.0" type="line" smooth="yes"/>
      <point x="224.0" y="152.0"/>
      <point x="290.0" y="-5.0"/>
      <point x="569.0" y="-5.0" type="curve" smooth="yes"/>
      <point x="876.0" y="-5.0"/>
      <point x="969.0" y="202.0"/>
      <point x="969.0" y="562.0" type="curve" smooth="yes"/>
      <point x="969.0" y="938.0" type="line" smooth="yes"/>
      <point x="969.0" y="1198.0"/>
      <point x="877.0" y="1405.0"/>
      <point x="570.0" y="1405.0" type="curve" smooth="yes"/>
      <point x="291.0" y="1405.0"/>
      <point x="190.0" y="1243.0"/>
      <point x="190.0" y="983.0" type="curve" smooth="yes"/>
      <point x="190.0" y="943.0" type="line" smooth="yes"/>
      <point x="190.0" y="690.0"/>
      <point x="319.0" y="540.0"/>
    </contour>
  </outline>
</glyph>
<glyph name="less" format="2">
  <advance height="1920" width="1010"/>
  <unicode hex="003C"/>
  <outline>
    <contour>
      <point x="844.0" y="160.0" type="curve" smooth="yes"/>
      <point x="84.0" y="571.0" type="line" smooth="yes"/>
      <point x="72.0" y="577.0"/>
      <point x="66.0" y="585.0"/>
      <point x="66.0" y="595.0" type="curve" smooth="yes"/>
      <point x="66.0" y="605.0" type="line" smooth="yes"/>
      <point x="66.0" y="615.0"/>
      <point x="72.0" y="623.0"/>
      <point x="84.0" y="629.0" type="curve" smooth="yes"/>
      <point x="844.0" y="1040.0" type="line" smooth="yes"/>
      <point x="856.0" y="1047.0"/>
      <point x="865.0" y="1043.0"/>
      <point x="865.0" y="1032.0" type="curve" smooth="yes"/>
      <point x="865.0" y="1031.0" type="line" smooth="yes"/>
      <point x="865.0" y="1020.0"/>
      <point x="857.0" y="1017.0"/>
      <point x="844.0" y="1010.0" type="curve" smooth="yes"/>
      <point x="89.0" y="600.0" type="line"/>
      <point x="844.0" y="190.0" type="line" smooth="yes"/>
      <point x="857.0" y="183.0"/>
      <point x="865.0" y="180.0"/>
      <point x="865.0" y="169.0" type="curve" smooth="yes"/>
      <point x="865.0" y="168.0" type="line" smooth="yes"/>
      <point x="865.0" y="157.0"/>
      <point x="856.0" y="153.0"/>
    </contour>
  </outline>
</glyph>
<glyph name="equal" format="2">
  <advance height="1920" width="1180"/>
  <unicode hex="003D"/>
  <outline>
    <contour>
      <point x="147.0" y="347.0" type="curve" smooth="yes"/>
      <point x="147.0" y="348.0" type="line" smooth="yes"/>
      <point x="147.0" y="358.0"/>
      <point x="153.0" y="360.0"/>
      <point x="165.0" y="360.0" type="curve" smooth="yes"/>
      <point x="1015.0" y="360.0" type="line" smooth="yes"/>
      <point x="1027.0" y="360.0"/>
      <point x="1033.0" y="358.0"/>
      <point x="1033.0" y="348.0" type="curve" smooth="yes"/>
      <point x="1033.0" y="347.0" type="line" smooth="yes"/>
      <point x="1033.0" y="337.0"/>
      <point x="1027.0" y="335.0"/>
      <point x="1015.0" y="335.0" type="curve" smooth="yes"/>
      <point x="165.0" y="335.0" type="line" smooth="yes"/>
      <point x="153.0" y="335.0"/>
      <point x="147.0" y="337.0"/>
    </contour>
    <contour>
      <point x="147.0" y="647.0" type="curve" smooth="yes"/>
      <point x="147.0" y="648.0" type="line" smooth="yes"/>
      <point x="147.0" y="658.0"/>
      <point x="153.0" y="660.0"/>
      <point x="165.0" y="660.0" type="curve" smooth="yes"/>
      <point x="1015.0" y="660.0" type="line" smooth="yes"/>
      <point x="1027.0" y="660.0"/>
      <point x="1033.0" y="658.0"/>
      <point x="1033.0" y="648.0" type="curve" smooth="yes"/>
      <point x="1033.0" y="647.0" type="line" smooth="yes"/>
      <point x="1033.0" y="637.0"/>
      <point x="1027.0" y="635.0"/>
      <point x="1015.0" y="635.0" type="curve" smooth="yes"/>
      <point x="165.0" y="635.0" type="line" smooth="yes"/>
      <point x="153.0" y="635.0"/>
      <point x="147.0" y="637.0"/>
    </contour>
  </outline>
</glyph>
<glyph name="greater" format="2">
  <advance height="1920" width="1010"/>
  <unicode hex="003E"/>
  <outline>
    <contour>
      <point x="166.0" y="1040.0" type="curve" smooth="yes"/>
      <point x="926.0" y="629.0" type="line" smooth="yes"/>
      <point x="938.0" y="623.0"/>
      <point x="944.0" y="615.0"/>
      <point x="944.0" y="605.0" type="curve" smooth="yes"/>
      <point x="944.0" y="595.0" type="line" smooth="yes"/>
      <point x="944.0" y="585.0"/>
      <point x="938.0" y="577.0"/>
      <point x="926.0" y="571.0" type="curve" smooth="yes"/>
      <point x="166.0" y="160.0" type="line" smooth="yes"/>
      <point x="154.0" y="153.0"/>
      <point x="145.0" y="157.0"/>
      <point x="145.0" y="168.0" type="curve" smooth="yes"/>
      <point x="145.0" y="169.0" type="line" smooth="yes"/>
      <point x="145.0" y="180.0"/>
      <point x="153.0" y="183.0"/>
      <point x="166.0" y="190.0" type="curve" smooth="yes"/>
      <point x="921.0" y="600.0" type="line"/>
      <point x="166.0" y="1010.0" type="line" smooth="yes"/>
      <point x="153.0" y="1017.0"/>
      <point x="145.0" y="1020.0"/>
      <point x="145.0" y="1031.0" type="curve" smooth="yes"/>
      <point x="145.0" y="1032.0" type="line" smooth="yes"/>
      <point x="145.0" y="1043.0"/>
      <point x="154.0" y="1047.0"/>
    </contour>
  </outline>
</glyph>
<glyph name="question" format="2">
  <advance height="1920" width="1080"/>
  <unicode hex="003F"/>
  <outline>
    <contour>
      <point x="582.0" y="-3.0" type="curve" smooth="yes"/>
      <point x="578.0" y="-3.0" type="line" smooth="yes"/>
      <point x="565.0" y="-3.0"/>
      <point x="557.0" y="6.0"/>
      <point x="557.0" y="18.0" type="curve" smooth="yes"/>
      <point x="557.0" y="192.0" type="line" smooth="yes"/>
      <point x="557.0" y="204.0"/>
      <point x="565.0" y="213.0"/>
      <point x="578.0" y="213.0" type="curve" smooth="yes"/>
      <point x="582.0" y="213.0" type="line" smooth="yes"/>
      <point x="595.0" y="213.0"/>
      <point x="603.0" y="204.0"/>
      <point x="603.0" y="192.0" type="curve" smooth="yes"/>
      <point x="603.0" y="18.0" type="line" smooth="yes"/>
      <point x="603.0" y="6.0"/>
      <point x="595.0" y="-3.0"/>
    </contour>
    <contour>
      <point x="571.0" y="397.0" type="curve" smooth="yes"/>
      <point x="569.0" y="397.0" type="line" smooth="yes"/>
      <point x="560.0" y="397.0"/>
      <point x="554.0" y="403.0"/>
      <point x="554.0" y="412.0" type="curve" smooth="yes"/>
      <point x="574.0" y="732.0"/>
      <point x="895.0" y="779.0"/>
      <point x="895.0" y="1063.0" type="curve" smooth="yes"/>
      <point x="895.0" y="1098.0" type="line" smooth="yes"/>
      <point x="895.0" y="1329.0"/>
      <point x="786.0" y="1455.0"/>
      <point x="589.0" y="1455.0" type="curve" smooth="yes"/>
      <point x="369.0" y="1455.0"/>
      <point x="255.0" y="1296.0"/>
      <point x="255.0" y="1052.0" type="curve" smooth="yes"/>
      <point x="255.0" y="968.0" type="line" smooth="yes"/>
      <point x="255.0" y="955.0"/>
      <point x="252.0" y="949.0"/>
      <point x="241.0" y="949.0" type="curve" smooth="yes"/>
      <point x="240.0" y="949.0" type="line" smooth="yes"/>
      <point x="229.0" y="949.0"/>
      <point x="225.0" y="955.0"/>
      <point x="225.0" y="968.0" type="curve" smooth="yes"/>
      <point x="225.0" y="1052.0" type="line" smooth="yes"/>
      <point x="225.0" y="1317.0"/>
      <point x="342.0" y="1485.0"/>
      <point x="589.0" y="1485.0" type="curve" smooth="yes"/>
      <point x="806.0" y="1485.0"/>
      <point x="925.0" y="1354.0"/>
      <point x="925.0" y="1103.0" type="curve" smooth="yes"/>
      <point x="925.0" y="1078.0" type="line" smooth="yes"/>
      <point x="925.0" y="755.0"/>
      <point x="607.0" y="715.0"/>
      <point x="587.0" y="411.0" type="curve" smooth="yes"/>
      <point x="586.0" y="403.0"/>
      <point x="580.0" y="397.0"/>
    </contour>
  </outline>
</glyph>
<glyph name="at" format="2">
  <advance height="1920" width="1990"/>
  <unicode hex="0040"/>
  <outline>
    <contour>
      <point x="1275.0" y="492.0" type="line"/>
      <point x="1275.0" y="202.0"/>
      <point x="1158.0" y="40.0"/>
      <point x="961.0" y="40.0" type="curve" smooth="yes"/>
      <point x="794.0" y="40.0"/>
      <point x="645.0" y="157.0"/>
      <point x="645.0" y="497.0" type="curve" smooth="yes"/>
      <point x="645.0" y="528.0" type="line" smooth="yes"/>
      <point x="645.0" y="848.0"/>
      <point x="784.0" y="985.0"/>
      <point x="951.0" y="985.0" type="curve" smooth="yes"/>
      <point x="1158.0" y="985.0"/>
      <point x="1275.0" y="823.0"/>
      <point x="1275.0" y="533.0" type="curve"/>
      <point x="1255.0" y="533.0" type="line"/>
      <point x="1255.0" y="783.0"/>
      <point x="1148.0" y="955.0"/>
      <point x="951.0" y="955.0" type="curve" smooth="yes"/>
      <point x="804.0" y="955.0"/>
      <point x="675.0" y="833.0"/>
      <point x="675.0" y="523.0" type="curve" smooth="yes"/>
      <point x="675.0" y="492.0" type="line" smooth="yes"/>
      <point x="675.0" y="182.0"/>
      <point x="814.0" y="70.0"/>
      <point x="961.0" y="70.0" type="curve" smooth="yes"/>
      <point x="1148.0" y="70.0"/>
      <point x="1255.0" y="242.0"/>
      <point x="1255.0" y="492.0" type="curve"/>
    </contour>
    <contour>
      <point x="1328.0" y="-258.0" type="curve" smooth="yes"/>
      <point x="1259.0" y="-317.0"/>
      <point x="1144.0" y="-360.0"/>
      <point x="985.0" y="-360.0" type="curve" smooth="yes"/>
      <point x="458.0" y="-360.0"/>
      <point x="180.0" y="13.0"/>
      <point x="180.0" y="493.0" type="curve" smooth="yes"/>
      <point x="180.0" y="583.0" type="line" smooth="yes"/>
      <point x="180.0" y="1093.0"/>
      <point x="528.0" y="1435.0"/>
      <point x="1025.0" y="1435.0" type="curve" smooth="yes"/>
      <point x="1592.0" y="1435.0"/>
      <point x="1810.0" y="1024.0"/>
      <point x="1810.0" y="633.0" type="curve" smooth="yes"/>
      <point x="1810.0" y="543.0" type="line" smooth="yes"/>
      <point x="1810.0" y="183.0"/>
      <point x="1677.0" y="40.0"/>
      <point x="1490.0" y="40.0" type="curve" smooth="yes"/>
      <point x="1283.0" y="40.0"/>
      <point x="1255.0" y="185.0"/>
      <point x="1255.0" y="405.0" type="curve" smooth="yes"/>
      <point x="1255.0" y="595.0" type="line"/>
      <point x="1255.0" y="968.0" type="line" smooth="yes"/>
      <point x="1255.0" y="978.0"/>
      <point x="1261.0" y="985.0"/>
      <point x="1270.0" y="985.0" type="curve" smooth="yes"/>
      <point x="1271.0" y="985.0" type="line" smooth="yes"/>
      <point x="1280.0" y="985.0"/>
      <point x="1285.0" y="981.0"/>
      <point x="1285.0" y="970.0" type="curve" smooth="yes"/>
      <point x="1285.0" y="405.0" type="line" smooth="yes"/>
      <point x="1285.0" y="211.0"/>
      <point x="1303.0" y="70.0"/>
      <point x="1490.0" y="70.0" type="curve" smooth="yes"/>
      <point x="1707.0" y="70.0"/>
      <point x="1780.0" y="303.0"/>
      <point x="1780.0" y="543.0" type="curve" smooth="yes"/>
      <point x="1780.0" y="633.0" type="line" smooth="yes"/>
      <point x="1780.0" y="1003.0"/>
      <point x="1572.0" y="1405.0"/>
      <point x="1025.0" y="1405.0" type="curve" smooth="yes"/>
      <point x="538.0" y="1405.0"/>
      <point x="210.0" y="1043.0"/>
      <point x="210.0" y="593.0" type="curve" smooth="yes"/>
      <point x="210.0" y="483.0" type="line" smooth="yes"/>
      <point x="210.0" y="43.0"/>
      <point x="458.0" y="-330.0"/>
      <point x="985.0" y="-330.0" type="curve" smooth="yes"/>
      <point x="1146.0" y="-330.0"/>
      <point x="1244.0" y="-283.0"/>
      <point x="1315.0" y="-228.0" type="curve" smooth="yes"/>
      <point x="1326.0" y="-220.0"/>
      <point x="1335.0" y="-222.0"/>
      <point x="1339.0" y="-231.0" type="curve" smooth="yes"/>
      <point x="1340.0" y="-233.0" type="line" smooth="yes"/>
      <point x="1344.0" y="-242.0"/>
      <point x="1339.0" y="-250.0"/>
    </contour>
  </outline>
</glyph>
<glyph name="A" format="2">
  <advance height="1920" width="1166"/>
  <unicode hex="0041"/>
  <anchor x="565.0" y="0.0" name="bottom"/>
  <anchor x="1040.0" y="0.0" name="ogonek"/>
  <anchor x="570.0" y="1400.0" name="top"/>
  <outline>
    <contour>
      <point x="264.0" y="510.0" type="line"/>
      <point x="876.0" y="510.0" type="line"/>
      <point x="876.0" y="480.0" type="line"/>
      <point x="264.0" y="480.0" type="line"/>
    </contour>
    <contour>
      <point x="570.0" y="1355.0" type="line"/>
      <point x="125.0" y="18.0" type="line" smooth="yes"/>
      <point x="121.0" y="6.0"/>
      <point x="116.0" y="-3.0"/>
      <point x="105.0" y="-3.0" type="curve" smooth="yes"/>
      <point x="98.0" y="-3.0" type="line" smooth="yes"/>
      <point x="85.0" y="-3.0"/>
      <point x="82.0" y="6.0"/>
      <point x="86.0" y="18.0" type="curve" smooth="yes"/>
      <point x="550.0" y="1381.0" type="line" smooth="yes"/>
      <point x="554.0" y="1393.0"/>
      <point x="557.0" y="1400.0"/>
      <point x="569.0" y="1400.0" type="curve" smooth="yes"/>
      <point x="571.0" y="1400.0" type="line" smooth="yes"/>
      <point x="582.0" y="1400.0"/>
      <point x="585.0" y="1393.0"/>
      <point x="589.0" y="1381.0" type="curve" smooth="yes"/>
      <point x="1062.0" y="18.0" type="line" smooth="yes"/>
      <point x="1066.0" y="6.0"/>
      <point x="1062.0" y="-3.0"/>
      <point x="1049.0" y="-3.0" type="curve" smooth="yes"/>
      <point x="1045.0" y="-3.0" type="line" smooth="yes"/>
      <point x="1034.0" y="-3.0"/>
      <point x="1027.0" y="5.0"/>
      <point x="1023.0" y="18.0" type="curve" smooth="yes"/>
    </contour>
  </outline>
</glyph>
<glyph name="B" format="2">
  <advance height="1920" width="1185"/>
  <unicode hex="0042"/>
  <anchor x="595.0" y="0.0" name="bottom"/>
  <anchor x="574.0" y="1400.0" name="top"/>
  <outline>
    <contour>
      <point x="273.0" y="730.0" type="line"/>
      <point x="674.0" y="730.0" type="line" smooth="yes"/>
      <point x="878.0" y="730.0"/>
      <point x="1019.0" y="853.0"/>
      <point x="1019.0" y="1043.0" type="curve" smooth="yes"/>
      <point x="1019.0" y="1068.0" type="line" smooth="yes"/>
      <point x="1019.0" y="1288.0"/>
      <point x="887.0" y="1370.0"/>
      <point x="674.0" y="1370.0" type="curve" smooth="yes"/>
      <point x="273.0" y="1370.0" type="line"/>
    </contour>
    <contour>
      <point x="692.0" y="720.0" type="line"/>
      <point x="923.0" y="720.0"/>
      <point x="1099.0" y="622.0"/>
      <point x="1099.0" y="372.0" type="curve" smooth="yes"/>
      <point x="1099.0" y="347.0" type="line" smooth="yes"/>
      <point x="1099.0" y="67.0"/>
      <point x="923.0" y="0.0"/>
      <point x="692.0" y="0.0" type="curve" smooth="yes"/>
      <point x="266.0" y="0.0" type="line" smooth="yes"/>
      <point x="250.0" y="0.0"/>
      <point x="243.0" y="8.0"/>
      <point x="243.0" y="24.0" type="curve" smooth="yes"/>
      <point x="243.0" y="1376.0" type="line" smooth="yes"/>
      <point x="243.0" y="1392.0"/>
      <point x="250.0" y="1400.0"/>
      <point x="266.0" y="1400.0" type="curve" smooth="yes"/>
      <point x="674.0" y="1400.0" type="line" smooth="yes"/>
      <point x="905.0" y="1400.0"/>
      <point x="1054.0" y="1313.0"/>
      <point x="1054.0" y="1063.0" type="curve" smooth="yes"/>
      <point x="1054.0" y="1048.0" type="line" smooth="yes"/>
      <point x="1054.0" y="828.0"/>
      <point x="905.0" y="710.0"/>
      <point x="674.0" y="710.0" type="curve"/>
    </contour>
    <contour>
      <point x="692.0" y="700.0" type="curve" smooth="yes"/>
      <point x="273.0" y="700.0" type="line"/>
      <point x="273.0" y="30.0" type="line"/>
      <point x="692.0" y="30.0" type="line" smooth="yes"/>
      <point x="905.0" y="30.0"/>
      <point x="1066.0" y="92.0"/>
      <point x="1066.0" y="342.0" type="curve" smooth="yes"/>
      <point x="1066.0" y="377.0" type="line" smooth="yes"/>
      <point x="1066.0" y="597.0"/>
      <point x="905.0" y="700.0"/>
    </contour>
  </outline>
</glyph>
<glyph name="C" format="2">
  <advance height="1920" width="1288"/>
  <unicode hex="0043"/>
  <anchor x="655.0" y="-25.0" name="bottom"/>
  <anchor x="674.0" y="1400.0" name="top"/>
  <outline>
    <contour>
      <point x="1184.0" y="491.0" type="curve" smooth="yes"/>
      <point x="1180.0" y="402.0"/>
      <point x="1152.0" y="312.0"/>
      <point x="1106.0" y="232.0" type="curve" smooth="yes"/>
      <point x="1017.0" y="80.0"/>
      <point x="848.0" y="-35.0"/>
      <point x="668.0" y="-35.0" type="curve" smooth="yes"/>
      <point x="300.0" y="-35.0"/>
      <point x="135.0" y="238.0"/>
      <point x="135.0" y="618.0" type="curve" smooth="yes"/>
      <point x="135.0" y="783.0" type="line" smooth="yes"/>
      <point x="135.0" y="1163.0"/>
      <point x="320.0" y="1435.0"/>
      <point x="668.0" y="1435.0" type="curve" smooth="yes"/>
      <point x="874.0" y="1435.0"/>
      <point x="1038.0" y="1341.0"/>
      <point x="1108.0" y="1192.0" type="curve" smooth="yes"/>
      <point x="1137.0" y="1130.0"/>
      <point x="1152.0" y="1059.0"/>
      <point x="1154.0" y="981.0" type="curve" smooth="yes"/>
      <point x="1154.0" y="967.0"/>
      <point x="1151.0" y="961.0"/>
      <point x="1140.0" y="961.0" type="curve" smooth="yes"/>
      <point x="1139.0" y="961.0" type="line" smooth="yes"/>
      <point x="1127.0" y="961.0"/>
      <point x="1124.0" y="967.0"/>
      <point x="1124.0" y="981.0" type="curve" smooth="yes"/>
      <point x="1119.0" y="1242.0"/>
      <point x="934.0" y="1405.0"/>
      <point x="668.0" y="1405.0" type="curve" smooth="yes"/>
      <point x="338.0" y="1405.0"/>
      <point x="165.0" y="1143.0"/>
      <point x="165.0" y="783.0" type="curve" smooth="yes"/>
      <point x="165.0" y="618.0" type="line" smooth="yes"/>
      <point x="165.0" y="258.0"/>
      <point x="329.0" y="-5.0"/>
      <point x="668.0" y="-5.0" type="curve" smooth="yes"/>
      <point x="879.0" y="-5.0"/>
      <point x="1133.0" y="191.0"/>
      <point x="1154.0" y="491.0" type="curve" smooth="yes"/>
      <point x="1155.0" y="504.0"/>
      <point x="1158.0" y="510.0"/>
      <point x="1170.0" y="510.0" type="curve" smooth="yes"/>
      <point x="1171.0" y="510.0" type="line" smooth="yes"/>
      <point x="1183.0" y="510.0"/>
      <point x="1185.0" y="504.0"/>
    </contour>
  </outline>
</glyph>
<glyph name="E" format="2">
  <advance height="1920" width="1204"/>
  <unicode hex="0045"/>
  <anchor x="635.0" y="0.0" name="bottom"/>
  <anchor x="1065.0" y="0.0" name="ogonek"/>
  <anchor x="634.0" y="1400.0" name="top"/>
  <outline>
    <contour>
      <point x="255.0" y="730.0" type="line"/>
      <point x="808.0" y="730.0" type="line" smooth="yes"/>
      <point x="819.0" y="730.0"/>
      <point x="825.0" y="727.0"/>
      <point x="825.0" y="716.0" type="curve" smooth="yes"/>
      <point x="825.0" y="715.0" type="line" smooth="yes"/>
      <point x="825.0" y="704.0"/>
      <point x="819.0" y="700.0"/>
      <point x="808.0" y="700.0" type="curve" smooth="yes"/>
      <point x="255.0" y="700.0" type="line"/>
      <point x="255.0" y="30.0" type="line"/>
      <point x="1074.0" y="30.0" type="line" smooth="yes"/>
      <point x="1086.0" y="30.0"/>
      <point x="1092.0" y="27.0"/>
      <point x="1092.0" y="16.0" type="curve" smooth="yes"/>
      <point x="1092.0" y="15.0" type="line" smooth="yes"/>
      <point x="1092.0" y="4.0"/>
      <point x="1086.0" y="0.0"/>
      <point x="1074.0" y="0.0" type="curve" smooth="yes"/>
      <point x="248.0" y="0.0" type="line" smooth="yes"/>
      <point x="232.0" y="0.0"/>
      <point x="225.0" y="8.0"/>
      <point x="225.0" y="24.0" type="curve" smooth="yes"/>
      <point x="225.0" y="1376.0" type="line" smooth="yes"/>
      <point x="225.0" y="1392.0"/>
      <point x="232.0" y="1400.0"/>
      <point x="248.0" y="1400.0" type="curve" smooth="yes"/>
      <point x="1054.0" y="1400.0" type="line" smooth="yes"/>
      <point x="1066.0" y="1400.0"/>
      <point x="1072.0" y="1397.0"/>
      <point x="1072.0" y="1386.0" type="curve" smooth="yes"/>
      <point x="1072.0" y="1385.0" type="line" smooth="yes"/>
      <point x="1072.0" y="1374.0"/>
      <point x="1066.0" y="1370.0"/>
      <point x="1054.0" y="1370.0" type="curve" smooth="yes"/>
      <point x="255.0" y="1370.0" type="line"/>
    </contour>
  </outline>
</glyph>
<glyph name="F" format="2">
  <advance height="1920" width="1105"/>
  <unicode hex="0046"/>
  <anchor x="645.0" y="0.0" name="bottom"/>
  <anchor x="644.0" y="1400.0" name="top"/>
  <outline>
    <contour>
      <point x="255.0" y="730.0" type="line"/>
      <point x="728.0" y="730.0" type="line" smooth="yes"/>
      <point x="740.0" y="730.0"/>
      <point x="747.0" y="727.0"/>
      <point x="747.0" y="716.0" type="curve" smooth="yes"/>
      <point x="747.0" y="714.0" type="line" smooth="yes"/>
      <point x="747.0" y="703.0"/>
      <point x="740.0" y="700.0"/>
      <point x="728.0" y="700.0" type="curve" smooth="yes"/>
      <point x="255.0" y="700.0" type="line"/>
      <point x="255.0" y="17.0" type="line" smooth="yes"/>
      <point x="255.0" y="2.0"/>
      <point x="253.0" y="-3.0"/>
      <point x="241.0" y="-3.0" type="curve" smooth="yes"/>
      <point x="240.0" y="-3.0" type="line" smooth="yes"/>
      <point x="227.0" y="-3.0"/>
      <point x="225.0" y="2.0"/>
      <point x="225.0" y="17.0" type="curve" smooth="yes"/>
      <point x="225.0" y="1376.0" type="line" smooth="yes"/>
      <point x="225.0" y="1392.0"/>
      <point x="232.0" y="1400.0"/>
      <point x="248.0" y="1400.0" type="curve" smooth="yes"/>
      <point x="1012.0" y="1400.0" type="line" smooth="yes"/>
      <point x="1023.0" y="1400.0"/>
      <point x="1029.0" y="1397.0"/>
      <point x="1029.0" y="1386.0" type="curve" smooth="yes"/>
      <point x="1029.0" y="1384.0" type="line" smooth="yes"/>
      <point x="1029.0" y="1373.0"/>
      <point x="1023.0" y="1370.0"/>
      <point x="1012.0" y="1370.0" type="curve" smooth="yes"/>
      <point x="255.0" y="1370.0" type="line"/>
    </contour>
  </outline>
</glyph>
<glyph name="H" format="2">
  <advance height="1920" width="1271"/>
  <unicode hex="0048"/>
  <anchor x="625.0" y="0.0" name="bottom"/>
  <anchor x="624.0" y="1400.0" name="top"/>
  <outline>
    <contour>
      <point x="1066.0" y="1403.0" type="curve" smooth="yes"/>
      <point x="1067.0" y="1403.0" type="line" smooth="yes"/>
      <point x="1079.0" y="1403.0"/>
      <point x="1081.0" y="1396.0"/>
      <point x="1081.0" y="1384.0" type="curve" smooth="yes"/>
      <point x="1081.0" y="16.0" type="line" smooth="yes"/>
      <point x="1081.0" y="4.0"/>
      <point x="1079.0" y="-3.0"/>
      <point x="1067.0" y="-3.0" type="curve" smooth="yes"/>
      <point x="1066.0" y="-3.0" type="line" smooth="yes"/>
      <point x="1054.0" y="-3.0"/>
      <point x="1051.0" y="4.0"/>
      <point x="1051.0" y="16.0" type="curve" smooth="yes"/>
      <point x="1051.0" y="700.0" type="line"/>
      <point x="237.0" y="700.0" type="line"/>
      <point x="237.0" y="16.0" type="line" smooth="yes"/>
      <point x="237.0" y="4.0"/>
      <point x="234.0" y="-3.0"/>
      <point x="222.0" y="-3.0" type="curve" smooth="yes"/>
      <point x="221.0" y="-3.0" type="line" smooth="yes"/>
      <point x="209.0" y="-3.0"/>
      <point x="207.0" y="4.0"/>
      <point x="207.0" y="16.0" type="curve" smooth="yes"/>
      <point x="207.0" y="1384.0" type="line" smooth="yes"/>
      <point x="207.0" y="1396.0"/>
      <point x="210.0" y="1403.0"/>
      <point x="222.0" y="1403.0" type="curve" smooth="yes"/>
      <point x="223.0" y="1403.0" type="line" smooth="yes"/>
      <point x="235.0" y="1403.0"/>
      <point x="237.0" y="1396.0"/>
      <point x="237.0" y="1384.0" type="curve" smooth="yes"/>
      <point x="237.0" y="730.0" type="line"/>
      <point x="1051.0" y="730.0" type="line"/>
      <point x="1051.0" y="1384.0" type="line" smooth="yes"/>
      <point x="1051.0" y="1396.0"/>
      <point x="1054.0" y="1403.0"/>
    </contour>
  </outline>
</glyph>
<glyph name="J" format="2">
  <advance height="1920" width="1137"/>
  <unicode hex="004A"/>
  <anchor x="510.0" y="0.0" name="bottom"/>
  <anchor x="893.0" y="1400.0" name="top"/>
  <outline>
    <contour>
      <point x="891.0" y="1403.0" type="curve" smooth="yes"/>
      <point x="895.0" y="1403.0" type="line" smooth="yes"/>
      <point x="906.0" y="1403.0"/>
      <point x="913.0" y="1397.0"/>
      <point x="913.0" y="1384.0" type="curve" smooth="yes"/>
      <point x="913.0" y="538.0" type="line" smooth="yes"/>
      <point x="913.0" y="152.0"/>
      <point x="823.0" y="-35.0"/>
      <point x="498.0" y="-35.0" type="curve" smooth="yes"/>
      <point x="202.0" y="-35.0"/>
      <point x="93.0" y="155.0"/>
      <point x="93.0" y="478.0" type="curve" smooth="yes"/>
      <point x="93.0" y="647.0" type="line" smooth="yes"/>
      <point x="93.0" y="660.0"/>
      <point x="99.0" y="666.0"/>
      <point x="109.0" y="666.0" type="curve" smooth="yes"/>
      <point x="112.0" y="666.0" type="line" smooth="yes"/>
      <point x="122.0" y="666.0"/>
      <point x="128.0" y="660.0"/>
      <point x="128.0" y="647.0" type="curve" smooth="yes"/>
      <point x="128.0" y="478.0" type="line" smooth="yes"/>
      <point x="128.0" y="167.0"/>
      <point x="232.0" y="-5.0"/>
      <point x="496.0" y="-5.0" type="curve" smooth="yes"/>
      <point x="801.0" y="-5.0"/>
      <point x="873.0" y="189.0"/>
      <point x="873.0" y="508.0" type="curve" smooth="yes"/>
      <point x="873.0" y="1384.0" type="line" smooth="yes"/>
      <point x="873.0" y="1397.0"/>
      <point x="880.0" y="1403.0"/>
    </contour>
  </outline>
</glyph>
<glyph name="K" format="2">
  <advance height="1920" width="1179"/>
  <unicode hex="004B"/>
  <anchor x="585.0" y="0.0" name="bottom"/>
  <anchor x="574.0" y="1400.0" name="top"/>
  <outline>
    <contour>
      <point x="221.0" y="1403.0" type="curve" smooth="yes"/>
      <point x="223.0" y="1403.0" type="line" smooth="yes"/>
      <point x="234.0" y="1403.0"/>
      <point x="237.0" y="1397.0"/>
      <point x="237.0" y="1384.0" type="curve" smooth="yes"/>
      <point x="237.0" y="16.0" type="line" smooth="yes"/>
      <point x="237.0" y="3.0"/>
      <point x="234.0" y="-3.0"/>
      <point x="223.0" y="-3.0" type="curve" smooth="yes"/>
      <point x="221.0" y="-3.0" type="line" smooth="yes"/>
      <point x="210.0" y="-3.0"/>
      <point x="207.0" y="3.0"/>
      <point x="207.0" y="16.0" type="curve" smooth="yes"/>
      <point x="207.0" y="1384.0" type="line" smooth="yes"/>
      <point x="207.0" y="1397.0"/>
      <point x="210.0" y="1403.0"/>
    </contour>
    <contour>
      <point x="502.0" y="830.0" type="line"/>
      <point x="524.0" y="849.0" type="line"/>
      <point x="1071.0" y="20.0" type="line" smooth="yes"/>
      <point x="1081.0" y="6.0"/>
      <point x="1077.0" y="-3.0"/>
      <point x="1064.0" y="-3.0" type="curve" smooth="yes"/>
      <point x="1062.0" y="-3.0" type="line" smooth="yes"/>
      <point x="1053.0" y="-3.0"/>
      <point x="1047.0" y="2.0"/>
      <point x="1039.0" y="14.0" type="curve" smooth="yes"/>
    </contour>
    <contour>
      <point x="1042.0" y="1388.0" type="line" smooth="yes"/>
      <point x="1050.0" y="1396.0"/>
      <point x="1053.0" y="1403.0"/>
      <point x="1061.0" y="1403.0" type="curve" smooth="yes"/>
      <point x="1062.0" y="1403.0" type="line" smooth="yes"/>
      <point x="1071.0" y="1403.0"/>
      <point x="1078.0" y="1393.0"/>
      <point x="1066.0" y="1381.0" type="curve" smooth="yes"/>
      <point x="530.0" y="830.0" type="line"/>
      <point x="521.0" y="820.0" type="line"/>
      <point x="217.0" y="520.0" type="line"/>
      <point x="217.0" y="550.0" type="line"/>
    </contour>
  </outline>
</glyph>
<glyph name="L" format="2">
  <advance height="1920" width="1050"/>
  <unicode hex="004C"/>
  <anchor x="645.0" y="0.0" name="bottom"/>
  <anchor x="264.0" y="1400.0" name="top"/>
  <outline>
    <contour>
      <point x="221.0" y="1403.0" type="curve" smooth="yes"/>
      <point x="223.0" y="1403.0" type="line" smooth="yes"/>
      <point x="233.0" y="1403.0"/>
      <point x="237.0" y="1397.0"/>
      <point x="237.0" y="1383.0" type="curve" smooth="yes"/>
      <point x="237.0" y="30.0" type="line"/>
      <point x="952.0" y="30.0" type="line" smooth="yes"/>
      <point x="965.0" y="30.0"/>
      <point x="970.0" y="26.0"/>
      <point x="970.0" y="16.0" type="curve" smooth="yes"/>
      <point x="970.0" y="15.0" type="line" smooth="yes"/>
      <point x="970.0" y="5.0"/>
      <point x="965.0" y="0.0"/>
      <point x="952.0" y="0.0" type="curve" smooth="yes"/>
      <point x="228.0" y="0.0" type="line" smooth="yes"/>
      <point x="214.0" y="0.0"/>
      <point x="207.0" y="7.0"/>
      <point x="207.0" y="21.0" type="curve" smooth="yes"/>
      <point x="207.0" y="1383.0" type="line" smooth="yes"/>
      <point x="207.0" y="1397.0"/>
      <point x="212.0" y="1403.0"/>
    </contour>
  </outline>
</glyph>
<glyph name="M" format="2">
  <advance height="1920" width="1470"/>
  <unicode hex="004D"/>
  <anchor x="772.0" y="0.0" name="bottom"/>
  <anchor x="754.0" y="1400.0" name="top"/>
  <outline>
    <contour>
      <point x="228.0" y="1340.0" type="line"/>
      <point x="228.0" y="17.0" type="line" smooth="yes"/>
      <point x="228.0" y="4.0"/>
      <point x="225.0" y="-3.0"/>
      <point x="214.0" y="-3.0" type="curve" smooth="yes"/>
      <point x="213.0" y="-3.0" type="line" smooth="yes"/>
      <point x="202.0" y="-3.0"/>
      <point x="198.0" y="4.0"/>
      <point x="198.0" y="17.0" type="curve" smooth="yes"/>
      <point x="198.0" y="1382.0" type="line" smooth="yes"/>
      <point x="198.0" y="1394.0"/>
      <point x="205.0" y="1401.0"/>
      <point x="217.0" y="1401.0" type="curve" smooth="yes"/>
      <point x="221.0" y="1401.0" type="line" smooth="yes"/>
      <point x="232.0" y="1401.0"/>
      <point x="239.0" y="1396.0"/>
      <point x="244.0" y="1383.0" type="curve" smooth="yes"/>
      <point x="772.0" y="39.0" type="line"/>
      <point x="1273.0" y="1381.0" type="line" smooth="yes"/>
      <point x="1278.0" y="1397.0"/>
      <point x="1285.0" y="1401.0"/>
      <point x="1297.0" y="1401.0" type="curve" smooth="yes"/>
      <point x="1299.0" y="1401.0" type="line" smooth="yes"/>
      <point x="1313.0" y="1401.0"/>
      <point x="1319.0" y="1395.0"/>
      <point x="1319.0" y="1383.0" type="curve" smooth="yes"/>
      <point x="1321.0" y="16.0" type="line" smooth="yes"/>
      <point x="1321.0" y="4.0"/>
      <point x="1318.0" y="-3.0"/>
      <point x="1307.0" y="-3.0" type="curve" smooth="yes"/>
      <point x="1306.0" y="-3.0" type="line" smooth="yes"/>
      <point x="1295.0" y="-3.0"/>
      <point x="1291.0" y="4.0"/>
      <point x="1291.0" y="16.0" type="curve" smooth="yes"/>
      <point x="1289.0" y="1340.0" type="line"/>
      <point x="797.0" y="14.0" type="line" smooth="yes"/>
      <point x="794.0" y="4.0"/>
      <point x="787.0" y="1.0"/>
      <point x="779.0" y="1.0" type="curve" smooth="yes"/>
      <point x="765.0" y="1.0" type="line" smooth="yes"/>
      <point x="757.0" y="1.0"/>
      <point x="750.0" y="4.0"/>
      <point x="747.0" y="14.0" type="curve" smooth="yes"/>
    </contour>
  </outline>
</glyph>
<glyph name="N" format="2">
  <advance height="1920" width="1271"/>
  <unicode hex="004E"/>
  <anchor x="685.0" y="0.0" name="bottom"/>
  <anchor x="694.0" y="1400.0" name="top"/>
  <outline>
    <contour>
      <point x="1106.0" y="1403.0" type="curve" smooth="yes"/>
      <point x="1107.0" y="1403.0" type="line" smooth="yes"/>
      <point x="1118.0" y="1403.0"/>
      <point x="1121.0" y="1398.0"/>
      <point x="1121.0" y="1386.0" type="curve" smooth="yes"/>
      <point x="1121.0" y="12.0" type="line" smooth="yes"/>
      <point x="1121.0" y="1.0"/>
      <point x="1116.0" y="-3.0"/>
      <point x="1108.0" y="-3.0" type="curve" smooth="yes"/>
      <point x="1096.0" y="-3.0" type="line" smooth="yes"/>
      <point x="1087.0" y="-3.0"/>
      <point x="1081.0" y="2.0"/>
      <point x="1074.0" y="13.0" type="curve" smooth="yes"/>
      <point x="227.0" y="1379.0" type="line"/>
      <point x="237.0" y="1379.0" type="line"/>
      <point x="237.0" y="16.0" type="line" smooth="yes"/>
      <point x="237.0" y="4.0"/>
      <point x="234.0" y="-3.0"/>
      <point x="223.0" y="-3.0" type="curve" smooth="yes"/>
      <point x="222.0" y="-3.0" type="line" smooth="yes"/>
      <point x="211.0" y="-3.0"/>
      <point x="207.0" y="4.0"/>
      <point x="207.0" y="16.0" type="curve" smooth="yes"/>
      <point x="207.0" y="1382.0" type="line" smooth="yes"/>
      <point x="207.0" y="1395.0"/>
      <point x="214.0" y="1402.0"/>
      <point x="226.0" y="1402.0" type="curve" smooth="yes"/>
      <point x="230.0" y="1402.0" type="line" smooth="yes"/>
      <point x="241.0" y="1402.0"/>
      <point x="248.0" y="1396.0"/>
      <point x="257.0" y="1383.0" type="curve" smooth="yes"/>
      <point x="1101.0" y="31.0" type="line"/>
      <point x="1091.0" y="31.0" type="line"/>
      <point x="1091.0" y="1386.0" type="line" smooth="yes"/>
      <point x="1091.0" y="1398.0"/>
      <point x="1095.0" y="1403.0"/>
    </contour>
  </outline>
</glyph>
<glyph name="O" format="2">
  <advance height="1920" width="1365"/>
  <unicode hex="004F"/>
  <anchor x="679.0" y="0.0" name="bottom"/>
  <anchor x="678.0" y="1400.0" name="top"/>
  <outline>
    <contour>
      <point x="122.0" y="618.0" type="curve" smooth="yes"/>
      <point x="122.0" y="783.0" type="line" smooth="yes"/>
      <point x="122.0" y="1169.0"/>
      <point x="331.0" y="1435.0"/>
      <point x="674.0" y="1435.0" type="curve" smooth="yes"/>
      <point x="1017.0" y="1435.0"/>
      <point x="1225.0" y="1169.0"/>
      <point x="1225.0" y="783.0" type="curve" smooth="yes"/>
      <point x="1225.0" y="618.0" type="line" smooth="yes"/>
      <point x="1225.0" y="232.0"/>
      <point x="1017.0" y="-35.0"/>
      <point x="674.0" y="-35.0" type="curve" smooth="yes"/>
      <point x="331.0" y="-35.0"/>
      <point x="122.0" y="232.0"/>
    </contour>
    <contour>
      <point x="152.0" y="618.0" type="line" smooth="yes"/>
      <point x="152.0" y="250.0"/>
      <point x="347.0" y="-5.0"/>
      <point x="674.0" y="-5.0" type="curve" smooth="yes"/>
      <point x="1001.0" y="-5.0"/>
      <point x="1195.0" y="250.0"/>
      <point x="1195.0" y="618.0" type="curve" smooth="yes"/>
      <point x="1195.0" y="783.0" type="line" smooth="yes"/>
      <point x="1195.0" y="1151.0"/>
      <point x="1002.0" y="1405.0"/>
      <point x="674.0" y="1405.0" type="curve" smooth="yes"/>
      <point x="346.0" y="1405.0"/>
      <point x="152.0" y="1151.0"/>
      <point x="152.0" y="783.0" type="curve" smooth="yes"/>
    </contour>
  </outline>
</glyph>
<glyph name="R" format="2">
  <advance height="1920" width="1275"/>
  <unicode hex="0052"/>
  <anchor x="645.0" y="0.0" name="bottom"/>
  <anchor x="624.0" y="1400.0" name="top"/>
  <outline>
    <contour>
      <point x="255.0" y="1370.0" type="line"/>
      <point x="255.0" y="725.0" type="line"/>
      <point x="687.0" y="725.0" type="line" smooth="yes"/>
      <point x="855.0" y="725.0"/>
      <point x="1008.0" y="818.0"/>
      <point x="1008.0" y="1008.0" type="curve" smooth="yes"/>
      <point x="1008.0" y="1042.0" type="line" smooth="yes"/>
      <point x="1008.0" y="1252.0"/>
      <point x="900.0" y="1370.0"/>
      <point x="687.0" y="1370.0" type="curve" smooth="yes"/>
    </contour>
    <contour>
      <point x="687.0" y="1400.0" type="line" smooth="yes"/>
      <point x="909.0" y="1400.0"/>
      <point x="1038.0" y="1272.0"/>
      <point x="1038.0" y="1042.0" type="curve" smooth="yes"/>
      <point x="1038.0" y="1018.0" type="line" smooth="yes"/>
      <point x="1038.0" y="808.0"/>
      <point x="900.0" y="710.0"/>
      <point x="687.0" y="710.0" type="curve"/>
      <point x="687.0" y="720.0" type="line"/>
      <point x="918.0" y="720.0"/>
      <point x="1028.0" y="662.0"/>
      <point x="1028.0" y="422.0" type="curve" smooth="yes"/>
      <point x="1028.0" y="328.0" type="line" smooth="yes"/>
      <point x="1028.0" y="214.0"/>
      <point x="1055.0" y="94.0"/>
      <point x="1097.0" y="27.0" type="curve" smooth="yes"/>
      <point x="1105.0" y="14.0"/>
      <point x="1105.0" y="11.0"/>
      <point x="1105.0" y="7.0" type="curve" smooth="yes"/>
      <point x="1105.0" y="6.0" type="line" smooth="yes"/>
      <point x="1105.0" y="2.0"/>
      <point x="1100.0" y="-4.0"/>
      <point x="1093.0" y="-4.0" type="curve" smooth="yes"/>
      <point x="1092.0" y="-4.0" type="line" smooth="yes"/>
      <point x="1082.0" y="-4.0"/>
      <point x="1077.0" y="0.0"/>
      <point x="1071.0" y="12.0" type="curve" smooth="yes"/>
      <point x="1021.0" y="110.0"/>
      <point x="996.0" y="201.0"/>
      <point x="996.0" y="328.0" type="curve" smooth="yes"/>
      <point x="996.0" y="422.0" type="line" smooth="yes"/>
      <point x="996.0" y="662.0"/>
      <point x="882.0" y="705.0"/>
      <point x="687.0" y="705.0" type="curve" smooth="yes"/>
      <point x="255.0" y="705.0" type="line"/>
      <point x="255.0" y="17.0" type="line" smooth="yes"/>
      <point x="255.0" y="4.0"/>
      <point x="253.0" y="-3.0"/>
      <point x="241.0" y="-3.0" type="curve" smooth="yes"/>
      <point x="239.0" y="-3.0" type="line" smooth="yes"/>
      <point x="227.0" y="-3.0"/>
      <point x="225.0" y="4.0"/>
      <point x="225.0" y="17.0" type="curve" smooth="yes"/>
      <point x="225.0" y="1376.0" type="line" smooth="yes"/>
      <point x="225.0" y="1392.0"/>
      <point x="232.0" y="1400.0"/>
      <point x="248.0" y="1400.0" type="curve" smooth="yes"/>
    </contour>
  </outline>
</glyph>
<glyph name="S" format="2">
  <advance height="1920" width="1173"/>
  <unicode hex="0053"/>
  <anchor x="574.0" y="-25.0" name="bottom"/>
  <anchor x="574.0" y="1400.0" name="top"/>
  <outline>
    <contour>
      <point x="149.0" y="511.0" type="curve" smooth="yes"/>
      <point x="151.0" y="511.0" type="line" smooth="yes"/>
      <point x="158.0" y="511.0"/>
      <point x="165.0" y="506.0"/>
      <point x="165.0" y="493.0" type="curve" smooth="yes"/>
      <point x="165.0" y="462.0"/>
      <point x="166.0" y="452.0"/>
      <point x="166.0" y="431.0" type="curve" smooth="yes"/>
      <point x="165.0" y="156.0"/>
      <point x="291.0" y="-5.0"/>
      <point x="588.0" y="-5.0" type="curve" smooth="yes"/>
      <point x="865.0" y="-5.0"/>
      <point x="1006.0" y="108.0"/>
      <point x="1006.0" y="338.0" type="curve" smooth="yes"/>
      <point x="1006.0" y="584.0"/>
      <point x="778.0" y="619.0"/>
      <point x="610.0" y="678.0" type="curve" smooth="yes"/>
      <point x="401.0" y="753.0"/>
      <point x="175.0" y="828.0"/>
      <point x="175.0" y="1073.0" type="curve" smooth="yes"/>
      <point x="175.0" y="1293.0"/>
      <point x="325.0" y="1435.0"/>
      <point x="574.0" y="1435.0" type="curve" smooth="yes"/>
      <point x="866.0" y="1435.0"/>
      <point x="982.0" y="1256.0"/>
      <point x="982.0" y="1041.0" type="curve" smooth="yes"/>
      <point x="982.0" y="977.0" type="line" smooth="yes"/>
      <point x="982.0" y="965.0"/>
      <point x="977.0" y="960.0"/>
      <point x="968.0" y="960.0" type="curve" smooth="yes"/>
      <point x="966.0" y="960.0" type="line" smooth="yes"/>
      <point x="957.0" y="960.0"/>
      <point x="953.0" y="963.0"/>
      <point x="952.0" y="975.0" type="curve" smooth="yes"/>
      <point x="952.0" y="997.0"/>
      <point x="952.0" y="1007.0"/>
      <point x="952.0" y="1033.0" type="curve" smooth="yes"/>
      <point x="951.0" y="1257.0"/>
      <point x="839.0" y="1405.0"/>
      <point x="574.0" y="1405.0" type="curve" smooth="yes"/>
      <point x="343.0" y="1405.0"/>
      <point x="210.0" y="1283.0"/>
      <point x="210.0" y="1073.0" type="curve" smooth="yes"/>
      <point x="210.0" y="843.0"/>
      <point x="434.0" y="770.0"/>
      <point x="625.0" y="707.0" type="curve" smooth="yes"/>
      <point x="830.0" y="637.0"/>
      <point x="1042.0" y="587.0"/>
      <point x="1042.0" y="338.0" type="curve" smooth="yes"/>
      <point x="1042.0" y="92.0"/>
      <point x="893.0" y="-35.0"/>
      <point x="588.0" y="-35.0" type="curve" smooth="yes"/>
      <point x="265.0" y="-35.0"/>
      <point x="136.0" y="153.0"/>
      <point x="136.0" y="388.0" type="curve" smooth="yes"/>
      <point x="136.0" y="492.0" type="line" smooth="yes"/>
      <point x="136.0" y="505.0"/>
      <point x="142.0" y="511.0"/>
    </contour>
  </outline>
</glyph>
<glyph name="T" format="2">
  <advance height="1920" width="1108"/>
  <unicode hex="0054"/>
  <anchor x="559.0" y="0.0" name="bottom"/>
  <anchor x="559.0" y="1400.0" name="top"/>
  <outline>
    <contour>
      <point x="51.0" y="1400.0" type="curve" smooth="yes"/>
      <point x="1053.0" y="1400.0" type="line" smooth="yes"/>
      <point x="1066.0" y="1400.0"/>
      <point x="1071.0" y="1395.0"/>
      <point x="1071.0" y="1385.0" type="curve" smooth="yes"/>
      <point x="1071.0" y="1384.0" type="line" smooth="yes"/>
      <point x="1071.0" y="1374.0"/>
      <point x="1066.0" y="1370.0"/>
      <point x="1053.0" y="1370.0" type="curve" smooth="yes"/>
      <point x="567.0" y="1370.0" type="line"/>
      <point x="567.0" y="16.0" type="line" smooth="yes"/>
      <point x="567.0" y="3.0"/>
      <point x="564.0" y="-3.0"/>
      <point x="553.0" y="-3.0" type="curve" smooth="yes"/>
      <point x="551.0" y="-3.0" type="line" smooth="yes"/>
      <point x="540.0" y="-3.0"/>
      <point x="537.0" y="3.0"/>
      <point x="537.0" y="16.0" type="curve" smooth="yes"/>
      <point x="537.0" y="1370.0" type="line"/>
      <point x="51.0" y="1370.0" type="line" smooth="yes"/>
      <point x="38.0" y="1370.0"/>
      <point x="33.0" y="1374.0"/>
      <point x="33.0" y="1384.0" type="curve" smooth="yes"/>
      <point x="33.0" y="1385.0" type="line" smooth="yes"/>
      <point x="33.0" y="1395.0"/>
      <point x="38.0" y="1400.0"/>
    </contour>
  </outline>
</glyph>
<glyph name="V" format="2">
  <advance height="1920" width="1168"/>
  <unicode hex="0056"/>
  <anchor x="595.0" y="0.0" name="bottom"/>
  <anchor x="594.0" y="1400.0" name="top"/>
  <outline>
    <contour>
      <point x="593.0" y="45.0" type="line"/>
      <point x="1037.0" y="1382.0" type="line" smooth="yes"/>
      <point x="1041.0" y="1394.0"/>
      <point x="1047.0" y="1403.0"/>
      <point x="1058.0" y="1403.0" type="curve" smooth="yes"/>
      <point x="1060.0" y="1403.0" type="line" smooth="yes"/>
      <point x="1073.0" y="1403.0"/>
      <point x="1080.0" y="1394.0"/>
      <point x="1076.0" y="1382.0" type="curve" smooth="yes"/>
      <point x="612.0" y="19.0" type="line" smooth="yes"/>
      <point x="608.0" y="7.0"/>
      <point x="602.0" y="0.0"/>
      <point x="589.0" y="0.0" type="curve"/>
      <point x="598.0" y="0.0" type="line"/>
      <point x="585.0" y="0.0"/>
      <point x="578.0" y="7.0"/>
      <point x="574.0" y="19.0" type="curve" smooth="yes"/>
      <point x="101.0" y="1382.0" type="line" smooth="yes"/>
      <point x="97.0" y="1394.0"/>
      <point x="103.0" y="1403.0"/>
      <point x="116.0" y="1403.0" type="curve" smooth="yes"/>
      <point x="118.0" y="1403.0" type="line" smooth="yes"/>
      <point x="129.0" y="1403.0"/>
      <point x="136.0" y="1395.0"/>
      <point x="140.0" y="1382.0" type="curve" smooth="yes"/>
    </contour>
  </outline>
</glyph>
<glyph name="W" format="2">
  <advance height="1920" width="1647"/>
  <unicode hex="0057"/>
  <anchor x="843.0" y="0.0" name="bottom"/>
  <anchor x="842.0" y="1400.0" name="top"/>
  <outline>
    <contour>
      <point x="497.0" y="60.0" type="line"/>
      <point x="818.0" y="1388.0" type="line" smooth="yes"/>
      <point x="821.0" y="1397.0"/>
      <point x="828.0" y="1403.0"/>
      <point x="836.0" y="1403.0" type="curve" smooth="yes"/>
      <point x="844.0" y="1403.0" type="line" smooth="yes"/>
      <point x="853.0" y="1403.0"/>
      <point x="860.0" y="1397.0"/>
      <point x="862.0" y="1388.0" type="curve" smooth="yes"/>
      <point x="1226.0" y="44.0" type="line"/>
      <point x="1512.0" y="1384.0" type="line" smooth="yes"/>
      <point x="1515.0" y="1398.0"/>
      <point x="1520.0" y="1403.0"/>
      <point x="1528.0" y="1403.0" type="curve" smooth="yes"/>
      <point x="1529.0" y="1403.0" type="line" smooth="yes"/>
      <point x="1539.0" y="1403.0"/>
      <point x="1543.0" y="1397.0"/>
      <point x="1540.0" y="1383.0" type="curve" smooth="yes"/>
      <point x="1248.0" y="16.0" type="line" smooth="yes"/>
      <point x="1245.0" y="3.0"/>
      <point x="1237.0" y="-3.0"/>
      <point x="1226.0" y="-3.0" type="curve" smooth="yes"/>
      <point x="1220.0" y="-3.0" type="line" smooth="yes"/>
      <point x="1209.0" y="-3.0"/>
      <point x="1204.0" y="3.0"/>
      <point x="1200.0" y="16.0" type="curve" smooth="yes"/>
      <point x="840.0" y="1364.0" type="line"/>
      <point x="516.0" y="16.0" type="line" smooth="yes"/>
      <point x="513.0" y="4.0"/>
      <point x="505.0" y="-3.0"/>
      <point x="495.0" y="-3.0" type="curve" smooth="yes"/>
      <point x="494.0" y="-3.0" type="line" smooth="yes"/>
      <point x="483.0" y="-3.0"/>
      <point x="475.0" y="3.0"/>
      <point x="472.0" y="16.0" type="curve" smooth="yes"/>
      <point x="117.0" y="1383.0" type="line" smooth="yes"/>
      <point x="113.0" y="1396.0"/>
      <point x="119.0" y="1403.0"/>
      <point x="130.0" y="1403.0" type="curve" smooth="yes"/>
      <point x="131.0" y="1403.0" type="line" smooth="yes"/>
      <point x="141.0" y="1403.0"/>
      <point x="149.0" y="1396.0"/>
      <point x="151.0" y="1383.0" type="curve" smooth="yes"/>
    </contour>
  </outline>
</glyph>
<glyph name="X" format="2">
  <advance height="1920" width="1168"/>
  <unicode hex="0058"/>
  <anchor x="595.0" y="0.0" name="bottom"/>
  <anchor x="594.0" y="1400.0" name="top"/>
  <outline>
    <contour>
      <point x="1013.0" y="1403.0" type="curve" smooth="yes"/>
      <point x="1014.0" y="1403.0" type="line" smooth="yes"/>
      <point x="1025.0" y="1403.0"/>
      <point x="1030.0" y="1395.0"/>
      <point x="1020.0" y="1379.0" type="curve" smooth="yes"/>
      <point x="606.0" y="715.0" type="line"/>
      <point x="1044.0" y="21.0" type="line" smooth="yes"/>
      <point x="1053.0" y="7.0"/>
      <point x="1050.0" y="-3.0"/>
      <point x="1037.0" y="-3.0" type="curve" smooth="yes"/>
      <point x="1035.0" y="-3.0" type="line" smooth="yes"/>
      <point x="1025.0" y="-3.0"/>
      <point x="1018.0" y="2.0"/>
      <point x="1010.0" y="16.0" type="curve" smooth="yes"/>
      <point x="585.0" y="696.0" type="line"/>
      <point x="143.0" y="16.0" type="line" smooth="yes"/>
      <point x="134.0" y="2.0"/>
      <point x="129.0" y="-3.0"/>
      <point x="119.0" y="-3.0" type="curve" smooth="yes"/>
      <point x="118.0" y="-3.0" type="line" smooth="yes"/>
      <point x="107.0" y="-3.0"/>
      <point x="102.0" y="4.0"/>
      <point x="112.0" y="18.0" type="curve" smooth="yes"/>
      <point x="569.0" y="717.0" type="line"/>
      <point x="143.0" y="1379.0" type="line" smooth="yes"/>
      <point x="133.0" y="1394.0"/>
      <point x="143.0" y="1403.0"/>
      <point x="155.0" y="1403.0" type="curve" smooth="yes"/>
      <point x="156.0" y="1403.0" type="line" smooth="yes"/>
      <point x="166.0" y="1403.0"/>
      <point x="170.0" y="1398.0"/>
      <point x="178.0" y="1384.0" type="curve" smooth="yes"/>
      <point x="588.0" y="737.0" type="line"/>
      <point x="991.0" y="1386.0" type="line" smooth="yes"/>
      <point x="998.0" y="1398.0"/>
      <point x="1003.0" y="1403.0"/>
    </contour>
  </outline>
</glyph>
<glyph name="Y" format="2">
  <advance height="1920" width="1164"/>
  <unicode hex="0059"/>
  <anchor x="580.0" y="0.0" name="bottom"/>
  <anchor x="584.0" y="1400.0" name="top"/>
  <outline>
    <contour>
      <point x="1054.0" y="1403.0" type="curve" smooth="yes"/>
      <point x="1055.0" y="1403.0" type="line" smooth="yes"/>
      <point x="1067.0" y="1403.0"/>
      <point x="1072.0" y="1395.0"/>
      <point x="1066.0" y="1384.0" type="curve" smooth="yes"/>
      <point x="592.0" y="550.0" type="line"/>
      <point x="592.0" y="17.0" type="line" smooth="yes"/>
      <point x="592.0" y="4.0"/>
      <point x="589.0" y="-3.0"/>
      <point x="579.0" y="-3.0" type="curve" smooth="yes"/>
      <point x="578.0" y="-3.0" type="line" smooth="yes"/>
      <point x="568.0" y="-3.0"/>
      <point x="565.0" y="4.0"/>
      <point x="565.0" y="17.0" type="curve" smooth="yes"/>
      <point x="565.0" y="550.0" type="line"/>
      <point x="82.0" y="1383.0" type="line" smooth="yes"/>
      <point x="75.0" y="1395.0"/>
      <point x="80.0" y="1403.0"/>
      <point x="92.0" y="1403.0" type="curve" smooth="yes"/>
      <point x="93.0" y="1403.0" type="line" smooth="yes"/>
      <point x="102.0" y="1403.0"/>
      <point x="107.0" y="1397.0"/>
      <point x="113.0" y="1386.0" type="curve" smooth="yes"/>
      <point x="581.0" y="580.0" type="line"/>
      <point x="1034.0" y="1386.0" type="line" smooth="yes"/>
      <point x="1041.0" y="1398.0"/>
      <point x="1046.0" y="1403.0"/>
    </contour>
  </outline>
</glyph>
<glyph name="Z" format="2">
  <advance height="1920" width="1103"/>
  <unicode hex="005A"/>
  <anchor x="555.0" y="0.0" name="bottom"/>
  <anchor x="554.0" y="1400.0" name="top"/>
  <outline>
    <contour>
      <point x="33.0" y="21.0" type="curve" smooth="yes"/>
      <point x="983.0" y="1370.0" type="line"/>
      <point x="122.0" y="1370.0" type="line" smooth="yes"/>
      <point x="111.0" y="1370.0"/>
      <point x="105.0" y="1373.0"/>
      <point x="105.0" y="1384.0" type="curve" smooth="yes"/>
      <point x="105.0" y="1385.0" type="line" smooth="yes"/>
      <point x="105.0" y="1396.0"/>
      <point x="111.0" y="1400.0"/>
      <point x="122.0" y="1400.0" type="curve" smooth="yes"/>
      <point x="1021.0" y="1400.0" type="line" smooth="yes"/>
      <point x="1035.0" y="1400.0"/>
      <point x="1041.0" y="1391.0"/>
      <point x="1031.0" y="1377.0" type="curve" smooth="yes"/>
      <point x="82.0" y="30.0" type="line"/>
      <point x="1022.0" y="30.0" type="line" smooth="yes"/>
      <point x="1034.0" y="30.0"/>
      <point x="1040.0" y="27.0"/>
      <point x="1040.0" y="16.0" type="curve" smooth="yes"/>
      <point x="1040.0" y="15.0" type="line" smooth="yes"/>
      <point x="1040.0" y="4.0"/>
      <point x="1034.0" y="0.0"/>
      <point x="1022.0" y="0.0" type="curve" smooth="yes"/>
      <point x="40.0" y="0.0" type="line" smooth="yes"/>
      <point x="27.0" y="0.0"/>
      <point x="23.0" y="8.0"/>
    </contour>
  </outline>
</glyph>
<glyph name="bracketleft" format="2">
  <advance height="1920" width="550"/>
  <unicode hex="005B"/>
  <outline>
    <contour>
      <point x="180.0" y="1570.0" type="line"/>
      <point x="180.0" y="-330.0" type="line"/>
      <point x="483.0" y="-330.0" type="line" smooth="yes"/>
      <point x="496.0" y="-330.0"/>
      <point x="502.0" y="-333.0"/>
      <point x="502.0" y="-344.0" type="curve" smooth="yes"/>
      <point x="502.0" y="-345.0" type="line" smooth="yes"/>
      <point x="502.0" y="-356.0"/>
      <point x="496.0" y="-360.0"/>
      <point x="483.0" y="-360.0" type="curve" smooth="yes"/>
      <point x="174.0" y="-360.0" type="line" smooth="yes"/>
      <point x="158.0" y="-360.0"/>
      <point x="150.0" y="-352.0"/>
      <point x="150.0" y="-336.0" type="curve" smooth="yes"/>
      <point x="150.0" y="1576.0" type="line" smooth="yes"/>
      <point x="150.0" y="1592.0"/>
      <point x="158.0" y="1600.0"/>
      <point x="174.0" y="1600.0" type="curve" smooth="yes"/>
      <point x="483.0" y="1600.0" type="line" smooth="yes"/>
      <point x="496.0" y="1600.0"/>
      <point x="502.0" y="1597.0"/>
      <point x="502.0" y="1586.0" type="curve" smooth="yes"/>
      <point x="502.0" y="1585.0" type="line" smooth="yes"/>
      <point x="502.0" y="1574.0"/>
      <point x="496.0" y="1570.0"/>
      <point x="483.0" y="1570.0" type="curve" smooth="yes"/>
    </contour>
  </outline>
</glyph>
<glyph name="backslash" format="2">
  <advance height="2048" width="840"/>
  <unicode hex="005C"/>
  <outline>
    <contour>
      <point x="98.0" y="1379.0" type="line" smooth="yes"/>
      <point x="91.0" y="1395.0"/>
      <point x="98.0" y="1403.0"/>
      <point x="107.0" y="1403.0" type="curve" smooth="yes"/>
      <point x="108.0" y="1403.0" type="line" smooth="yes"/>
      <point x="117.0" y="1403.0"/>
      <point x="121.0" y="1398.0"/>
      <point x="127.0" y="1384.0" type="curve" smooth="yes"/>
      <point x="766.0" y="-79.0" type="line" smooth="yes"/>
      <point x="773.0" y="-95.0"/>
      <point x="770.0" y="-103.0"/>
      <point x="758.0" y="-103.0" type="curve" smooth="yes"/>
      <point x="757.0" y="-103.0" type="line" smooth="yes"/>
      <point x="748.0" y="-103.0"/>
      <point x="744.0" y="-98.0"/>
      <point x="738.0" y="-84.0" type="curve" smooth="yes"/>
    </contour>
  </outline>
</glyph>
<glyph name="bracketright" format="2">
  <advance height="1920" width="550"/>
  <unicode hex="005D"/>
  <outline>
    <contour>
      <point x="370.0" y="-330.0" type="line"/>
      <point x="370.0" y="1570.0" type="line"/>
      <point x="67.0" y="1570.0" type="line" smooth="yes"/>
      <point x="54.0" y="1570.0"/>
      <point x="48.0" y="1573.0"/>
      <point x="48.0" y="1584.0" type="curve" smooth="yes"/>
      <point x="48.0" y="1585.0" type="line" smooth="yes"/>
      <point x="48.0" y="1596.0"/>
      <point x="54.0" y="1600.0"/>
      <point x="67.0" y="1600.0" type="curve" smooth="yes"/>
      <point x="376.0" y="1600.0" type="line" smooth="yes"/>
      <point x="392.0" y="1600.0"/>
      <point x="400.0" y="1592.0"/>
      <point x="400.0" y="1576.0" type="curve" smooth="yes"/>
      <point x="400.0" y="-336.0" type="line" smooth="yes"/>
      <point x="400.0" y="-352.0"/>
      <point x="392.0" y="-360.0"/>
      <point x="376.0" y="-360.0" type="curve" smooth="yes"/>
      <point x="67.0" y="-360.0" type="line" smooth="yes"/>
      <point x="54.0" y="-360.0"/>
      <point x="48.0" y="-356.0"/>
      <point x="48.0" y="-345.0" type="curve" smooth="yes"/>
      <point x="48.0" y="-344.0" type="line" smooth="yes"/>
      <point x="48.0" y="-333.0"/>
      <point x="54.0" y="-330.0"/>
      <point x="67.0" y="-330.0" type="curve" smooth="yes"/>
    </contour>
  </outline>
</glyph>
<glyph name="asciicircum" format="2">
  <advance height="1920" width="820"/>
  <unicode hex="005E"/>
  <outline>
    <contour>
      <point x="410.0" y="1361.0" type="line"/>
      <point x="156.0" y="746.0" type="line" smooth="yes"/>
      <point x="152.0" y="735.0"/>
      <point x="142.0" y="727.0"/>
      <point x="131.0" y="727.0" type="curve" smooth="yes"/>
      <point x="128.0" y="727.0" type="line" smooth="yes"/>
      <point x="116.0" y="727.0"/>
      <point x="112.0" y="737.0"/>
      <point x="118.0" y="750.0" type="curve" smooth="yes"/>
      <point x="383.0" y="1384.0" type="line" smooth="yes"/>
      <point x="389.0" y="1398.0"/>
      <point x="394.0" y="1402.0"/>
      <point x="405.0" y="1402.0" type="curve" smooth="yes"/>
      <point x="415.0" y="1402.0" type="line" smooth="yes"/>
      <point x="426.0" y="1402.0"/>
      <point x="431.0" y="1398.0"/>
      <point x="437.0" y="1384.0" type="curve" smooth="yes"/>
      <point x="702.0" y="750.0" type="line" smooth="yes"/>
      <point x="708.0" y="737.0"/>
      <point x="709.0" y="727.0"/>
      <point x="692.0" y="727.0" type="curve" smooth="yes"/>
      <point x="690.0" y="727.0" type="line" smooth="yes"/>
      <point x="676.0" y="727.0"/>
      <point x="668.0" y="735.0"/>
      <point x="664.0" y="746.0" type="curve" smooth="yes"/>
    </contour>
  </outline>
</glyph>
<glyph name="underscore" format="2">
  <advance height="1920" width="900"/>
  <unicode hex="005F"/>
  <outline>
    <contour>
      <point x="-3.0" y="-20.0" type="curve" smooth="yes"/>
      <point x="-3.0" y="-15.0" type="line" smooth="yes"/>
      <point x="-3.0" y="-5.0"/>
      <point x="3.0" y="0.0"/>
      <point x="15.0" y="0.0" type="curve" smooth="yes"/>
      <point x="885.0" y="0.0" type="line" smooth="yes"/>
      <point x="897.0" y="0.0"/>
      <point x="903.0" y="-5.0"/>
      <point x="903.0" y="-15.0" type="curve" smooth="yes"/>
      <point x="903.0" y="-20.0" type="line" smooth="yes"/>
      <point x="903.0" y="-30.0"/>
      <point x="897.0" y="-35.0"/>
      <point x="885.0" y="-35.0" type="curve" smooth="yes"/>
      <point x="15.0" y="-35.0" type="line" smooth="yes"/>
      <point x="3.0" y="-35.0"/>
      <point x="-3.0" y="-30.0"/>
    </contour>
  </outline>
</glyph>
<glyph name="grave" format="2">
  <advance width="623"/>
  <unicode hex="0060"/>
  <outline>
    <contour>
      <point x="405.0" y="1102.0" type="curve" smooth="yes"/>
      <point x="400.0" y="1102.0" type="line" smooth="yes"/>
      <point x="391.0" y="1102.0"/>
      <point x="381.0" y="1108.0"/>
      <point x="372.0" y="1118.0" type="curve" smooth="yes"/>
      <point x="149.0" y="1380.0" type="line" smooth="yes"/>
      <point x="138.729110524" y="1392.06714369"/>
      <point x="149.0" y="1414.0"/>
      <point x="171.0" y="1414.0" type="curve" smooth="yes"/>
      <point x="174.0" y="1414.0" type="line" smooth="yes"/>
      <point x="185.0" y="1414.0"/>
      <point x="198.0" y="1404.0"/>
      <point x="211.0" y="1387.0" type="curve" smooth="yes"/>
      <point x="416.0" y="1121.0" type="line" smooth="yes"/>
      <point x="424.0" y="1110.0"/>
      <point x="414.0" y="1102.0"/>
    </contour>
  </outline>
</glyph>
<glyph name="a" format="2">
  <advance height="1920" width="999"/>
  <unicode hex="0061"/>
  <anchor x="549.0" y="0.0" name="bottom"/>
  <anchor x="884.0" y="0.0" name="ogonek"/>
  <anchor x="498.0" y="1050.0" name="top"/>
  <outline>
    <contour>
      <point x="100.0" y="243.0" type="curve" smooth="yes"/>
      <point x="100.0" y="71.0"/>
      <point x="213.0" y="-7.0"/>
      <point x="396.0" y="-7.0" type="curve" smooth="yes"/>
      <point x="635.0" y="-7.0"/>
      <point x="817.0" y="232.0"/>
      <point x="817.0" y="398.0" type="curve"/>
      <point x="832.0" y="378.0" type="line"/>
      <point x="832.0" y="185.0"/>
      <point x="627.0" y="-35.0"/>
      <point x="401.0" y="-35.0" type="curve" smooth="yes"/>
      <point x="186.0" y="-35.0"/>
      <point x="70.0" y="55.0"/>
      <point x="70.0" y="240.0" type="curve" smooth="yes"/>
      <point x="70.0" y="451.0"/>
      <point x="239.0" y="540.0"/>
      <point x="483.0" y="575.0" type="curve" smooth="yes"/>
      <point x="692.0" y="605.0"/>
      <point x="817.0" y="605.0"/>
      <point x="817.0" y="758.0" type="curve"/>
      <point x="837.0" y="738.0" type="line"/>
      <point x="837.0" y="585.0"/>
      <point x="686.0" y="579.0"/>
      <point x="489.0" y="550.0" type="curve" smooth="yes"/>
      <point x="247.0" y="514.0"/>
      <point x="100.0" y="433.0"/>
    </contour>
    <contour>
      <point x="817.0" y="208.0" type="curve" smooth="yes"/>
      <point x="817.0" y="778.0" type="line" smooth="yes"/>
      <point x="817.0" y="938.0"/>
      <point x="711.0" y="1060.0"/>
      <point x="509.0" y="1060.0" type="curve" smooth="yes"/>
      <point x="298.0" y="1060.0"/>
      <point x="177.0" y="948.0"/>
      <point x="157.0" y="747.0" type="curve" smooth="yes"/>
      <point x="156.0" y="736.0"/>
      <point x="154.0" y="730.0"/>
      <point x="143.0" y="730.0" type="curve" smooth="yes"/>
      <point x="142.0" y="730.0" type="line" smooth="yes"/>
      <point x="131.0" y="730.0"/>
      <point x="128.0" y="736.0"/>
      <point x="129.0" y="747.0" type="curve" smooth="yes"/>
      <point x="154.0" y="965.0"/>
      <point x="282.0" y="1085.0"/>
      <point x="510.0" y="1085.0" type="curve" smooth="yes"/>
      <point x="726.0" y="1085.0"/>
      <point x="847.0" y="951.0"/>
      <point x="847.0" y="773.0" type="curve" smooth="yes"/>
      <point x="847.0" y="208.0" type="line" smooth="yes"/>
      <point x="847.0" y="116.0"/>
      <point x="868.0" y="53.0"/>
      <point x="902.0" y="12.0" type="curve" smooth="yes"/>
      <point x="910.0" y="2.0"/>
      <point x="904.0" y="-5.0"/>
      <point x="895.0" y="-5.0" type="curve" smooth="yes"/>
      <point x="894.0" y="-5.0" type="line" smooth="yes"/>
      <point x="884.0" y="-5.0"/>
      <point x="876.0" y="2.0"/>
      <point x="869.0" y="10.0" type="curve" smooth="yes"/>
      <point x="834.0" y="52.0"/>
      <point x="817.0" y="113.0"/>
    </contour>
  </outline>
</glyph>
<glyph name="c" format="2">
  <advance height="1920" width="988"/>
  <unicode hex="0063"/>
  <anchor x="523.0" y="-25.0" name="bottom"/>
  <anchor x="509.0" y="1050.0" name="top"/>
  <outline>
    <contour>
      <point x="943.0" y="377.0" type="curve" smooth="yes"/>
      <point x="940.0" y="299.0"/>
      <point x="915.0" y="210.0"/>
      <point x="864.0" y="136.0" type="curve" smooth="yes"/>
      <point x="795.0" y="39.0"/>
      <point x="681.0" y="-35.0"/>
      <point x="513.0" y="-35.0" type="curve" smooth="yes"/>
      <point x="258.0" y="-35.0"/>
      <point x="65.0" y="171.0"/>
      <point x="65.0" y="468.0" type="curve" smooth="yes"/>
      <point x="65.0" y="583.0" type="line" smooth="yes"/>
      <point x="65.0" y="880.0"/>
      <point x="253.0" y="1085.0"/>
      <point x="508.0" y="1085.0" type="curve" smooth="yes"/>
      <point x="676.0" y="1085.0"/>
      <point x="799.0" y="999.0"/>
      <point x="869.0" y="890.0" type="curve" smooth="yes"/>
      <point x="909.0" y="825.0"/>
      <point x="932.0" y="749.0"/>
      <point x="933.0" y="675.0" type="curve" smooth="yes"/>
      <point x="933.0" y="666.0"/>
      <point x="930.0" y="660.0"/>
      <point x="920.0" y="660.0" type="curve" smooth="yes"/>
      <point x="919.0" y="660.0" type="line" smooth="yes"/>
      <point x="908.0" y="660.0"/>
      <point x="904.0" y="666.0"/>
      <point x="904.0" y="676.0" type="curve" smooth="yes"/>
      <point x="904.0" y="737.0"/>
      <point x="886.0" y="805.0"/>
      <point x="851.0" y="864.0" type="curve" smooth="yes"/>
      <point x="789.0" y="972.0"/>
      <point x="671.0" y="1060.0"/>
      <point x="508.0" y="1060.0" type="curve" smooth="yes"/>
      <point x="257.0" y="1060.0"/>
      <point x="91.0" y="853.0"/>
      <point x="91.0" y="583.0" type="curve" smooth="yes"/>
      <point x="91.0" y="468.0" type="line" smooth="yes"/>
      <point x="91.0" y="195.0"/>
      <point x="264.0" y="-9.0"/>
      <point x="513.0" y="-9.0" type="curve" smooth="yes"/>
      <point x="675.0" y="-9.0"/>
      <point x="782.0" y="65.0"/>
      <point x="845.0" y="160.0" type="curve" smooth="yes"/>
      <point x="889.0" y="227.0"/>
      <point x="911.0" y="303.0"/>
      <point x="915.0" y="375.0" type="curve" smooth="yes"/>
      <point x="916.0" y="385.0"/>
      <point x="918.0" y="391.0"/>
      <point x="929.0" y="391.0" type="curve" smooth="yes"/>
      <point x="930.0" y="391.0" type="line" smooth="yes"/>
      <point x="940.0" y="391.0"/>
      <point x="943.0" y="386.0"/>
    </contour>
  </outline>
</glyph>
<glyph name="d" format="2">
  <advance height="1920" width="1093"/>
  <unicode hex="0064"/>
  <outline>
    <contour>
      <point x="958.0" y="417.0" type="line"/>
      <point x="958.0" y="167.0"/>
      <point x="763.0" y="-35.0"/>
      <point x="506.0" y="-35.0" type="curve" smooth="yes"/>
      <point x="300.0" y="-35.0"/>
      <point x="75.0" y="127.0"/>
      <point x="75.0" y="447.0" type="curve" smooth="yes"/>
      <point x="75.0" y="603.0" type="line" smooth="yes"/>
      <point x="75.0" y="943.0"/>
      <point x="308.0" y="1085.0"/>
      <point x="514.0" y="1085.0" type="curve" smooth="yes"/>
      <point x="751.0" y="1085.0"/>
      <point x="958.0" y="883.0"/>
      <point x="958.0" y="633.0" type="curve"/>
      <point x="943.0" y="613.0" type="line"/>
      <point x="943.0" y="823.0"/>
      <point x="751.0" y="1055.0"/>
      <point x="514.0" y="1055.0" type="curve" smooth="yes"/>
      <point x="326.0" y="1055.0"/>
      <point x="105.0" y="923.0"/>
      <point x="105.0" y="603.0" type="curve" smooth="yes"/>
      <point x="105.0" y="447.0" type="line" smooth="yes"/>
      <point x="105.0" y="147.0"/>
      <point x="318.0" y="-5.0"/>
      <point x="506.0" y="-5.0" type="curve" smooth="yes"/>
      <point x="772.0" y="-5.0"/>
      <point x="943.0" y="227.0"/>
      <point x="943.0" y="437.0" type="curve"/>
    </contour>
    <contour>
      <point x="973.0" y="1434.0" type="curve" smooth="yes"/>
      <point x="973.0" y="16.0" type="line" smooth="yes"/>
      <point x="973.0" y="4.0"/>
      <point x="973.0" y="-3.0"/>
      <point x="962.0" y="-3.0" type="curve" smooth="yes"/>
      <point x="961.0" y="-3.0" type="line" smooth="yes"/>
      <point x="950.0" y="-3.0"/>
      <point x="949.0" y="4.0"/>
      <point x="949.0" y="16.0" type="curve" smooth="yes"/>
      <point x="949.0" y="370.0" type="line"/>
      <point x="943.0" y="402.0" type="line"/>
      <point x="943.0" y="1434.0" type="line" smooth="yes"/>
      <point x="943.0" y="1446.0"/>
      <point x="946.0" y="1453.0"/>
      <point x="957.0" y="1453.0" type="curve" smooth="yes"/>
      <point x="958.0" y="1453.0" type="line" smooth="yes"/>
      <point x="969.0" y="1453.0"/>
      <point x="973.0" y="1446.0"/>
    </contour>
  </outline>
</glyph>
<glyph name="e" format="2">
  <advance height="1920" width="1082"/>
  <unicode hex="0065"/>
  <anchor x="602.0" y="0.0" name="bottom"/>
  <anchor x="783.0" y="20.0" name="ogonek"/>
  <anchor x="553.0" y="1050.0" name="top"/>
  <outline>
    <contour>
      <point x="993.0" y="322.0" type="curve" smooth="yes"/>
      <point x="993.0" y="294.0"/>
      <point x="979.0" y="248.0"/>
      <point x="961.0" y="206.0" type="curve" smooth="yes"/>
      <point x="904.0" y="74.0"/>
      <point x="790.0" y="-35.0"/>
      <point x="567.0" y="-35.0" type="curve" smooth="yes"/>
      <point x="331.0" y="-35.0"/>
      <point x="105.0" y="138.0"/>
      <point x="105.0" y="448.0" type="curve" smooth="yes"/>
      <point x="105.0" y="603.0" type="line" smooth="yes"/>
      <point x="105.0" y="903.0"/>
      <point x="330.0" y="1085.0"/>
      <point x="554.0" y="1085.0" type="curve" smooth="yes"/>
      <point x="815.0" y="1085.0"/>
      <point x="954.0" y="893.0"/>
      <point x="986.0" y="674.0" type="curve" smooth="yes"/>
      <point x="996.0" y="607.0"/>
      <point x="997.0" y="571.0"/>
      <point x="997.0" y="543.0" type="curve" smooth="yes"/>
      <point x="997.0" y="532.0"/>
      <point x="991.0" y="526.0"/>
      <point x="978.0" y="526.0" type="curve" smooth="yes"/>
      <point x="119.0" y="526.0" type="line"/>
      <point x="119.0" y="555.0" type="line"/>
      <point x="969.0" y="555.0" type="line"/>
      <point x="965.0" y="892.0"/>
      <point x="780.0" y="1060.0"/>
      <point x="554.0" y="1060.0" type="curve" smooth="yes"/>
      <point x="339.0" y="1060.0"/>
      <point x="135.0" y="873.0"/>
      <point x="135.0" y="603.0" type="curve" smooth="yes"/>
      <point x="135.0" y="448.0" type="line" smooth="yes"/>
      <point x="135.0" y="178.0"/>
      <point x="331.0" y="-10.0"/>
      <point x="566.0" y="-10.0" type="curve" smooth="yes"/>
      <point x="842.0" y="-10.0"/>
      <point x="943.0" y="181.0"/>
      <point x="964.0" y="321.0" type="curve" smooth="yes"/>
      <point x="966.0" y="332.0"/>
      <point x="970.0" y="340.0"/>
      <point x="979.0" y="340.0" type="curve" smooth="yes"/>
      <point x="980.0" y="340.0" type="line" smooth="yes"/>
      <point x="990.0" y="340.0"/>
      <point x="993.0" y="332.0"/>
    </contour>
  </outline>
</glyph>
<glyph name="f" format="2">
  <advance height="1920" width="620"/>
  <unicode hex="0066"/>
  <outline>
    <contour>
      <point x="574.0" y="1025.0" type="curve" smooth="yes"/>
      <point x="76.0" y="1025.0" type="line" smooth="yes"/>
      <point x="63.0" y="1025.0"/>
      <point x="57.0" y="1029.0"/>
      <point x="57.0" y="1037.0" type="curve" smooth="yes"/>
      <point x="57.0" y="1038.0" type="line" smooth="yes"/>
      <point x="57.0" y="1046.0"/>
      <point x="63.0" y="1050.0"/>
      <point x="76.0" y="1050.0" type="curve" smooth="yes"/>
      <point x="574.0" y="1050.0" type="line" smooth="yes"/>
      <point x="587.0" y="1050.0"/>
      <point x="593.0" y="1046.0"/>
      <point x="593.0" y="1038.0" type="curve"/>
      <point x="593.0" y="1037.0" type="line"/>
      <point x="593.0" y="1028.0"/>
      <point x="587.0" y="1025.0"/>
    </contour>
    <contour>
      <point x="250.0" y="1188.0" type="line" smooth="yes"/>
      <point x="250.0" y="1395.0"/>
      <point x="291.0" y="1467.0"/>
      <point x="572.0" y="1441.0" type="curve" smooth="yes"/>
      <point x="587.0" y="1440.0"/>
      <point x="593.0" y="1437.0"/>
      <point x="593.0" y="1428.0" type="curve" smooth="yes"/>
      <point x="593.0" y="1427.0" type="line" smooth="yes"/>
      <point x="593.0" y="1418.0"/>
      <point x="587.0" y="1415.0"/>
      <point x="568.0" y="1417.0" type="curve" smooth="yes"/>
      <point x="311.0" y="1444.0"/>
      <point x="285.0" y="1383.0"/>
      <point x="285.0" y="1188.0" type="curve" smooth="yes"/>
      <point x="285.0" y="16.0" type="line" smooth="yes"/>
      <point x="285.0" y="4.0"/>
      <point x="279.0" y="-3.0"/>
      <point x="268.0" y="-3.0" type="curve" smooth="yes"/>
      <point x="267.0" y="-3.0" type="line" smooth="yes"/>
      <point x="256.0" y="-3.0"/>
      <point x="250.0" y="4.0"/>
      <point x="250.0" y="16.0" type="curve" smooth="yes"/>
    </contour>
  </outline>
</glyph>
<glyph name="h" format="2">
  <advance height="1920" width="986"/>
  <unicode hex="0068"/>
  <anchor x="495.0" y="0.0" name="bottom"/>
  <anchor x="141.0" y="1450.0" name="top"/>
  <outline>
    <contour>
      <point x="139.0" y="1453.0" type="curve" smooth="yes"/>
      <point x="141.0" y="1453.0" type="line" smooth="yes"/>
      <point x="152.0" y="1453.0"/>
      <point x="155.0" y="1447.0"/>
      <point x="155.0" y="1434.0" type="curve" smooth="yes"/>
      <point x="155.0" y="16.0" type="line" smooth="yes"/>
      <point x="155.0" y="3.0"/>
      <point x="151.0" y="-3.0"/>
      <point x="140.0" y="-3.0" type="curve" smooth="yes"/>
      <point x="139.0" y="-3.0" type="line" smooth="yes"/>
      <point x="128.0" y="-3.0"/>
      <point x="125.0" y="3.0"/>
      <point x="125.0" y="16.0" type="curve" smooth="yes"/>
      <point x="125.0" y="1434.0" type="line" smooth="yes"/>
      <point x="125.0" y="1447.0"/>
      <point x="128.0" y="1453.0"/>
    </contour>
    <contour>
      <point x="135.0" y="623.0" type="line"/>
      <point x="135.0" y="853.0"/>
      <point x="300.0" y="1085.0"/>
      <point x="534.0" y="1085.0" type="curve" smooth="yes"/>
      <point x="750.0" y="1085.0"/>
      <point x="861.0" y="963.0"/>
      <point x="861.0" y="733.0" type="curve" smooth="yes"/>
      <point x="861.0" y="16.0" type="line" smooth="yes"/>
      <point x="861.0" y="3.0"/>
      <point x="858.0" y="-3.0"/>
      <point x="847.0" y="-3.0" type="curve" smooth="yes"/>
      <point x="845.0" y="-3.0" type="line" smooth="yes"/>
      <point x="834.0" y="-3.0"/>
      <point x="831.0" y="3.0"/>
      <point x="831.0" y="16.0" type="curve" smooth="yes"/>
      <point x="831.0" y="733.0" type="line" smooth="yes"/>
      <point x="831.0" y="943.0"/>
      <point x="732.0" y="1060.0"/>
      <point x="534.0" y="1060.0" type="curve" smooth="yes"/>
      <point x="305.0" y="1060.0"/>
      <point x="155.0" y="833.0"/>
      <point x="155.0" y="623.0" type="curve"/>
    </contour>
  </outline>
</glyph>
<glyph name="i" format="2">
  <advance height="1920" width="266"/>
  <unicode hex="0069"/>
  <anchor x="125.0" y="0.0" name="bottom"/>
  <anchor x="125.0" y="0.0" name="ogonek"/>
  <outline>
    <contour>
      <point x="150.0" y="1394.0" type="curve" smooth="yes"/>
      <point x="150.0" y="1229.0" type="line" smooth="yes"/>
      <point x="150.0" y="1217.0"/>
      <point x="146.0" y="1210.0"/>
      <point x="133.0" y="1210.0" type="curve" smooth="yes"/>
      <point x="132.0" y="1210.0" type="line" smooth="yes"/>
      <point x="119.0" y="1210.0"/>
      <point x="116.0" y="1217.0"/>
      <point x="116.0" y="1229.0" type="curve" smooth="yes"/>
      <point x="116.0" y="1394.0" type="line" smooth="yes"/>
      <point x="116.0" y="1406.0"/>
      <point x="119.0" y="1414.0"/>
      <point x="132.0" y="1414.0" type="curve" smooth="yes"/>
      <point x="134.0" y="1414.0" type="line" smooth="yes"/>
      <point x="147.0" y="1414.0"/>
      <point x="150.0" y="1406.0"/>
    </contour>
    <contour>
      <point x="148.0" y="1034.0" type="curve" smooth="yes"/>
      <point x="148.0" y="16.0" type="line" smooth="yes"/>
      <point x="148.0" y="3.0"/>
      <point x="145.0" y="-3.0"/>
      <point x="134.0" y="-3.0" type="curve" smooth="yes"/>
      <point x="132.0" y="-3.0" type="line" smooth="yes"/>
      <point x="121.0" y="-3.0"/>
      <point x="118.0" y="3.0"/>
      <point x="118.0" y="16.0" type="curve" smooth="yes"/>
      <point x="118.0" y="1034.0" type="line" smooth="yes"/>
      <point x="118.0" y="1047.0"/>
      <point x="121.0" y="1053.0"/>
      <point x="132.0" y="1053.0" type="curve" smooth="yes"/>
      <point x="134.0" y="1053.0" type="line" smooth="yes"/>
      <point x="145.0" y="1053.0"/>
      <point x="148.0" y="1047.0"/>
    </contour>
  </outline>
</glyph>
<glyph name="j" format="2">
  <advance height="1920" width="266"/>
  <unicode hex="006A"/>
  <outline>
    <contour>
      <point x="150.0" y="1394.0" type="curve" smooth="yes"/>
      <point x="150.0" y="1229.0" type="line" smooth="yes"/>
      <point x="150.0" y="1217.0"/>
      <point x="147.0" y="1210.0"/>
      <point x="134.0" y="1210.0" type="curve" smooth="yes"/>
      <point x="132.0" y="1210.0" type="line" smooth="yes"/>
      <point x="119.0" y="1210.0"/>
      <point x="116.0" y="1217.0"/>
      <point x="116.0" y="1229.0" type="curve" smooth="yes"/>
      <point x="116.0" y="1394.0" type="line" smooth="yes"/>
      <point x="116.0" y="1406.0"/>
      <point x="119.0" y="1414.0"/>
      <point x="132.0" y="1414.0" type="curve" smooth="yes"/>
      <point x="134.0" y="1414.0" type="line" smooth="yes"/>
      <point x="147.0" y="1414.0"/>
      <point x="150.0" y="1406.0"/>
    </contour>
    <contour>
      <point x="148.0" y="-86.0" type="line" smooth="yes"/>
      <point x="148.0" y="-293.0"/>
      <point x="106.0" y="-377.0"/>
      <point x="-175.0" y="-351.0" type="curve" smooth="yes"/>
      <point x="-189.0" y="-350.0"/>
      <point x="-195.0" y="-347.0"/>
      <point x="-195.0" y="-336.0" type="curve" smooth="yes"/>
      <point x="-195.0" y="-334.0" type="line" smooth="yes"/>
      <point x="-195.0" y="-323.0"/>
      <point x="-189.0" y="-320.0"/>
      <point x="-176.0" y="-321.0" type="curve" smooth="yes"/>
      <point x="69.0" y="-347.0"/>
      <point x="118.0" y="-285.0"/>
      <point x="118.0" y="-88.0" type="curve" smooth="yes"/>
      <point x="118.0" y="1034.0" type="line" smooth="yes"/>
      <point x="118.0" y="1047.0"/>
      <point x="121.0" y="1053.0"/>
      <point x="132.0" y="1053.0" type="curve" smooth="yes"/>
      <point x="134.0" y="1053.0" type="line" smooth="yes"/>
      <point x="145.0" y="1053.0"/>
      <point x="148.0" y="1047.0"/>
      <point x="148.0" y="1034.0" type="curve" smooth="yes"/>
    </contour>
  </outline>
</glyph>
<glyph name="k" format="2">
  <advance height="1920" width="879"/>
  <unicode hex="006B"/>
  <outline>
    <contour>
      <point x="134.0" y="1453.0" type="curve" smooth="yes"/>
      <point x="136.0" y="1453.0" type="line" smooth="yes"/>
      <point x="147.0" y="1453.0"/>
      <point x="150.0" y="1447.0"/>
      <point x="150.0" y="1434.0" type="curve" smooth="yes"/>
      <point x="150.0" y="16.0" type="line" smooth="yes"/>
      <point x="150.0" y="3.0"/>
      <point x="147.0" y="-3.0"/>
      <point x="136.0" y="-3.0" type="curve" smooth="yes"/>
      <point x="134.0" y="-3.0" type="line" smooth="yes"/>
      <point x="123.0" y="-3.0"/>
      <point x="120.0" y="3.0"/>
      <point x="120.0" y="16.0" type="curve" smooth="yes"/>
      <point x="120.0" y="1434.0" type="line" smooth="yes"/>
      <point x="120.0" y="1447.0"/>
      <point x="123.0" y="1453.0"/>
    </contour>
    <contour>
      <point x="122.0" y="391.0" type="line"/>
      <point x="758.0" y="1036.0" type="line" smooth="yes"/>
      <point x="769.0" y="1049.0"/>
      <point x="776.0" y="1053.0"/>
      <point x="785.0" y="1053.0" type="curve" smooth="yes"/>
      <point x="786.0" y="1053.0" type="line" smooth="yes"/>
      <point x="797.0" y="1053.0"/>
      <point x="807.0" y="1045.0"/>
      <point x="794.0" y="1032.0" type="curve" smooth="yes"/>
      <point x="140.0" y="373.0" type="line"/>
    </contour>
    <contour>
      <point x="352.0" y="613.0" type="line"/>
      <point x="373.0" y="633.0" type="line"/>
      <point x="869.0" y="21.0" type="line" smooth="yes"/>
      <point x="881.0" y="6.0"/>
      <point x="874.0" y="-3.0"/>
      <point x="863.0" y="-3.0" type="curve" smooth="yes"/>
      <point x="861.0" y="-3.0" type="line" smooth="yes"/>
      <point x="850.0" y="-3.0"/>
      <point x="846.0" y="3.0"/>
      <point x="837.0" y="14.0" type="curve" smooth="yes"/>
    </contour>
  </outline>
</glyph>
<glyph name="l" format="2">
  <advance height="1920" width="286"/>
  <unicode hex="006C"/>
  <outline>
    <contour>
      <point x="142.0" y="1453.0" type="curve" smooth="yes"/>
      <point x="144.0" y="1453.0" type="line" smooth="yes"/>
      <point x="155.0" y="1453.0"/>
      <point x="158.0" y="1447.0"/>
      <point x="158.0" y="1434.0" type="curve" smooth="yes"/>
      <point x="158.0" y="16.0" type="line" smooth="yes"/>
      <point x="158.0" y="3.0"/>
      <point x="155.0" y="-3.0"/>
      <point x="144.0" y="-3.0" type="curve" smooth="yes"/>
      <point x="142.0" y="-3.0" type="line" smooth="yes"/>
      <point x="131.0" y="-3.0"/>
      <point x="128.0" y="3.0"/>
      <point x="128.0" y="16.0" type="curve" smooth="yes"/>
      <point x="128.0" y="1434.0" type="line" smooth="yes"/>
      <point x="128.0" y="1447.0"/>
      <point x="131.0" y="1453.0"/>
    </contour>
  </outline>
</glyph>
<glyph name="m" format="2">
  <advance height="1920" width="1549"/>
  <unicode hex="006D"/>
  <outline>
    <contour>
      <point x="769.0" y="623.0" type="line"/>
      <point x="769.0" y="963.0"/>
      <point x="962.0" y="1085.0"/>
      <point x="1130.0" y="1085.0" type="curve" smooth="yes"/>
      <point x="1298.0" y="1085.0"/>
      <point x="1421.0" y="963.0"/>
      <point x="1421.0" y="763.0" type="curve" smooth="yes"/>
      <point x="1421.0" y="16.0" type="line" smooth="yes"/>
      <point x="1421.0" y="3.0"/>
      <point x="1418.0" y="-3.0"/>
      <point x="1407.0" y="-3.0" type="curve" smooth="yes"/>
      <point x="1405.0" y="-3.0" type="line" smooth="yes"/>
      <point x="1394.0" y="-3.0"/>
      <point x="1391.0" y="3.0"/>
      <point x="1391.0" y="16.0" type="curve" smooth="yes"/>
      <point x="1391.0" y="763.0" type="line" smooth="yes"/>
      <point x="1391.0" y="953.0"/>
      <point x="1280.0" y="1060.0"/>
      <point x="1130.0" y="1060.0" type="curve" smooth="yes"/>
      <point x="971.0" y="1060.0"/>
      <point x="789.0" y="923.0"/>
      <point x="789.0" y="623.0" type="curve"/>
    </contour>
    <contour>
      <point x="137.0" y="1053.0" type="curve" smooth="yes"/>
      <point x="138.0" y="1053.0" type="line" smooth="yes"/>
      <point x="146.0" y="1053.0"/>
      <point x="148.0" y="1047.0"/>
      <point x="148.0" y="1034.0" type="curve" smooth="yes"/>
      <point x="148.0" y="722.0" type="line"/>
      <point x="157.0" y="695.0" type="line"/>
      <point x="157.0" y="16.0" type="line" smooth="yes"/>
      <point x="157.0" y="3.0"/>
      <point x="154.0" y="-3.0"/>
      <point x="144.0" y="-3.0" type="curve" smooth="yes"/>
      <point x="142.0" y="-3.0" type="line" smooth="yes"/>
      <point x="131.0" y="-3.0"/>
      <point x="128.0" y="3.0"/>
      <point x="128.0" y="16.0" type="curve" smooth="yes"/>
      <point x="128.0" y="1034.0" type="line" smooth="yes"/>
      <point x="128.0" y="1047.0"/>
      <point x="130.0" y="1053.0"/>
    </contour>
    <contour>
      <point x="138.0" y="643.0" type="line"/>
      <point x="138.0" y="933.0"/>
      <point x="330.0" y="1085.0"/>
      <point x="498.0" y="1085.0" type="curve" smooth="yes"/>
      <point x="666.0" y="1085.0"/>
      <point x="789.0" y="963.0"/>
      <point x="789.0" y="763.0" type="curve" smooth="yes"/>
      <point x="789.0" y="16.0" type="line" smooth="yes"/>
      <point x="789.0" y="3.0"/>
      <point x="786.0" y="-3.0"/>
      <point x="775.0" y="-3.0" type="curve" smooth="yes"/>
      <point x="773.0" y="-3.0" type="line" smooth="yes"/>
      <point x="762.0" y="-3.0"/>
      <point x="759.0" y="3.0"/>
      <point x="759.0" y="16.0" type="curve" smooth="yes"/>
      <point x="759.0" y="763.0" type="line" smooth="yes"/>
      <point x="759.0" y="943.0"/>
      <point x="648.0" y="1060.0"/>
      <point x="498.0" y="1060.0" type="curve" smooth="yes"/>
      <point x="339.0" y="1060.0"/>
      <point x="157.0" y="903.0"/>
      <point x="157.0" y="623.0" type="curve"/>
    </contour>
  </outline>
</glyph>
<glyph name="o" format="2">
  <advance height="1920" width="1110"/>
  <unicode hex="006F"/>
  <anchor x="557.0" y="0.0" name="bottom"/>
  <anchor x="558.0" y="1050.0" name="top"/>
  <outline>
    <contour>
      <point x="90.0" y="468.0" type="curve" smooth="yes"/>
      <point x="90.0" y="583.0" type="line" smooth="yes"/>
      <point x="90.0" y="873.0"/>
      <point x="288.0" y="1085.0"/>
      <point x="555.0" y="1085.0" type="curve" smooth="yes"/>
      <point x="822.0" y="1085.0"/>
      <point x="1020.0" y="873.0"/>
      <point x="1020.0" y="583.0" type="curve" smooth="yes"/>
      <point x="1020.0" y="468.0" type="line" smooth="yes"/>
      <point x="1020.0" y="178.0"/>
      <point x="822.0" y="-35.0"/>
      <point x="555.0" y="-35.0" type="curve" smooth="yes"/>
      <point x="288.0" y="-35.0"/>
      <point x="90.0" y="178.0"/>
    </contour>
    <contour>
      <point x="115.0" y="468.0" type="line" smooth="yes"/>
      <point x="115.0" y="198.0"/>
      <point x="306.0" y="-10.0"/>
      <point x="555.0" y="-10.0" type="curve" smooth="yes"/>
      <point x="804.0" y="-10.0"/>
      <point x="995.0" y="198.0"/>
      <point x="995.0" y="468.0" type="curve" smooth="yes"/>
      <point x="995.0" y="583.0" type="line" smooth="yes"/>
      <point x="995.0" y="853.0"/>
      <point x="804.0" y="1060.0"/>
      <point x="555.0" y="1060.0" type="curve" smooth="yes"/>
      <point x="306.0" y="1060.0"/>
      <point x="115.0" y="853.0"/>
      <point x="115.0" y="583.0" type="curve" smooth="yes"/>
    </contour>
  </outline>
</glyph>
<glyph name="p" format="2">
  <advance height="1920" width="1093"/>
  <unicode hex="0070"/>
  <outline>
    <contour>
      <point x="135.0" y="633.0" type="line"/>
      <point x="135.0" y="903.0"/>
      <point x="361.0" y="1085.0"/>
      <point x="578.0" y="1085.0" type="curve" smooth="yes"/>
      <point x="784.0" y="1085.0"/>
      <point x="1018.0" y="943.0"/>
      <point x="1018.0" y="603.0" type="curve" smooth="yes"/>
      <point x="1018.0" y="447.0" type="line" smooth="yes"/>
      <point x="1018.0" y="127.0"/>
      <point x="793.0" y="-35.0"/>
      <point x="587.0" y="-35.0" type="curve" smooth="yes"/>
      <point x="343.0" y="-35.0"/>
      <point x="135.0" y="157.0"/>
      <point x="135.0" y="417.0" type="curve"/>
      <point x="150.0" y="437.0" type="line"/>
      <point x="150.0" y="197.0"/>
      <point x="344.0" y="-5.0"/>
      <point x="587.0" y="-5.0" type="curve" smooth="yes"/>
      <point x="775.0" y="-5.0"/>
      <point x="988.0" y="147.0"/>
      <point x="988.0" y="447.0" type="curve" smooth="yes"/>
      <point x="988.0" y="603.0" type="line" smooth="yes"/>
      <point x="988.0" y="923.0"/>
      <point x="766.0" y="1055.0"/>
      <point x="578.0" y="1055.0" type="curve" smooth="yes"/>
      <point x="353.0" y="1055.0"/>
      <point x="150.0" y="853.0"/>
      <point x="150.0" y="613.0" type="curve"/>
    </contour>
    <contour>
      <point x="120.0" y="-344.0" type="curve" smooth="yes"/>
      <point x="120.0" y="1034.0" type="line" smooth="yes"/>
      <point x="120.0" y="1046.0"/>
      <point x="121.0" y="1053.0"/>
      <point x="132.0" y="1053.0" type="curve" smooth="yes"/>
      <point x="133.0" y="1053.0" type="line" smooth="yes"/>
      <point x="144.0" y="1053.0"/>
      <point x="145.0" y="1046.0"/>
      <point x="145.0" y="1034.0" type="curve" smooth="yes"/>
      <point x="145.0" y="683.0" type="line"/>
      <point x="150.0" y="652.0" type="line"/>
      <point x="150.0" y="-344.0" type="line" smooth="yes"/>
      <point x="150.0" y="-356.0"/>
      <point x="147.0" y="-363.0"/>
      <point x="136.0" y="-363.0" type="curve" smooth="yes"/>
      <point x="134.0" y="-363.0" type="line" smooth="yes"/>
      <point x="123.0" y="-363.0"/>
      <point x="120.0" y="-356.0"/>
    </contour>
  </outline>
</glyph>
<glyph name="q" format="2">
  <advance height="1920" width="1093"/>
  <unicode hex="0071"/>
  <outline>
    <contour>
      <point x="959.0" y="-363.0" type="curve" smooth="yes"/>
      <point x="958.0" y="-363.0" type="line" smooth="yes"/>
      <point x="947.0" y="-363.0"/>
      <point x="943.0" y="-357.0"/>
      <point x="943.0" y="-345.0" type="curve" smooth="yes"/>
      <point x="943.0" y="674.0" type="line"/>
      <point x="944.0" y="1067.0" type="line" smooth="yes"/>
      <point x="944.0" y="1080.0"/>
      <point x="949.0" y="1084.0"/>
      <point x="958.0" y="1084.0" type="curve" smooth="yes"/>
      <point x="959.0" y="1084.0" type="line" smooth="yes"/>
      <point x="968.0" y="1084.0"/>
      <point x="973.0" y="1081.0"/>
      <point x="973.0" y="1070.0" type="curve" smooth="yes"/>
      <point x="973.0" y="-345.0" type="line" smooth="yes"/>
      <point x="973.0" y="-357.0"/>
      <point x="970.0" y="-363.0"/>
    </contour>
    <contour>
      <point x="958.0" y="417.0" type="line"/>
      <point x="958.0" y="167.0"/>
      <point x="763.0" y="-35.0"/>
      <point x="506.0" y="-35.0" type="curve" smooth="yes"/>
      <point x="300.0" y="-35.0"/>
      <point x="75.0" y="127.0"/>
      <point x="75.0" y="447.0" type="curve" smooth="yes"/>
      <point x="75.0" y="603.0" type="line" smooth="yes"/>
      <point x="75.0" y="943.0"/>
      <point x="308.0" y="1085.0"/>
      <point x="514.0" y="1085.0" type="curve" smooth="yes"/>
      <point x="751.0" y="1085.0"/>
      <point x="958.0" y="883.0"/>
      <point x="958.0" y="633.0" type="curve"/>
      <point x="943.0" y="613.0" type="line"/>
      <point x="943.0" y="823.0"/>
      <point x="751.0" y="1055.0"/>
      <point x="514.0" y="1055.0" type="curve" smooth="yes"/>
      <point x="326.0" y="1055.0"/>
      <point x="105.0" y="923.0"/>
      <point x="105.0" y="603.0" type="curve" smooth="yes"/>
      <point x="105.0" y="447.0" type="line" smooth="yes"/>
      <point x="105.0" y="147.0"/>
      <point x="318.0" y="-5.0"/>
      <point x="506.0" y="-5.0" type="curve" smooth="yes"/>
      <point x="772.0" y="-5.0"/>
      <point x="943.0" y="227.0"/>
      <point x="943.0" y="437.0" type="curve"/>
    </contour>
  </outline>
</glyph>
<glyph name="r" format="2">
  <advance height="1920" width="635"/>
  <unicode hex="0072"/>
  <anchor x="164.0" y="0.0" name="bottom"/>
  <anchor x="315.0" y="1050.0" name="top"/>
  <outline>
    <contour>
      <point x="132.0" y="1053.0" type="curve" smooth="yes"/>
      <point x="133.0" y="1053.0" type="line" smooth="yes"/>
      <point x="143.0" y="1053.0"/>
      <point x="145.0" y="1047.0"/>
      <point x="145.0" y="1034.0" type="curve" smooth="yes"/>
      <point x="145.0" y="714.0" type="line"/>
      <point x="150.0" y="705.0" type="line"/>
      <point x="150.0" y="16.0" type="line" smooth="yes"/>
      <point x="150.0" y="3.0"/>
      <point x="147.0" y="-3.0"/>
      <point x="136.0" y="-3.0" type="curve" smooth="yes"/>
      <point x="134.0" y="-3.0" type="line" smooth="yes"/>
      <point x="123.0" y="-3.0"/>
      <point x="120.0" y="3.0"/>
      <point x="120.0" y="16.0" type="curve" smooth="yes"/>
      <point x="120.0" y="1034.0" type="line" smooth="yes"/>
      <point x="120.0" y="1047.0"/>
      <point x="122.0" y="1053.0"/>
    </contour>
    <contour>
      <point x="130.0" y="663.0" type="line"/>
      <point x="130.0" y="858.0"/>
      <point x="349.0" y="1085.0"/>
      <point x="565.0" y="1076.0" type="curve" smooth="yes"/>
      <point x="582.0" y="1075.0"/>
      <point x="590.0" y="1072.0"/>
      <point x="590.0" y="1061.0" type="curve" smooth="yes"/>
      <point x="590.0" y="1060.0" type="line" smooth="yes"/>
      <point x="590.0" y="1050.0"/>
      <point x="582.0" y="1048.0"/>
      <point x="562.0" y="1049.0" type="curve" smooth="yes"/>
      <point x="370.0" y="1062.0"/>
      <point x="150.0" y="845.0"/>
      <point x="150.0" y="663.0" type="curve"/>
    </contour>
  </outline>
</glyph>
<glyph name="s" format="2">
  <advance height="1920" width="944"/>
  <unicode hex="0073"/>
  <anchor x="487.0" y="-25.0" name="bottom"/>
  <anchor x="458.0" y="1050.0" name="top"/>
  <outline>
    <contour>
      <point x="79.0" y="361.0" type="curve" smooth="yes"/>
      <point x="80.0" y="361.0" type="line" smooth="yes"/>
      <point x="90.0" y="361.0"/>
      <point x="94.0" y="357.0"/>
      <point x="94.0" y="346.0" type="curve" smooth="yes"/>
      <point x="94.0" y="315.0"/>
      <point x="96.0" y="285.0"/>
      <point x="99.0" y="259.0" type="curve" smooth="yes"/>
      <point x="128.0" y="48.0"/>
      <point x="344.0" y="-7.0"/>
      <point x="489.0" y="-7.0" type="curve" smooth="yes"/>
      <point x="683.0" y="-7.0"/>
      <point x="842.0" y="88.0"/>
      <point x="842.0" y="264.0" type="curve" smooth="yes"/>
      <point x="842.0" y="680.0"/>
      <point x="108.0" y="396.0"/>
      <point x="108.0" y="816.0" type="curve" smooth="yes"/>
      <point x="108.0" y="984.0"/>
      <point x="243.0" y="1085.0"/>
      <point x="460.0" y="1085.0" type="curve" smooth="yes"/>
      <point x="641.0" y="1085.0"/>
      <point x="811.0" y="995.0"/>
      <point x="829.0" y="807.0" type="curve" smooth="yes"/>
      <point x="831.0" y="787.0"/>
      <point x="831.0" y="766.0"/>
      <point x="831.0" y="747.0" type="curve" smooth="yes"/>
      <point x="831.0" y="734.0"/>
      <point x="828.0" y="729.0"/>
      <point x="819.0" y="729.0" type="curve" smooth="yes"/>
      <point x="818.0" y="729.0" type="line" smooth="yes"/>
      <point x="809.0" y="729.0"/>
      <point x="805.0" y="735.0"/>
      <point x="805.0" y="747.0" type="curve" smooth="yes"/>
      <point x="805.0" y="768.0"/>
      <point x="804.0" y="788.0"/>
      <point x="803.0" y="807.0" type="curve" smooth="yes"/>
      <point x="786.0" y="979.0"/>
      <point x="620.0" y="1060.0"/>
      <point x="458.0" y="1060.0" type="curve" smooth="yes"/>
      <point x="249.0" y="1060.0"/>
      <point x="137.0" y="963.0"/>
      <point x="137.0" y="815.0" type="curve" smooth="yes"/>
      <point x="137.0" y="429.0"/>
      <point x="876.0" y="705.0"/>
      <point x="876.0" y="265.0" type="curve" smooth="yes"/>
      <point x="876.0" y="85.0"/>
      <point x="710.0" y="-36.0"/>
      <point x="489.0" y="-36.0" type="curve" smooth="yes"/>
      <point x="319.0" y="-36.0"/>
      <point x="102.0" y="26.0"/>
      <point x="69.0" y="255.0" type="curve" smooth="yes"/>
      <point x="65.0" y="281.0"/>
      <point x="64.0" y="310.0"/>
      <point x="64.0" y="343.0" type="curve" smooth="yes"/>
      <point x="64.0" y="356.0"/>
      <point x="68.0" y="361.0"/>
    </contour>
  </outline>
</glyph>
<glyph name="t" format="2">
  <advance height="1920" width="625"/>
  <unicode hex="0074"/>
  <anchor x="357.0" y="0.0" name="bottom"/>
  <outline>
    <contour>
      <point x="564.0" y="1025.0" type="curve" smooth="yes"/>
      <point x="46.0" y="1025.0" type="line" smooth="yes"/>
      <point x="33.0" y="1025.0"/>
      <point x="27.0" y="1026.0"/>
      <point x="27.0" y="1037.0" type="curve" smooth="yes"/>
      <point x="27.0" y="1038.0" type="line" smooth="yes"/>
      <point x="27.0" y="1049.0"/>
      <point x="33.0" y="1050.0"/>
      <point x="46.0" y="1050.0" type="curve" smooth="yes"/>
      <point x="564.0" y="1050.0" type="line" smooth="yes"/>
      <point x="577.0" y="1050.0"/>
      <point x="583.0" y="1049.0"/>
      <point x="583.0" y="1038.0" type="curve" smooth="yes"/>
      <point x="583.0" y="1037.0" type="line" smooth="yes"/>
      <point x="583.0" y="1026.0"/>
      <point x="577.0" y="1025.0"/>
    </contour>
    <contour>
      <point x="589.0" y="12.0" type="curve" smooth="yes"/>
      <point x="589.0" y="11.0" type="line" smooth="yes"/>
      <point x="589.0" y="3.0"/>
      <point x="582.0" y="0.0"/>
      <point x="569.0" y="-2.0" type="curve" smooth="yes"/>
      <point x="287.0" y="-37.0"/>
      <point x="250.0" y="44.0"/>
      <point x="250.0" y="252.0" type="curve" smooth="yes"/>
      <point x="250.0" y="1284.0" type="line" smooth="yes"/>
      <point x="250.0" y="1297.0"/>
      <point x="251.0" y="1304.0"/>
      <point x="262.0" y="1304.0" type="curve" smooth="yes"/>
      <point x="263.0" y="1304.0" type="line" smooth="yes"/>
      <point x="274.0" y="1304.0"/>
      <point x="275.0" y="1297.0"/>
      <point x="275.0" y="1284.0" type="curve" smooth="yes"/>
      <point x="275.0" y="252.0" type="line" smooth="yes"/>
      <point x="275.0" y="55.0"/>
      <point x="306.0" y="-11.0"/>
      <point x="570.0" y="19.0" type="curve" smooth="yes"/>
      <point x="581.0" y="20.0"/>
      <point x="589.0" y="21.0"/>
    </contour>
  </outline>
</glyph>
<glyph name="u" format="2">
  <advance height="1920" width="986"/>
  <unicode hex="0075"/>
  <anchor x="515.0" y="0.0" name="bottom"/>
  <anchor x="839.0" y="0.0" name="ogonek"/>
  <anchor x="486.0" y="1050.0" name="top"/>
  <outline>
    <contour>
      <point x="849.0" y="-3.0" type="curve" smooth="yes"/>
      <point x="848.0" y="-3.0" type="line" smooth="yes"/>
      <point x="838.0" y="-3.0"/>
      <point x="835.0" y="3.0"/>
      <point x="835.0" y="16.0" type="curve" smooth="yes"/>
      <point x="835.0" y="383.0" type="line"/>
      <point x="831.0" y="410.0" type="line"/>
      <point x="831.0" y="1034.0" type="line" smooth="yes"/>
      <point x="831.0" y="1047.0"/>
      <point x="834.0" y="1053.0"/>
      <point x="845.0" y="1053.0" type="curve" smooth="yes"/>
      <point x="847.0" y="1053.0" type="line" smooth="yes"/>
      <point x="858.0" y="1053.0"/>
      <point x="861.0" y="1047.0"/>
      <point x="861.0" y="1034.0" type="curve" smooth="yes"/>
      <point x="861.0" y="16.0" type="line" smooth="yes"/>
      <point x="861.0" y="3.0"/>
      <point x="858.0" y="-3.0"/>
    </contour>
    <contour>
      <point x="851.0" y="427.0" type="line"/>
      <point x="851.0" y="197.0"/>
      <point x="686.0" y="-35.0"/>
      <point x="452.0" y="-35.0" type="curve" smooth="yes"/>
      <point x="236.0" y="-35.0"/>
      <point x="125.0" y="87.0"/>
      <point x="125.0" y="317.0" type="curve" smooth="yes"/>
      <point x="125.0" y="1034.0" type="line" smooth="yes"/>
      <point x="125.0" y="1047.0"/>
      <point x="128.0" y="1053.0"/>
      <point x="139.0" y="1053.0" type="curve" smooth="yes"/>
      <point x="141.0" y="1053.0" type="line" smooth="yes"/>
      <point x="152.0" y="1053.0"/>
      <point x="155.0" y="1047.0"/>
      <point x="155.0" y="1034.0" type="curve" smooth="yes"/>
      <point x="155.0" y="317.0" type="line" smooth="yes"/>
      <point x="155.0" y="107.0"/>
      <point x="254.0" y="-10.0"/>
      <point x="452.0" y="-10.0" type="curve" smooth="yes"/>
      <point x="681.0" y="-10.0"/>
      <point x="831.0" y="217.0"/>
      <point x="831.0" y="427.0" type="curve"/>
    </contour>
  </outline>
</glyph>
<glyph name="v" format="2">
  <advance height="1920" width="886"/>
  <unicode hex="0076"/>
  <outline>
    <contour>
      <point x="441.0" y="37.0" type="line"/>
      <point x="832.0" y="1034.0" type="line" smooth="yes"/>
      <point x="836.0" y="1047.0"/>
      <point x="841.0" y="1053.0"/>
      <point x="851.0" y="1053.0" type="curve" smooth="yes"/>
      <point x="853.0" y="1053.0" type="line" smooth="yes"/>
      <point x="864.0" y="1053.0"/>
      <point x="867.0" y="1047.0"/>
      <point x="862.0" y="1034.0" type="curve" smooth="yes"/>
      <point x="461.0" y="16.0" type="line" smooth="yes"/>
      <point x="455.0" y="1.0"/>
      <point x="449.0" y="-3.0"/>
      <point x="439.0" y="-3.0" type="curve" smooth="yes"/>
      <point x="438.0" y="-3.0" type="line" smooth="yes"/>
      <point x="428.0" y="-3.0"/>
      <point x="422.0" y="2.0"/>
      <point x="417.0" y="16.0" type="curve" smooth="yes"/>
      <point x="23.0" y="1034.0" type="line" smooth="yes"/>
      <point x="19.0" y="1047.0"/>
      <point x="24.0" y="1053.0"/>
      <point x="32.0" y="1053.0" type="curve" smooth="yes"/>
      <point x="34.0" y="1053.0" type="line" smooth="yes"/>
      <point x="43.0" y="1053.0"/>
      <point x="48.0" y="1047.0"/>
      <point x="52.0" y="1034.0" type="curve" smooth="yes"/>
    </contour>
  </outline>
</glyph>
<glyph name="w" format="2">
  <advance height="1920" width="1407"/>
  <unicode hex="0077"/>
  <outline>
    <contour>
      <point x="1017.0" y="58.0" type="line"/>
      <point x="1339.0" y="1034.0" type="line" smooth="yes"/>
      <point x="1343.0" y="1047.0"/>
      <point x="1347.0" y="1053.0"/>
      <point x="1357.0" y="1053.0" type="curve" smooth="yes"/>
      <point x="1358.0" y="1053.0" type="line" smooth="yes"/>
      <point x="1367.0" y="1053.0"/>
      <point x="1372.0" y="1047.0"/>
      <point x="1368.0" y="1034.0" type="curve" smooth="yes"/>
      <point x="1033.0" y="16.0" type="line" smooth="yes"/>
      <point x="1029.0" y="3.0"/>
      <point x="1027.0" y="-3.0"/>
      <point x="1016.0" y="-3.0" type="curve" smooth="yes"/>
      <point x="1015.0" y="-3.0" type="line" smooth="yes"/>
      <point x="1005.0" y="-3.0"/>
      <point x="1003.0" y="2.0"/>
      <point x="999.0" y="16.0" type="curve" smooth="yes"/>
      <point x="715.0" y="1011.0" type="line"/>
      <point x="406.0" y="16.0" type="line" smooth="yes"/>
      <point x="402.0" y="2.0"/>
      <point x="399.0" y="-3.0"/>
      <point x="389.0" y="-3.0" type="curve" smooth="yes"/>
      <point x="388.0" y="-3.0" type="line" smooth="yes"/>
      <point x="377.0" y="-3.0"/>
      <point x="373.0" y="2.0"/>
      <point x="369.0" y="16.0" type="curve" smooth="yes"/>
      <point x="40.0" y="1030.0" type="line" smooth="yes"/>
      <point x="35.0" y="1045.0"/>
      <point x="40.0" y="1053.0"/>
      <point x="50.0" y="1053.0" type="curve" smooth="yes"/>
      <point x="52.0" y="1053.0" type="line" smooth="yes"/>
      <point x="62.0" y="1053.0"/>
      <point x="65.0" y="1047.0"/>
      <point x="69.0" y="1034.0" type="curve" smooth="yes"/>
      <point x="389.0" y="58.0" type="line"/>
      <point x="697.0" y="1034.0" type="line" smooth="yes"/>
      <point x="701.0" y="1047.0"/>
      <point x="706.0" y="1053.0"/>
      <point x="716.0" y="1053.0" type="curve" smooth="yes"/>
      <point x="718.0" y="1053.0" type="line" smooth="yes"/>
      <point x="728.0" y="1053.0"/>
      <point x="733.0" y="1047.0"/>
      <point x="737.0" y="1034.0" type="curve" smooth="yes"/>
    </contour>
  </outline>
</glyph>
<glyph name="x" format="2">
  <advance height="1920" width="922"/>
  <unicode hex="0078"/>
  <outline>
    <contour>
      <point x="59.0" y="-3.0" type="curve" smooth="yes"/>
      <point x="58.0" y="-3.0" type="line" smooth="yes"/>
      <point x="46.0" y="-3.0"/>
      <point x="44.0" y="8.0"/>
      <point x="54.0" y="22.0" type="curve" smooth="yes"/>
      <point x="451.0" y="548.0" type="line"/>
      <point x="67.0" y="1031.0" type="line" smooth="yes"/>
      <point x="57.0" y="1044.0"/>
      <point x="63.0" y="1053.0"/>
      <point x="73.0" y="1053.0" type="curve" smooth="yes"/>
      <point x="74.0" y="1053.0" type="line" smooth="yes"/>
      <point x="84.0" y="1053.0"/>
      <point x="91.0" y="1047.0"/>
      <point x="101.0" y="1034.0" type="curve" smooth="yes"/>
      <point x="466.0" y="567.0" type="line"/>
      <point x="826.0" y="1034.0" type="line" smooth="yes"/>
      <point x="836.0" y="1047.0"/>
      <point x="839.0" y="1053.0"/>
      <point x="848.0" y="1053.0" type="curve" smooth="yes"/>
      <point x="849.0" y="1053.0" type="line" smooth="yes"/>
      <point x="859.0" y="1053.0"/>
      <point x="864.0" y="1043.0"/>
      <point x="853.0" y="1029.0" type="curve" smooth="yes"/>
      <point x="479.0" y="551.0" type="line"/>
      <point x="868.0" y="23.0" type="line" smooth="yes"/>
      <point x="879.0" y="8.0"/>
      <point x="874.0" y="-3.0"/>
      <point x="862.0" y="-3.0" type="curve" smooth="yes"/>
      <point x="860.0" y="-3.0" type="line" smooth="yes"/>
      <point x="849.0" y="-3.0"/>
      <point x="846.0" y="4.0"/>
      <point x="837.0" y="16.0" type="curve" smooth="yes"/>
      <point x="464.0" y="528.0" type="line"/>
      <point x="82.0" y="16.0" type="line" smooth="yes"/>
      <point x="74.0" y="3.0"/>
      <point x="69.0" y="-3.0"/>
    </contour>
  </outline>
</glyph>
<glyph name="y" format="2">
  <advance height="1920" width="909"/>
  <unicode hex="0079"/>
  <anchor x="455.0" y="1050.0" name="top"/>
  <outline>
    <contour>
      <point x="456.0" y="28.0" type="line"/>
      <point x="830.0" y="1034.0" type="line" smooth="yes"/>
      <point x="834.0" y="1046.0"/>
      <point x="839.0" y="1053.0"/>
      <point x="850.0" y="1053.0" type="curve" smooth="yes"/>
      <point x="853.0" y="1053.0" type="line" smooth="yes"/>
      <point x="865.0" y="1053.0"/>
      <point x="867.0" y="1044.0"/>
      <point x="863.0" y="1031.0" type="curve" smooth="yes"/>
      <point x="444.0" y="-111.0" type="line"/>
      <point x="350.0" y="-393.0"/>
      <point x="299.0" y="-399.0"/>
      <point x="111.0" y="-364.0" type="curve" smooth="yes"/>
      <point x="93.0" y="-361.0"/>
      <point x="83.0" y="-355.0"/>
      <point x="83.0" y="-345.0" type="curve" smooth="yes"/>
      <point x="83.0" y="-343.0" type="line" smooth="yes"/>
      <point x="83.0" y="-332.0"/>
      <point x="92.0" y="-326.0"/>
      <point x="107.0" y="-329.0" type="curve" smooth="yes"/>
      <point x="299.0" y="-371.0"/>
      <point x="337.0" y="-375.0"/>
      <point x="439.0" y="-10.0" type="curve"/>
      <point x="41.0" y="1031.0" type="line" smooth="yes"/>
      <point x="37.0" y="1044.0"/>
      <point x="39.0" y="1053.0"/>
      <point x="51.0" y="1053.0" type="curve" smooth="yes"/>
      <point x="52.0" y="1053.0" type="line" smooth="yes"/>
      <point x="63.0" y="1053.0"/>
      <point x="65.0" y="1045.0"/>
      <point x="69.0" y="1034.0" type="curve" smooth="yes"/>
    </contour>
  </outline>
</glyph>
<glyph name="z" format="2">
  <advance height="1920" width="888"/>
  <unicode hex="007A"/>
  <anchor x="451.0" y="1050.0" name="top"/>
  <outline>
    <contour>
      <point x="66.0" y="24.0" type="curve" smooth="yes"/>
      <point x="797.0" y="1020.0" type="line"/>
      <point x="132.0" y="1020.0" type="line" smooth="yes"/>
      <point x="117.0" y="1020.0"/>
      <point x="113.0" y="1021.0"/>
      <point x="113.0" y="1034.0" type="curve" smooth="yes"/>
      <point x="113.0" y="1035.0" type="line" smooth="yes"/>
      <point x="113.0" y="1048.0"/>
      <point x="117.0" y="1050.0"/>
      <point x="132.0" y="1050.0" type="curve" smooth="yes"/>
      <point x="835.0" y="1050.0" type="line" smooth="yes"/>
      <point x="850.0" y="1050.0"/>
      <point x="855.0" y="1041.0"/>
      <point x="845.0" y="1028.0" type="curve" smooth="yes"/>
      <point x="113.0" y="30.0" type="line"/>
      <point x="852.0" y="30.0" type="line" smooth="yes"/>
      <point x="865.0" y="30.0"/>
      <point x="871.0" y="27.0"/>
      <point x="871.0" y="16.0" type="curve" smooth="yes"/>
      <point x="871.0" y="15.0" type="line" smooth="yes"/>
      <point x="871.0" y="4.0"/>
      <point x="865.0" y="0.0"/>
      <point x="852.0" y="0.0" type="curve" smooth="yes"/>
      <point x="74.0" y="0.0" type="line" smooth="yes"/>
      <point x="60.0" y="0.0"/>
      <point x="55.0" y="10.0"/>
    </contour>
  </outline>
</glyph>
<glyph name="braceleft" format="2">
  <advance height="2048" width="575"/>
  <unicode hex="007B"/>
  <outline>
    <contour>
      <point x="215.0" y="1278.0" type="line" smooth="yes"/>
      <point x="215.0" y="1505.0"/>
      <point x="269.0" y="1598.0"/>
      <point x="459.0" y="1600.0" type="curve" smooth="yes"/>
      <point x="472.0" y="1600.0"/>
      <point x="478.0" y="1595.0"/>
      <point x="478.0" y="1586.0" type="curve" smooth="yes"/>
      <point x="478.0" y="1582.0" type="line" smooth="yes"/>
      <point x="478.0" y="1572.0"/>
      <point x="471.0" y="1570.0"/>
      <point x="460.0" y="1569.0" type="curve" smooth="yes"/>
      <point x="286.0" y="1564.0"/>
      <point x="250.0" y="1482.0"/>
      <point x="250.0" y="1278.0" type="curve" smooth="yes"/>
      <point x="250.0" y="956.0" type="line" smooth="yes"/>
      <point x="250.0" y="771.0"/>
      <point x="192.0" y="668.0"/>
      <point x="36.0" y="620.0" type="curve"/>
      <point x="192.0" y="572.0"/>
      <point x="250.0" y="469.0"/>
      <point x="250.0" y="284.0" type="curve" smooth="yes"/>
      <point x="250.0" y="-38.0" type="line" smooth="yes"/>
      <point x="250.0" y="-241.0"/>
      <point x="286.0" y="-323.0"/>
      <point x="458.0" y="-329.0" type="curve" smooth="yes"/>
      <point x="470.0" y="-330.0"/>
      <point x="478.0" y="-332.0"/>
      <point x="478.0" y="-342.0" type="curve" smooth="yes"/>
      <point x="478.0" y="-346.0" type="line" smooth="yes"/>
      <point x="478.0" y="-355.0"/>
      <point x="472.0" y="-360.0"/>
      <point x="457.0" y="-360.0" type="curve" smooth="yes"/>
      <point x="269.0" y="-356.0"/>
      <point x="215.0" y="-265.0"/>
      <point x="215.0" y="-38.0" type="curve" smooth="yes"/>
      <point x="215.0" y="284.0" type="line" smooth="yes"/>
      <point x="215.0" y="497.0"/>
      <point x="120.0" y="569.0"/>
      <point x="25.0" y="601.0" type="curve" smooth="yes"/>
      <point x="14.0" y="605.0"/>
      <point x="9.0" y="609.0"/>
      <point x="9.0" y="619.0" type="curve" smooth="yes"/>
      <point x="9.0" y="620.0" type="line" smooth="yes"/>
      <point x="9.0" y="630.0"/>
      <point x="14.0" y="635.0"/>
      <point x="23.0" y="638.0" type="curve" smooth="yes"/>
      <point x="122.0" y="671.0"/>
      <point x="215.0" y="732.0"/>
      <point x="215.0" y="956.0" type="curve" smooth="yes"/>
    </contour>
  </outline>
</glyph>
<glyph name="bar" format="2">
  <advance height="1920" width="415"/>
  <unicode hex="007C"/>
  <outline>
    <contour>
      <point x="207.0" y="1603.0" type="curve" smooth="yes"/>
      <point x="208.0" y="1603.0" type="line" smooth="yes"/>
      <point x="219.0" y="1603.0"/>
      <point x="223.0" y="1597.0"/>
      <point x="223.0" y="1584.0" type="curve" smooth="yes"/>
      <point x="223.0" y="-344.0" type="line" smooth="yes"/>
      <point x="223.0" y="-357.0"/>
      <point x="220.0" y="-363.0"/>
      <point x="209.0" y="-363.0" type="curve" smooth="yes"/>
      <point x="207.0" y="-363.0" type="line" smooth="yes"/>
      <point x="196.0" y="-363.0"/>
      <point x="193.0" y="-357.0"/>
      <point x="193.0" y="-344.0" type="curve" smooth="yes"/>
      <point x="193.0" y="1584.0" type="line" smooth="yes"/>
      <point x="193.0" y="1597.0"/>
      <point x="196.0" y="1603.0"/>
    </contour>
  </outline>
</glyph>
<glyph name="braceright" format="2">
  <advance height="2048" width="575"/>
  <unicode hex="007D"/>
  <outline>
    <contour>
      <point x="360.0" y="-38.0" type="line" smooth="yes"/>
      <point x="360.0" y="-265.0"/>
      <point x="306.0" y="-358.0"/>
      <point x="116.0" y="-360.0" type="curve" smooth="yes"/>
      <point x="103.0" y="-360.0"/>
      <point x="97.0" y="-355.0"/>
      <point x="97.0" y="-346.0" type="curve" smooth="yes"/>
      <point x="97.0" y="-342.0" type="line" smooth="yes"/>
      <point x="97.0" y="-332.0"/>
      <point x="105.0" y="-330.0"/>
      <point x="116.0" y="-329.0" type="curve" smooth="yes"/>
      <point x="290.0" y="-324.0"/>
      <point x="325.0" y="-242.0"/>
      <point x="325.0" y="-38.0" type="curve" smooth="yes"/>
      <point x="325.0" y="284.0" type="line" smooth="yes"/>
      <point x="325.0" y="469.0"/>
      <point x="383.0" y="572.0"/>
      <point x="539.0" y="620.0" type="curve"/>
      <point x="383.0" y="668.0"/>
      <point x="325.0" y="771.0"/>
      <point x="325.0" y="956.0" type="curve" smooth="yes"/>
      <point x="325.0" y="1278.0" type="line" smooth="yes"/>
      <point x="325.0" y="1481.0"/>
      <point x="289.0" y="1563.0"/>
      <point x="117.0" y="1569.0" type="curve" smooth="yes"/>
      <point x="105.0" y="1570.0"/>
      <point x="97.0" y="1572.0"/>
      <point x="97.0" y="1582.0" type="curve" smooth="yes"/>
      <point x="97.0" y="1586.0" type="line" smooth="yes"/>
      <point x="97.0" y="1595.0"/>
      <point x="103.0" y="1600.0"/>
      <point x="118.0" y="1600.0" type="curve" smooth="yes"/>
      <point x="306.0" y="1596.0"/>
      <point x="360.0" y="1505.0"/>
      <point x="360.0" y="1278.0" type="curve" smooth="yes"/>
      <point x="360.0" y="956.0" type="line" smooth="yes"/>
      <point x="360.0" y="743.0"/>
      <point x="455.0" y="671.0"/>
      <point x="550.0" y="639.0" type="curve" smooth="yes"/>
      <point x="561.0" y="635.0"/>
      <point x="566.0" y="631.0"/>
      <point x="566.0" y="621.0" type="curve" smooth="yes"/>
      <point x="566.0" y="620.0" type="line" smooth="yes"/>
      <point x="566.0" y="610.0"/>
      <point x="561.0" y="605.0"/>
      <point x="552.0" y="602.0" type="curve" smooth="yes"/>
      <point x="453.0" y="569.0"/>
      <point x="360.0" y="508.0"/>
      <point x="360.0" y="284.0" type="curve" smooth="yes"/>
    </contour>
  </outline>
</glyph>
<glyph name="asciitilde" format="2">
  <advance height="2048" width="1330"/>
  <unicode hex="007E"/>
  <outline>
    <contour>
      <point x="422.0" y="779.0" type="curve" smooth="yes"/>
      <point x="270.0" y="779.0"/>
      <point x="215.0" y="640.0"/>
      <point x="211.0" y="453.0" type="curve" smooth="yes"/>
      <point x="211.0" y="441.0"/>
      <point x="206.0" y="435.0"/>
      <point x="195.0" y="435.0" type="curve" smooth="yes"/>
      <point x="194.0" y="435.0" type="line" smooth="yes"/>
      <point x="183.0" y="435.0"/>
      <point x="181.0" y="441.0"/>
      <point x="181.0" y="453.0" type="curve" smooth="yes"/>
      <point x="186.0" y="655.0"/>
      <point x="251.0" y="809.0"/>
      <point x="422.0" y="809.0" type="curve" smooth="yes"/>
      <point x="631.0" y="809.0"/>
      <point x="717.0" y="432.0"/>
      <point x="909.0" y="432.0" type="curve" smooth="yes"/>
      <point x="1061.0" y="432.0"/>
      <point x="1116.0" y="570.0"/>
      <point x="1120.0" y="757.0" type="curve" smooth="yes"/>
      <point x="1120.0" y="770.0"/>
      <point x="1123.0" y="776.0"/>
      <point x="1134.0" y="776.0" type="curve" smooth="yes"/>
      <point x="1135.0" y="776.0" type="line" smooth="yes"/>
      <point x="1146.0" y="776.0"/>
      <point x="1149.0" y="770.0"/>
      <point x="1149.0" y="757.0" type="curve" smooth="yes"/>
      <point x="1144.0" y="555.0"/>
      <point x="1079.0" y="402.0"/>
      <point x="909.0" y="402.0" type="curve" smooth="yes"/>
      <point x="700.0" y="402.0"/>
      <point x="614.0" y="779.0"/>
    </contour>
  </outline>
</glyph>
<glyph name="exclamdown" format="2">
  <advance height="1920" width="540"/>
  <unicode hex="00A1"/>
  <outline>
    <contour>
      <point x="268.0" y="1053.0" type="curve" smooth="yes"/>
      <point x="272.0" y="1053.0" type="line" smooth="yes"/>
      <point x="285.0" y="1053.0"/>
      <point x="293.0" y="1044.0"/>
      <point x="293.0" y="1032.0" type="curve" smooth="yes"/>
      <point x="293.0" y="858.0" type="line" smooth="yes"/>
      <point x="293.0" y="846.0"/>
      <point x="285.0" y="837.0"/>
      <point x="272.0" y="837.0" type="curve" smooth="yes"/>
      <point x="268.0" y="837.0" type="line" smooth="yes"/>
      <point x="255.0" y="837.0"/>
      <point x="247.0" y="846.0"/>
      <point x="247.0" y="858.0" type="curve" smooth="yes"/>
      <point x="247.0" y="1032.0" type="line" smooth="yes"/>
      <point x="247.0" y="1044.0"/>
      <point x="255.0" y="1053.0"/>
    </contour>
    <contour>
      <point x="285.0" y="93.0" type="curve" smooth="yes"/>
      <point x="285.0" y="-384.0" type="line" smooth="yes"/>
      <point x="285.0" y="-397.0"/>
      <point x="280.0" y="-403.0"/>
      <point x="271.0" y="-403.0" type="curve" smooth="yes"/>
      <point x="269.0" y="-403.0" type="line" smooth="yes"/>
      <point x="260.0" y="-403.0"/>
      <point x="255.0" y="-397.0"/>
      <point x="255.0" y="-384.0" type="curve" smooth="yes"/>
      <point x="255.0" y="93.0" type="line" smooth="yes"/>
      <point x="255.0" y="104.0"/>
      <point x="257.0" y="195.0"/>
      <point x="257.0" y="206.0" type="curve" smooth="yes"/>
      <point x="259.0" y="606.0" type="line" smooth="yes"/>
      <point x="259.0" y="617.0"/>
      <point x="261.0" y="622.0"/>
      <point x="269.0" y="622.0" type="curve" smooth="yes"/>
      <point x="271.0" y="622.0" type="line" smooth="yes"/>
      <point x="279.0" y="622.0"/>
      <point x="281.0" y="617.0"/>
      <point x="281.0" y="606.0" type="curve" smooth="yes"/>
      <point x="283.0" y="206.0" type="line" smooth="yes"/>
      <point x="283.0" y="195.0"/>
      <point x="285.0" y="104.0"/>
    </contour>
  </outline>
</glyph>
<glyph name="cent" format="2">
  <advance height="1920" width="988"/>
  <unicode hex="00A2"/>
  <outline>
    <contour>
      <point x="504.0" y="1242.0" type="curve" smooth="yes"/>
      <point x="505.0" y="1242.0" type="line" smooth="yes"/>
      <point x="512.0" y="1242.0"/>
      <point x="517.0" y="1237.0"/>
      <point x="517.0" y="1230.0" type="curve" smooth="yes"/>
      <point x="517.0" y="-180.0" type="line" smooth="yes"/>
      <point x="517.0" y="-187.0"/>
      <point x="512.0" y="-192.0"/>
      <point x="505.0" y="-192.0" type="curve" smooth="yes"/>
      <point x="504.0" y="-192.0" type="line" smooth="yes"/>
      <point x="497.0" y="-192.0"/>
      <point x="492.0" y="-187.0"/>
      <point x="492.0" y="-180.0" type="curve" smooth="yes"/>
      <point x="492.0" y="1230.0" type="line" smooth="yes"/>
      <point x="492.0" y="1237.0"/>
      <point x="497.0" y="1242.0"/>
    </contour>
    <component base="c"/>
  </outline>
</glyph>
<glyph name="sterling" format="2">
  <advance height="1920" width="1280"/>
  <unicode hex="00A3"/>
  <outline>
    <contour>
      <point x="44.0" y="697.0" type="curve" smooth="yes"/>
      <point x="44.0" y="698.0" type="line" smooth="yes"/>
      <point x="44.0" y="708.0"/>
      <point x="52.0" y="710.0"/>
      <point x="65.0" y="710.0" type="curve" smooth="yes"/>
      <point x="715.0" y="710.0" type="line" smooth="yes"/>
      <point x="728.0" y="710.0"/>
      <point x="735.0" y="708.0"/>
      <point x="735.0" y="698.0" type="curve" smooth="yes"/>
      <point x="735.0" y="697.0" type="line" smooth="yes"/>
      <point x="735.0" y="687.0"/>
      <point x="728.0" y="685.0"/>
      <point x="715.0" y="685.0" type="curve" smooth="yes"/>
      <point x="65.0" y="685.0" type="line" smooth="yes"/>
      <point x="52.0" y="685.0"/>
      <point x="44.0" y="687.0"/>
    </contour>
    <contour>
      <point x="88.0" y="38.0" type="curve" smooth="yes"/>
      <point x="204.0" y="152.0"/>
      <point x="328.0" y="309.0"/>
      <point x="328.0" y="514.0" type="curve" smooth="yes"/>
      <point x="328.0" y="732.0"/>
      <point x="140.0" y="815.0"/>
      <point x="140.0" y="1043.0" type="curve" smooth="yes"/>
      <point x="140.0" y="1273.0"/>
      <point x="268.0" y="1435.0"/>
      <point x="555.0" y="1435.0" type="curve" smooth="yes"/>
      <point x="849.0" y="1435.0"/>
      <point x="935.0" y="1266.0"/>
      <point x="950.0" y="977.0" type="curve" smooth="yes"/>
      <point x="950.727515643" y="962.983198618"/>
      <point x="947.0" y="957.0"/>
      <point x="936.0" y="957.0" type="curve" smooth="yes"/>
      <point x="935.0" y="957.0" type="line" smooth="yes"/>
      <point x="924.0" y="957.0"/>
      <point x="920.803592584" y="962.98735432"/>
      <point x="920.0" y="977.0" type="curve" smooth="yes"/>
      <point x="904.0" y="1256.0"/>
      <point x="820.0" y="1405.0"/>
      <point x="555.0" y="1405.0" type="curve" smooth="yes"/>
      <point x="288.0" y="1405.0"/>
      <point x="170.0" y="1253.0"/>
      <point x="170.0" y="1043.0" type="curve" smooth="yes"/>
      <point x="170.0" y="822.0"/>
      <point x="358.0" y="740.0"/>
      <point x="358.0" y="514.0" type="curve" smooth="yes"/>
      <point x="358.0" y="332.0"/>
      <point x="236.0" y="121.0"/>
      <point x="117.0" y="35.0" type="curve"/>
      <point x="1024.0" y="35.0" type="line" smooth="yes"/>
      <point x="1037.0" y="35.0"/>
      <point x="1044.0" y="29.0"/>
      <point x="1044.0" y="18.0" type="curve" smooth="yes"/>
      <point x="1044.0" y="17.0" type="line" smooth="yes"/>
      <point x="1044.0" y="6.0"/>
      <point x="1037.0" y="0.0"/>
      <point x="1024.0" y="0.0" type="curve" smooth="yes"/>
      <point x="96.0" y="0.0" type="line" smooth="yes"/>
      <point x="83.0" y="0.0"/>
      <point x="75.0" y="4.0"/>
      <point x="75.0" y="15.0" type="curve" smooth="yes"/>
      <point x="75.0" y="17.0" type="line" smooth="yes"/>
      <point x="75.0" y="25.0"/>
      <point x="79.0" y="30.0"/>
    </contour>
  </outline>
</glyph>
<glyph name="currency" format="2">
  <advance width="1112"/>
  <unicode hex="00A4"/>
  <outline>
    <contour>
      <point x="1006.0" y="1164.0" type="curve" smooth="yes"/>
      <point x="1007.0" y="1163.0" type="line" smooth="yes"/>
      <point x="1015.0" y="1155.0"/>
      <point x="1012.0" y="1147.0"/>
      <point x="1003.0" y="1138.0" type="curve" smooth="yes"/>
      <point x="904.0" y="1039.0" type="line" smooth="yes"/>
      <point x="899.0" y="1034.0"/>
      <point x="895.0" y="1034.0"/>
      <point x="890.0" y="1039.0" type="curve" smooth="yes"/>
      <point x="882.0" y="1047.0" type="line" smooth="yes"/>
      <point x="877.0" y="1052.0"/>
      <point x="877.0" y="1057.0"/>
      <point x="882.0" y="1062.0" type="curve" smooth="yes"/>
      <point x="980.0" y="1160.0" type="line" smooth="yes"/>
      <point x="989.0" y="1169.0"/>
      <point x="998.0" y="1172.0"/>
    </contour>
    <contour>
      <point x="220.0" y="386.0" type="curve" smooth="yes"/>
      <point x="228.0" y="378.0" type="line" smooth="yes"/>
      <point x="233.0" y="373.0"/>
      <point x="233.0" y="368.0"/>
      <point x="228.0" y="363.0" type="curve" smooth="yes"/>
      <point x="120.0" y="255.0" type="line" smooth="yes"/>
      <point x="111.0" y="246.0"/>
      <point x="102.0" y="242.0"/>
      <point x="94.0" y="250.0" type="curve" smooth="yes"/>
      <point x="93.0" y="251.0" type="line" smooth="yes"/>
      <point x="85.0" y="259.0"/>
      <point x="88.0" y="268.0"/>
      <point x="97.0" y="277.0" type="curve" smooth="yes"/>
      <point x="206.0" y="386.0" type="line" smooth="yes"/>
      <point x="211.0" y="391.0"/>
      <point x="215.0" y="391.0"/>
    </contour>
    <contour>
      <point x="93.0" y="1164.0" type="curve" smooth="yes"/>
      <point x="94.0" y="1165.0" type="line" smooth="yes"/>
      <point x="102.0" y="1173.0"/>
      <point x="111.0" y="1169.0"/>
      <point x="120.0" y="1160.0" type="curve" smooth="yes"/>
      <point x="228.0" y="1052.0" type="line" smooth="yes"/>
      <point x="233.0" y="1047.0"/>
      <point x="233.0" y="1042.0"/>
      <point x="228.0" y="1037.0" type="curve" smooth="yes"/>
      <point x="220.0" y="1029.0" type="line" smooth="yes"/>
      <point x="215.0" y="1024.0"/>
      <point x="211.0" y="1024.0"/>
      <point x="206.0" y="1029.0" type="curve" smooth="yes"/>
      <point x="97.0" y="1138.0" type="line" smooth="yes"/>
      <point x="88.0" y="1147.0"/>
      <point x="85.0" y="1156.0"/>
    </contour>
    <contour>
      <point x="882.0" y="368.0" type="curve" smooth="yes"/>
      <point x="890.0" y="376.0" type="line" smooth="yes"/>
      <point x="895.0" y="381.0"/>
      <point x="899.0" y="381.0"/>
      <point x="904.0" y="376.0" type="curve" smooth="yes"/>
      <point x="1003.0" y="277.0" type="line" smooth="yes"/>
      <point x="1012.0" y="268.0"/>
      <point x="1015.0" y="259.0"/>
      <point x="1007.0" y="251.0" type="curve" smooth="yes"/>
      <point x="1006.0" y="250.0" type="line" smooth="yes"/>
      <point x="998.0" y="242.0"/>
      <point x="989.0" y="246.0"/>
      <point x="980.0" y="255.0" type="curve" smooth="yes"/>
      <point x="882.0" y="353.0" type="line" smooth="yes"/>
      <point x="877.0" y="358.0"/>
      <point x="877.0" y="363.0"/>
    </contour>
    <contour>
      <point x="63.0" y="710.0" type="curve" smooth="yes"/>
      <point x="63.0" y="979.0"/>
      <point x="284.0" y="1200.0"/>
      <point x="553.0" y="1200.0" type="curve" smooth="yes"/>
      <point x="822.0" y="1200.0"/>
      <point x="1043.0" y="979.0"/>
      <point x="1043.0" y="710.0" type="curve" smooth="yes"/>
      <point x="1043.0" y="441.0"/>
      <point x="822.0" y="220.0"/>
      <point x="553.0" y="220.0" type="curve" smooth="yes"/>
      <point x="284.0" y="220.0"/>
      <point x="63.0" y="441.0"/>
    </contour>
    <contour>
      <point x="93.0" y="710.0" type="curve" smooth="yes"/>
      <point x="93.0" y="451.0"/>
      <point x="304.0" y="250.0"/>
      <point x="553.0" y="250.0" type="curve" smooth="yes"/>
      <point x="802.0" y="250.0"/>
      <point x="1013.0" y="451.0"/>
      <point x="1013.0" y="710.0" type="curve" smooth="yes"/>
      <point x="1013.0" y="959.0"/>
      <point x="802.0" y="1170.0"/>
      <point x="553.0" y="1170.0" type="curve" smooth="yes"/>
      <point x="304.0" y="1170.0"/>
      <point x="93.0" y="959.0"/>
    </contour>
  </outline>
</glyph>
<glyph name="yen" format="2">
  <advance height="1920" width="1164"/>
  <unicode hex="00A5"/>
  <outline>
    <contour>
      <point x="137.0" y="385.0" type="curve" smooth="yes"/>
      <point x="137.0" y="390.0" type="line" smooth="yes"/>
      <point x="137.0" y="397.0"/>
      <point x="140.0" y="400.0"/>
      <point x="147.0" y="400.0" type="curve" smooth="yes"/>
      <point x="1027.0" y="400.0" type="line" smooth="yes"/>
      <point x="1034.0" y="400.0"/>
      <point x="1037.0" y="397.0"/>
      <point x="1037.0" y="390.0" type="curve" smooth="yes"/>
      <point x="1037.0" y="385.0" type="line" smooth="yes"/>
      <point x="1037.0" y="378.0"/>
      <point x="1034.0" y="375.0"/>
      <point x="1027.0" y="375.0" type="curve" smooth="yes"/>
      <point x="147.0" y="375.0" type="line" smooth="yes"/>
      <point x="140.0" y="375.0"/>
      <point x="137.0" y="378.0"/>
    </contour>
    <contour>
      <point x="137.0" y="555.0" type="curve" smooth="yes"/>
      <point x="137.0" y="560.0" type="line" smooth="yes"/>
      <point x="137.0" y="567.0"/>
      <point x="140.0" y="570.0"/>
      <point x="147.0" y="570.0" type="curve" smooth="yes"/>
      <point x="1027.0" y="570.0" type="line" smooth="yes"/>
      <point x="1034.0" y="570.0"/>
      <point x="1037.0" y="567.0"/>
      <point x="1037.0" y="560.0" type="curve" smooth="yes"/>
      <point x="1037.0" y="555.0" type="line" smooth="yes"/>
      <point x="1037.0" y="548.0"/>
      <point x="1034.0" y="545.0"/>
      <point x="1027.0" y="545.0" type="curve" smooth="yes"/>
      <point x="147.0" y="545.0" type="line" smooth="yes"/>
      <point x="140.0" y="545.0"/>
      <point x="137.0" y="548.0"/>
    </contour>
    <component base="Y"/>
  </outline>
</glyph>
<glyph name="brokenbar" format="2">
  <advance height="1920" width="415"/>
  <unicode hex="00A6"/>
  <outline>
    <contour>
      <point x="204.0" y="433.0" type="curve" smooth="yes"/>
      <point x="212.0" y="433.0" type="line" smooth="yes"/>
      <point x="223.0" y="433.0"/>
      <point x="228.0" y="427.0"/>
      <point x="228.0" y="414.0" type="curve" smooth="yes"/>
      <point x="228.0" y="-344.0" type="line" smooth="yes"/>
      <point x="228.0" y="-357.0"/>
      <point x="223.0" y="-363.0"/>
      <point x="212.0" y="-363.0" type="curve" smooth="yes"/>
      <point x="204.0" y="-363.0" type="line" smooth="yes"/>
      <point x="193.0" y="-363.0"/>
      <point x="188.0" y="-357.0"/>
      <point x="188.0" y="-344.0" type="curve" smooth="yes"/>
      <point x="188.0" y="414.0" type="line" smooth="yes"/>
      <point x="188.0" y="427.0"/>
      <point x="193.0" y="433.0"/>
    </contour>
    <contour>
      <point x="204.0" y="1603.0" type="curve" smooth="yes"/>
      <point x="212.0" y="1603.0" type="line" smooth="yes"/>
      <point x="223.0" y="1603.0"/>
      <point x="228.0" y="1597.0"/>
      <point x="228.0" y="1584.0" type="curve" smooth="yes"/>
      <point x="228.0" y="826.0" type="line" smooth="yes"/>
      <point x="228.0" y="813.0"/>
      <point x="223.0" y="807.0"/>
      <point x="212.0" y="807.0" type="curve" smooth="yes"/>
      <point x="204.0" y="807.0" type="line" smooth="yes"/>
      <point x="193.0" y="807.0"/>
      <point x="188.0" y="813.0"/>
      <point x="188.0" y="826.0" type="curve" smooth="yes"/>
      <point x="188.0" y="1584.0" type="line" smooth="yes"/>
      <point x="188.0" y="1597.0"/>
      <point x="193.0" y="1603.0"/>
    </contour>
  </outline>
</glyph>
<glyph name="section" format="2">
  <advance height="1920" width="1086"/>
  <unicode hex="00A7"/>
  <outline>
    <contour>
      <point x="483.0" y="870.0" type="line"/>
      <point x="248.0" y="860.0"/>
      <point x="105.0" y="791.0"/>
      <point x="105.0" y="633.0" type="curve" smooth="yes"/>
      <point x="105.0" y="476.0"/>
      <point x="308.0" y="349.0"/>
      <point x="490.0" y="246.0" type="curve" smooth="yes"/>
      <point x="730.0" y="110.0"/>
      <point x="875.0" y="67.0"/>
      <point x="875.0" y="-93.0" type="curve" smooth="yes"/>
      <point x="875.0" y="-275.0"/>
      <point x="740.0" y="-400.0"/>
      <point x="513.0" y="-400.0" type="curve" smooth="yes"/>
      <point x="279.0" y="-400.0"/>
      <point x="196.0" y="-267.0"/>
      <point x="181.0" y="-63.0" type="curve" smooth="yes"/>
      <point x="180.116972493" y="-50.9908259059"/>
      <point x="189.0" y="-44.0"/>
      <point x="200.0" y="-44.0" type="curve" smooth="yes"/>
      <point x="201.0" y="-44.0" type="line" smooth="yes"/>
      <point x="212.0" y="-44.0"/>
      <point x="219.927541142" y="-50.701510161"/>
      <point x="221.0" y="-64.0" type="curve" smooth="yes"/>
      <point x="236.0" y="-250.0"/>
      <point x="312.0" y="-370.0"/>
      <point x="513.0" y="-370.0" type="curve" smooth="yes"/>
      <point x="721.0" y="-370.0"/>
      <point x="845.0" y="-253.0"/>
      <point x="845.0" y="-93.0" type="curve" smooth="yes"/>
      <point x="845.0" y="55.0"/>
      <point x="635.0" y="131.0"/>
      <point x="470.0" y="222.0" type="curve" smooth="yes"/>
      <point x="187.0" y="378.0"/>
      <point x="75.0" y="496.0"/>
      <point x="75.0" y="633.0" type="curve" smooth="yes"/>
      <point x="75.0" y="815.0"/>
      <point x="230.0" y="880.0"/>
      <point x="484.0" y="880.0" type="curve"/>
    </contour>
    <contour>
      <point x="613.0" y="165.0" type="line"/>
      <point x="848.0" y="195.0"/>
      <point x="981.0" y="254.0"/>
      <point x="981.0" y="432.0" type="curve" smooth="yes"/>
      <point x="981.0" y="589.0"/>
      <point x="778.0" y="691.0"/>
      <point x="596.0" y="794.0" type="curve" smooth="yes"/>
      <point x="356.0" y="930.0"/>
      <point x="211.0" y="998.0"/>
      <point x="211.0" y="1158.0" type="curve" smooth="yes"/>
      <point x="211.0" y="1340.0"/>
      <point x="316.0" y="1435.0"/>
      <point x="543.0" y="1435.0" type="curve" smooth="yes"/>
      <point x="777.0" y="1435.0"/>
      <point x="870.0" y="1302.0"/>
      <point x="885.0" y="1098.0" type="curve" smooth="yes"/>
      <point x="885.883027507" y="1085.99082591"/>
      <point x="883.0" y="1077.0"/>
      <point x="872.0" y="1077.0" type="curve" smooth="yes"/>
      <point x="871.0" y="1077.0" type="line" smooth="yes"/>
      <point x="860.0" y="1077.0"/>
      <point x="856.13296633" y="1085.7065284"/>
      <point x="855.0" y="1099.0" type="curve" smooth="yes"/>
      <point x="840.0" y="1275.0"/>
      <point x="754.0" y="1405.0"/>
      <point x="543.0" y="1405.0" type="curve" smooth="yes"/>
      <point x="335.0" y="1405.0"/>
      <point x="241.0" y="1318.0"/>
      <point x="241.0" y="1158.0" type="curve" smooth="yes"/>
      <point x="241.0" y="1010.0"/>
      <point x="450.0" y="909.0"/>
      <point x="615.0" y="818.0" type="curve" smooth="yes"/>
      <point x="898.0" y="662.0"/>
      <point x="1011.0" y="589.0"/>
      <point x="1011.0" y="432.0" type="curve" smooth="yes"/>
      <point x="1011.0" y="230.0"/>
      <point x="846.0" y="155.0"/>
      <point x="612.0" y="155.0" type="curve"/>
    </contour>
  </outline>
</glyph>
<glyph name="copyright" format="2">
  <advance width="1484"/>
  <unicode hex="00A9"/>
  <outline>
    <contour>
      <point x="1055.0" y="545.0" type="curve" smooth="yes"/>
      <point x="1048.0" y="399.0"/>
      <point x="930.0" y="229.0"/>
      <point x="741.0" y="229.0" type="curve" smooth="yes"/>
      <point x="509.0" y="229.0"/>
      <point x="414.0" y="393.0"/>
      <point x="414.0" y="621.0" type="curve" smooth="yes"/>
      <point x="414.0" y="720.0" type="line" smooth="yes"/>
      <point x="414.0" y="948.0"/>
      <point x="509.0" y="1111.0"/>
      <point x="741.0" y="1111.0" type="curve" smooth="yes"/>
      <point x="811.0" y="1111.0"/>
      <point x="1032.0" y="1093.0"/>
      <point x="1037.0" y="839.0" type="curve" smooth="yes"/>
      <point x="1037.15867512" y="830.939303863"/>
      <point x="1035.0" y="826.0"/>
      <point x="1029.0" y="826.0" type="curve" smooth="yes"/>
      <point x="1028.0" y="826.0" type="line" smooth="yes"/>
      <point x="1021.0" y="826.0"/>
      <point x="1019.15402776" y="830.93921372"/>
      <point x="1019.0" y="839.0" type="curve" smooth="yes"/>
      <point x="1016.0" y="996.0"/>
      <point x="917.0" y="1093.0"/>
      <point x="747.0" y="1093.0" type="curve" smooth="yes"/>
      <point x="521.0" y="1093.0"/>
      <point x="432.0" y="936.0"/>
      <point x="432.0" y="720.0" type="curve" smooth="yes"/>
      <point x="432.0" y="621.0" type="line" smooth="yes"/>
      <point x="432.0" y="405.0"/>
      <point x="521.0" y="247.0"/>
      <point x="747.0" y="247.0" type="curve" smooth="yes"/>
      <point x="888.0" y="247.0"/>
      <point x="1025.0" y="377.0"/>
      <point x="1037.0" y="545.0" type="curve" smooth="yes"/>
      <point x="1037.57441208" y="553.041769131"/>
      <point x="1039.0" y="558.0"/>
      <point x="1046.0" y="558.0" type="curve" smooth="yes"/>
      <point x="1047.0" y="558.0" type="line" smooth="yes"/>
      <point x="1054.0" y="558.0"/>
      <point x="1055.38610308" y="553.053007166"/>
    </contour>
    <contour>
      <point x="1439.0" y="668.0" type="curve" smooth="yes"/>
      <point x="1439.0" y="284.0"/>
      <point x="1125.0" y="-28.0"/>
      <point x="741.0" y="-28.0" type="curve" smooth="yes"/>
      <point x="357.0" y="-28.0"/>
      <point x="45.0" y="284.0"/>
      <point x="45.0" y="668.0" type="curve" smooth="yes"/>
      <point x="45.0" y="1052.0"/>
      <point x="357.0" y="1366.0"/>
      <point x="741.0" y="1366.0" type="curve" smooth="yes"/>
      <point x="1125.0" y="1366.0"/>
      <point x="1439.0" y="1052.0"/>
    </contour>
    <contour>
      <point x="1409.0" y="668.0" type="curve" smooth="yes"/>
      <point x="1409.0" y="1036.0"/>
      <point x="1109.0" y="1336.0"/>
      <point x="741.0" y="1336.0" type="curve" smooth="yes"/>
      <point x="373.0" y="1336.0"/>
      <point x="75.0" y="1036.0"/>
      <point x="75.0" y="668.0" type="curve" smooth="yes"/>
      <point x="75.0" y="300.0"/>
      <point x="373.0" y="2.0"/>
      <point x="741.0" y="2.0" type="curve" smooth="yes"/>
      <point x="1109.0" y="2.0"/>
      <point x="1409.0" y="300.0"/>
    </contour>
  </outline>
</glyph>
<glyph name="ordfeminine" format="2">
  <advance height="1920" width="847"/>
  <unicode hex="00AA"/>
  <outline>
    <contour>
      <point x="170.0" y="834.0" type="curve" smooth="yes"/>
      <point x="170.0" y="720.0"/>
      <point x="218.0" y="639.0"/>
      <point x="346.0" y="639.0" type="curve" smooth="yes"/>
      <point x="550.0" y="639.0"/>
      <point x="638.0" y="806.0"/>
      <point x="638.0" y="952.0" type="curve"/>
      <point x="658.0" y="902.0" type="line"/>
      <point x="658.0" y="759.0"/>
      <point x="537.0" y="609.0"/>
      <point x="346.0" y="609.0" type="curve" smooth="yes"/>
      <point x="197.0" y="609.0"/>
      <point x="140.0" y="709.0"/>
      <point x="140.0" y="834.0" type="curve" smooth="yes"/>
      <point x="140.0" y="965.0"/>
      <point x="183.0" y="1040.0"/>
      <point x="419.0" y="1079.0" type="curve" smooth="yes"/>
      <point x="544.0" y="1099.0"/>
      <point x="638.0" y="1159.0"/>
      <point x="638.0" y="1242.0" type="curve"/>
      <point x="648.0" y="1202.0" type="line"/>
      <point x="648.0" y="1139.0"/>
      <point x="540.0" y="1074.0"/>
      <point x="426.0" y="1054.0" type="curve" smooth="yes"/>
      <point x="218.0" y="1017.0"/>
      <point x="170.0" y="954.0"/>
    </contour>
    <contour>
      <point x="638.0" y="852.0" type="curve" smooth="yes"/>
      <point x="638.0" y="1262.0" type="line" smooth="yes"/>
      <point x="638.0" y="1402.0"/>
      <point x="563.0" y="1459.0"/>
      <point x="438.0" y="1459.0" type="curve" smooth="yes"/>
      <point x="279.0" y="1459.0"/>
      <point x="210.0" y="1363.0"/>
      <point x="199.0" y="1230.0" type="curve" smooth="yes"/>
      <point x="198.171635627" y="1219.98432167"/>
      <point x="194.0" y="1215.0"/>
      <point x="184.0" y="1215.0" type="curve" smooth="yes"/>
      <point x="183.0" y="1215.0" type="line" smooth="yes"/>
      <point x="173.0" y="1215.0"/>
      <point x="168.174907987" y="1220.74526592"/>
      <point x="170.0" y="1232.0" type="curve" smooth="yes"/>
      <point x="194.0" y="1380.0"/>
      <point x="254.0" y="1489.0"/>
      <point x="438.0" y="1489.0" type="curve" smooth="yes"/>
      <point x="598.0" y="1489.0"/>
      <point x="668.0" y="1415.0"/>
      <point x="668.0" y="1257.0" type="curve" smooth="yes"/>
      <point x="668.0" y="852.0" type="line" smooth="yes"/>
      <point x="668.0" y="760.0"/>
      <point x="687.0" y="699.0"/>
      <point x="722.0" y="656.0" type="curve" smooth="yes"/>
      <point x="729.361826313" y="646.95547053"/>
      <point x="725.0" y="639.0"/>
      <point x="715.0" y="639.0" type="curve" smooth="yes"/>
      <point x="713.0" y="639.0" type="line" smooth="yes"/>
      <point x="703.0" y="639.0"/>
      <point x="694.955402461" y="646.68336269"/>
      <point x="689.0" y="654.0" type="curve" smooth="yes"/>
      <point x="654.0" y="697.0"/>
      <point x="638.0" y="759.0"/>
    </contour>
  </outline>
</glyph>
<glyph name="logicalnot" format="2">
  <advance height="2048" width="1150"/>
  <unicode hex="00AC"/>
  <outline>
    <contour>
      <point x="127.0" y="681.0" type="curve" smooth="yes"/>
      <point x="127.0" y="684.0" type="line" smooth="yes"/>
      <point x="127.0" y="695.0"/>
      <point x="133.0" y="700.0"/>
      <point x="146.0" y="700.0" type="curve" smooth="yes"/>
      <point x="957.0" y="700.0" type="line" smooth="yes"/>
      <point x="973.0" y="700.0"/>
      <point x="980.0" y="693.0"/>
      <point x="980.0" y="677.0" type="curve" smooth="yes"/>
      <point x="980.0" y="331.0" type="line" smooth="yes"/>
      <point x="980.0" y="318.0"/>
      <point x="976.0" y="312.0"/>
      <point x="966.0" y="312.0" type="curve" smooth="yes"/>
      <point x="965.0" y="312.0" type="line" smooth="yes"/>
      <point x="955.0" y="312.0"/>
      <point x="950.0" y="318.0"/>
      <point x="950.0" y="331.0" type="curve" smooth="yes"/>
      <point x="950.0" y="665.0" type="line"/>
      <point x="146.0" y="665.0" type="line" smooth="yes"/>
      <point x="133.0" y="665.0"/>
      <point x="127.0" y="670.0"/>
    </contour>
  </outline>
</glyph>
<glyph name="registered" format="2">
  <advance width="1484"/>
  <unicode hex="00AE"/>
  <outline>
    <contour>
      <point x="502.0" y="1072.0" type="line"/>
      <point x="502.0" y="685.0" type="line"/>
      <point x="790.0" y="685.0" type="line" smooth="yes"/>
      <point x="902.0" y="685.0"/>
      <point x="1003.0" y="741.0"/>
      <point x="1003.0" y="855.0" type="curve" smooth="yes"/>
      <point x="1003.0" y="875.0" type="line" smooth="yes"/>
      <point x="1003.0" y="1001.0"/>
      <point x="932.0" y="1072.0"/>
      <point x="790.0" y="1072.0" type="curve" smooth="yes"/>
    </contour>
    <contour>
      <point x="790.0" y="1090.0" type="line" smooth="yes"/>
      <point x="938.0" y="1090.0"/>
      <point x="1021.0" y="1013.0"/>
      <point x="1021.0" y="875.0" type="curve" smooth="yes"/>
      <point x="1021.0" y="861.0" type="line" smooth="yes"/>
      <point x="1021.0" y="735.0"/>
      <point x="932.0" y="676.0"/>
      <point x="790.0" y="676.0" type="curve"/>
      <point x="790.0" y="682.0" type="line"/>
      <point x="944.0" y="682.0"/>
      <point x="1015.0" y="647.0"/>
      <point x="1015.0" y="503.0" type="curve" smooth="yes"/>
      <point x="1015.0" y="447.0" type="line" smooth="yes"/>
      <point x="1015.0" y="379.0"/>
      <point x="1033.0" y="306.0"/>
      <point x="1060.0" y="266.0" type="curve" smooth="yes"/>
      <point x="1065.27805636" y="258.180657247"/>
      <point x="1067.0" y="255.0"/>
      <point x="1067.0" y="253.0" type="curve" smooth="yes"/>
      <point x="1067.0" y="252.0" type="line" smooth="yes"/>
      <point x="1067.0" y="248.0"/>
      <point x="1065.0" y="245.0"/>
      <point x="1059.0" y="245.0" type="curve" smooth="yes"/>
      <point x="1058.0" y="245.0" type="line" smooth="yes"/>
      <point x="1052.0" y="245.0"/>
      <point x="1047.98698196" y="249.992577161"/>
      <point x="1044.0" y="257.0" type="curve" smooth="yes"/>
      <point x="1011.0" y="315.0"/>
      <point x="996.0" y="371.0"/>
      <point x="996.0" y="447.0" type="curve" smooth="yes"/>
      <point x="996.0" y="503.0" type="line" smooth="yes"/>
      <point x="996.0" y="647.0"/>
      <point x="920.0" y="673.0"/>
      <point x="790.0" y="673.0" type="curve" smooth="yes"/>
      <point x="502.0" y="673.0" type="line"/>
      <point x="502.0" y="260.0" type="line" smooth="yes"/>
      <point x="502.0" y="252.0"/>
      <point x="500.0" y="248.0"/>
      <point x="493.0" y="248.0" type="curve" smooth="yes"/>
      <point x="492.0" y="248.0" type="line" smooth="yes"/>
      <point x="485.0" y="248.0"/>
      <point x="484.0" y="252.0"/>
      <point x="484.0" y="260.0" type="curve" smooth="yes"/>
      <point x="484.0" y="1076.0" type="line" smooth="yes"/>
      <point x="484.0" y="1085.0"/>
      <point x="489.0" y="1090.0"/>
      <point x="498.0" y="1090.0" type="curve" smooth="yes"/>
    </contour>
    <contour>
      <point x="1439.0" y="668.0" type="curve" smooth="yes"/>
      <point x="1439.0" y="284.0"/>
      <point x="1125.0" y="-28.0"/>
      <point x="741.0" y="-28.0" type="curve" smooth="yes"/>
      <point x="357.0" y="-28.0"/>
      <point x="45.0" y="284.0"/>
      <point x="45.0" y="668.0" type="curve" smooth="yes"/>
      <point x="45.0" y="1052.0"/>
      <point x="357.0" y="1366.0"/>
      <point x="741.0" y="1366.0" type="curve" smooth="yes"/>
      <point x="1125.0" y="1366.0"/>
      <point x="1439.0" y="1052.0"/>
    </contour>
    <contour>
      <point x="1409.0" y="668.0" type="curve" smooth="yes"/>
      <point x="1409.0" y="1036.0"/>
      <point x="1109.0" y="1336.0"/>
      <point x="741.0" y="1336.0" type="curve" smooth="yes"/>
      <point x="373.0" y="1336.0"/>
      <point x="75.0" y="1036.0"/>
      <point x="75.0" y="668.0" type="curve" smooth="yes"/>
      <point x="75.0" y="300.0"/>
      <point x="373.0" y="2.0"/>
      <point x="741.0" y="2.0" type="curve" smooth="yes"/>
      <point x="1109.0" y="2.0"/>
      <point x="1409.0" y="300.0"/>
    </contour>
  </outline>
</glyph>
<glyph name="plusminus" format="2">
  <advance width="1168"/>
  <unicode hex="00B1"/>
  <outline>
    <contour>
      <point x="102.0" y="262.0" type="curve" smooth="yes"/>
      <point x="102.0" y="263.0" type="line" smooth="yes"/>
      <point x="102.0" y="272.0"/>
      <point x="108.0" y="275.0"/>
      <point x="120.0" y="275.0" type="curve" smooth="yes"/>
      <point x="1040.0" y="275.0" type="line" smooth="yes"/>
      <point x="1052.0" y="275.0"/>
      <point x="1058.0" y="270.0"/>
      <point x="1058.0" y="263.0" type="curve" smooth="yes"/>
      <point x="1058.0" y="262.0" type="line" smooth="yes"/>
      <point x="1058.0" y="255.0"/>
      <point x="1052.0" y="250.0"/>
      <point x="1040.0" y="250.0" type="curve" smooth="yes"/>
      <point x="120.0" y="250.0" type="line" smooth="yes"/>
      <point x="108.0" y="250.0"/>
      <point x="102.0" y="253.0"/>
    </contour>
    <contour>
      <point x="100.0" y="1040.0" type="curve" smooth="yes"/>
      <point x="100.0" y="1045.0" type="line" smooth="yes"/>
      <point x="100.0" y="1055.0"/>
      <point x="108.0" y="1060.0"/>
      <point x="120.0" y="1060.0" type="curve" smooth="yes"/>
      <point x="1040.0" y="1060.0" type="line" smooth="yes"/>
      <point x="1052.0" y="1060.0"/>
      <point x="1060.0" y="1055.0"/>
      <point x="1060.0" y="1045.0" type="curve" smooth="yes"/>
      <point x="1060.0" y="1040.0" type="line" smooth="yes"/>
      <point x="1060.0" y="1030.0"/>
      <point x="1052.0" y="1025.0"/>
      <point x="1040.0" y="1025.0" type="curve" smooth="yes"/>
      <point x="120.0" y="1025.0" type="line" smooth="yes"/>
      <point x="108.0" y="1025.0"/>
      <point x="100.0" y="1030.0"/>
    </contour>
    <contour>
      <point x="579.0" y="1498.0" type="curve" smooth="yes"/>
      <point x="581.0" y="1498.0" type="line" smooth="yes"/>
      <point x="591.0" y="1498.0"/>
      <point x="595.0" y="1491.0"/>
      <point x="595.0" y="1479.0" type="curve" smooth="yes"/>
      <point x="595.0" y="581.0" type="line" smooth="yes"/>
      <point x="595.0" y="569.0"/>
      <point x="591.0" y="561.0"/>
      <point x="581.0" y="561.0" type="curve" smooth="yes"/>
      <point x="579.0" y="561.0" type="line" smooth="yes"/>
      <point x="569.0" y="561.0"/>
      <point x="565.0" y="569.0"/>
      <point x="565.0" y="581.0" type="curve" smooth="yes"/>
      <point x="565.0" y="1479.0" type="line" smooth="yes"/>
      <point x="565.0" y="1491.0"/>
      <point x="569.0" y="1498.0"/>
    </contour>
  </outline>
</glyph>
<glyph name="acute" format="2">
  <advance width="619"/>
  <unicode hex="00B4"/>
  <outline>
    <contour>
      <point x="156.0" y="1102.0" type="line" smooth="yes"/>
      <point x="147.0" y="1102.0"/>
      <point x="137.0" y="1110.0"/>
      <point x="145.0" y="1121.0" type="curve" smooth="yes"/>
      <point x="350.0" y="1387.0" type="line" smooth="yes"/>
      <point x="363.0" y="1404.0"/>
      <point x="376.0" y="1414.0"/>
      <point x="387.0" y="1414.0" type="curve" smooth="yes"/>
      <point x="390.0" y="1414.0" type="line" smooth="yes"/>
      <point x="412.0" y="1414.0"/>
      <point x="422.270507812" y="1392.06738281"/>
      <point x="412.0" y="1380.0" type="curve" smooth="yes"/>
      <point x="189.0" y="1118.0" type="line" smooth="yes"/>
      <point x="180.0" y="1108.0"/>
      <point x="170.0" y="1102.0"/>
      <point x="161.0" y="1102.0" type="curve" smooth="yes"/>
    </contour>
  </outline>
</glyph>
<glyph name="mu" format="2">
  <advance height="1920" width="1110"/>
  <unicode hex="00B5"/>
  <outline>
    <contour>
      <point x="216.0" y="1052.0" type="curve" smooth="yes"/>
      <point x="220.0" y="1052.0" type="line" smooth="yes"/>
      <point x="227.0" y="1052.0"/>
      <point x="233.0" y="1047.0"/>
      <point x="233.0" y="1040.0" type="curve" smooth="yes"/>
      <point x="233.0" y="-350.0" type="line" smooth="yes"/>
      <point x="233.0" y="-359.0"/>
      <point x="226.0" y="-365.0"/>
      <point x="219.0" y="-365.0" type="curve" smooth="yes"/>
      <point x="217.0" y="-365.0" type="line" smooth="yes"/>
      <point x="210.0" y="-365.0"/>
      <point x="203.0" y="-359.0"/>
      <point x="203.0" y="-350.0" type="curve" smooth="yes"/>
      <point x="203.0" y="1040.0" type="line" smooth="yes"/>
      <point x="203.0" y="1047.0"/>
      <point x="209.0" y="1052.0"/>
    </contour>
    <contour>
      <point x="927.0" y="-3.0" type="curve" smooth="yes"/>
      <point x="926.0" y="-3.0" type="line" smooth="yes"/>
      <point x="916.0" y="-3.0"/>
      <point x="913.0" y="3.0"/>
      <point x="913.0" y="16.0" type="curve" smooth="yes"/>
      <point x="913.0" y="383.0" type="line"/>
      <point x="909.0" y="410.0" type="line"/>
      <point x="909.0" y="1034.0" type="line" smooth="yes"/>
      <point x="909.0" y="1047.0"/>
      <point x="912.0" y="1053.0"/>
      <point x="923.0" y="1053.0" type="curve" smooth="yes"/>
      <point x="925.0" y="1053.0" type="line" smooth="yes"/>
      <point x="936.0" y="1053.0"/>
      <point x="939.0" y="1047.0"/>
      <point x="939.0" y="1034.0" type="curve" smooth="yes"/>
      <point x="939.0" y="16.0" type="line" smooth="yes"/>
      <point x="939.0" y="3.0"/>
      <point x="936.0" y="-3.0"/>
    </contour>
    <contour>
      <point x="929.0" y="427.0" type="line"/>
      <point x="929.0" y="197.0"/>
      <point x="764.0" y="-35.0"/>
      <point x="530.0" y="-35.0" type="curve" smooth="yes"/>
      <point x="314.0" y="-35.0"/>
      <point x="216.0" y="87.0"/>
      <point x="216.0" y="317.0" type="curve" smooth="yes"/>
      <point x="216.0" y="1034.0" type="line" smooth="yes"/>
      <point x="216.0" y="1037.0"/>
      <point x="222.0" y="1043.0"/>
      <point x="223.0" y="1043.0" type="curve" smooth="yes"/>
      <point x="225.0" y="1043.0" type="line" smooth="yes"/>
      <point x="231.0" y="1043.0"/>
      <point x="233.0" y="1038.0"/>
      <point x="233.0" y="1034.0" type="curve" smooth="yes"/>
      <point x="233.0" y="317.0" type="line" smooth="yes"/>
      <point x="233.0" y="107.0"/>
      <point x="332.0" y="-10.0"/>
      <point x="530.0" y="-10.0" type="curve" smooth="yes"/>
      <point x="759.0" y="-10.0"/>
      <point x="909.0" y="217.0"/>
      <point x="909.0" y="427.0" type="curve"/>
    </contour>
  </outline>
</glyph>
<glyph name="paragraph" format="2">
  <advance height="1920" width="1070"/>
  <unicode hex="00B6"/>
  <outline>
    <contour>
      <point x="885.0" y="1365.0" type="line"/>
      <point x="885.0" y="-344.0" type="line" smooth="yes"/>
      <point x="885.0" y="-357.0"/>
      <point x="882.0" y="-364.0"/>
      <point x="871.0" y="-364.0" type="curve" smooth="yes"/>
      <point x="869.0" y="-364.0" type="line" smooth="yes"/>
      <point x="858.0" y="-364.0"/>
      <point x="854.0" y="-357.0"/>
      <point x="855.0" y="-344.0" type="curve" smooth="yes"/>
      <point x="855.0" y="1365.0" type="line"/>
      <point x="605.0" y="1365.0" type="line"/>
      <point x="605.0" y="-344.0" type="line" smooth="yes"/>
      <point x="604.0" y="-357.0"/>
      <point x="602.0" y="-364.0"/>
      <point x="591.0" y="-364.0" type="curve" smooth="yes"/>
      <point x="589.0" y="-364.0" type="line" smooth="yes"/>
      <point x="578.0" y="-364.0"/>
      <point x="575.0" y="-357.0"/>
      <point x="575.0" y="-344.0" type="curve" smooth="yes"/>
      <point x="575.0" y="600.0" type="line"/>
      <point x="495.0" y="600.0" type="line" smooth="yes"/>
      <point x="288.0" y="600.0"/>
      <point x="100.0" y="698.0"/>
      <point x="100.0" y="968.0" type="curve" smooth="yes"/>
      <point x="100.0" y="1032.0" type="line" smooth="yes"/>
      <point x="100.0" y="1302.0"/>
      <point x="288.0" y="1400.0"/>
      <point x="495.0" y="1400.0" type="curve" smooth="yes"/>
      <point x="1019.0" y="1400.0" type="line" smooth="yes"/>
      <point x="1032.0" y="1400.0"/>
      <point x="1039.0" y="1394.0"/>
      <point x="1039.0" y="1383.0" type="curve" smooth="yes"/>
      <point x="1039.0" y="1382.0" type="line" smooth="yes"/>
      <point x="1039.0" y="1371.0"/>
      <point x="1032.0" y="1365.0"/>
      <point x="1019.0" y="1365.0" type="curve" smooth="yes"/>
    </contour>
  </outline>
</glyph>
<glyph name="uni00B9" format="2">
  <advance height="1920" width="514"/>
  <unicode hex="00B9"/>
  <outline>
    <contour>
      <point x="251.0" y="1456.0" type="curve" smooth="yes"/>
      <point x="255.0" y="1468.0"/>
      <point x="258.0" y="1487.0"/>
      <point x="259.0" y="1497.0" type="curve" smooth="yes"/>
      <point x="259.696526033" y="1503.96526033"/>
      <point x="262.0" y="1510.0"/>
      <point x="267.0" y="1510.0" type="curve" smooth="yes"/>
      <point x="268.0" y="1510.0" type="line" smooth="yes"/>
      <point x="273.0" y="1510.0"/>
      <point x="275.0" y="1506.0"/>
      <point x="275.0" y="1496.0" type="curve" smooth="yes"/>
      <point x="275.0" y="656.0" type="line" smooth="yes"/>
      <point x="275.0" y="645.0"/>
      <point x="268.0" y="640.0"/>
      <point x="261.0" y="640.0" type="curve" smooth="yes"/>
      <point x="259.0" y="640.0" type="line" smooth="yes"/>
      <point x="252.0" y="640.0"/>
      <point x="245.0" y="645.0"/>
      <point x="245.0" y="656.0" type="curve" smooth="yes"/>
      <point x="245.0" y="1423.0" type="line" smooth="yes"/>
      <point x="245.0" y="1440.0"/>
      <point x="249.658443058" y="1451.97532917"/>
    </contour>
  </outline>
</glyph>
<glyph name="questiondown" format="2">
  <advance height="1920" width="1080"/>
  <unicode hex="00BF"/>
  <outline>
    <contour>
      <point x="580.0" y="1053.0" type="curve" smooth="yes"/>
      <point x="584.0" y="1053.0" type="line" smooth="yes"/>
      <point x="597.0" y="1053.0"/>
      <point x="605.0" y="1044.0"/>
      <point x="605.0" y="1032.0" type="curve" smooth="yes"/>
      <point x="605.0" y="858.0" type="line" smooth="yes"/>
      <point x="605.0" y="846.0"/>
      <point x="597.0" y="837.0"/>
      <point x="584.0" y="837.0" type="curve" smooth="yes"/>
      <point x="580.0" y="837.0" type="line" smooth="yes"/>
      <point x="567.0" y="837.0"/>
      <point x="559.0" y="846.0"/>
      <point x="559.0" y="858.0" type="curve" smooth="yes"/>
      <point x="559.0" y="1032.0" type="line" smooth="yes"/>
      <point x="559.0" y="1044.0"/>
      <point x="567.0" y="1053.0"/>
    </contour>
    <contour>
      <point x="591.0" y="653.0" type="curve" smooth="yes"/>
      <point x="593.0" y="653.0" type="line" smooth="yes"/>
      <point x="602.0" y="653.0"/>
      <point x="608.0" y="647.0"/>
      <point x="608.0" y="638.0" type="curve" smooth="yes"/>
      <point x="588.0" y="318.0"/>
      <point x="267.0" y="271.0"/>
      <point x="267.0" y="-13.0" type="curve" smooth="yes"/>
      <point x="267.0" y="-48.0" type="line" smooth="yes"/>
      <point x="267.0" y="-279.0"/>
      <point x="376.0" y="-405.0"/>
      <point x="573.0" y="-405.0" type="curve" smooth="yes"/>
      <point x="793.0" y="-405.0"/>
      <point x="907.0" y="-246.0"/>
      <point x="907.0" y="-2.0" type="curve" smooth="yes"/>
      <point x="907.0" y="82.0" type="line" smooth="yes"/>
      <point x="907.0" y="95.0"/>
      <point x="910.0" y="101.0"/>
      <point x="921.0" y="101.0" type="curve" smooth="yes"/>
      <point x="922.0" y="101.0" type="line" smooth="yes"/>
      <point x="933.0" y="101.0"/>
      <point x="937.0" y="95.0"/>
      <point x="937.0" y="82.0" type="curve" smooth="yes"/>
      <point x="937.0" y="-2.0" type="line" smooth="yes"/>
      <point x="937.0" y="-267.0"/>
      <point x="820.0" y="-435.0"/>
      <point x="573.0" y="-435.0" type="curve" smooth="yes"/>
      <point x="356.0" y="-435.0"/>
      <point x="237.0" y="-304.0"/>
      <point x="237.0" y="-53.0" type="curve" smooth="yes"/>
      <point x="237.0" y="-28.0" type="line" smooth="yes"/>
      <point x="237.0" y="295.0"/>
      <point x="555.0" y="335.0"/>
      <point x="575.0" y="639.0" type="curve" smooth="yes"/>
      <point x="576.0" y="647.0"/>
      <point x="582.0" y="653.0"/>
    </contour>
  </outline>
</glyph>
<glyph name="AE" format="2">
  <advance height="1920" width="2200"/>
  <unicode hex="00C6"/>
  <outline>
    <contour>
      <point x="500.0" y="530.0" type="line"/>
      <point x="1160.0" y="530.0" type="line"/>
      <point x="1160.0" y="500.0" type="line"/>
      <point x="500.0" y="500.0" type="line"/>
    </contour>
    <contour>
      <point x="1182.0" y="1400.0" type="line"/>
      <point x="133.0" y="10.0" type="line" smooth="yes"/>
      <point x="125.297765442" y="-0.206011473698"/>
      <point x="119.0" y="-4.0"/>
      <point x="112.0" y="-4.0" type="curve" smooth="yes"/>
      <point x="110.0" y="-4.0" type="line" smooth="yes"/>
      <point x="99.0" y="-4.0"/>
      <point x="91.6896612698" y="8.71904735592"/>
      <point x="101.0" y="21.0" type="curve" smooth="yes"/>
      <point x="1129.0" y="1377.0" type="line" smooth="yes"/>
      <point x="1138.31012891" y="1389.28067587"/>
      <point x="1145.0" y="1400.0"/>
      <point x="1162.0" y="1400.0" type="curve" smooth="yes"/>
    </contour>
    <component base="E" xOffset="920.0"/>
  </outline>
</glyph>
<glyph name="Eth" format="2">
  <advance height="1920" width="1273"/>
  <unicode hex="00D0"/>
  <outline>
    <contour>
      <point x="-4.0" y="711.0" type="curve" smooth="yes"/>
      <point x="-4.0" y="714.0" type="line" smooth="yes"/>
      <point x="-4.0" y="725.0"/>
      <point x="4.0" y="730.0"/>
      <point x="16.0" y="730.0" type="curve" smooth="yes"/>
      <point x="607.0" y="730.0" type="line" smooth="yes"/>
      <point x="618.0" y="730.0"/>
      <point x="626.0" y="724.0"/>
      <point x="626.0" y="714.0" type="curve" smooth="yes"/>
      <point x="626.0" y="711.0" type="line" smooth="yes"/>
      <point x="626.0" y="701.0"/>
      <point x="618.0" y="695.0"/>
      <point x="607.0" y="695.0" type="curve" smooth="yes"/>
      <point x="16.0" y="695.0" type="line" smooth="yes"/>
      <point x="4.0" y="695.0"/>
      <point x="-4.0" y="700.0"/>
    </contour>
    <component base="D"/>
  </outline>
</glyph>
